<svg xmlns="http://www.w3.org/2000/svg" viewBox="0 0 2560 1664"><defs><mask id="d" width="2560" height="1664" x="0" y="0" maskUnits="userSpaceOnUse"><path fill="#fff" d="M0 0h2560v1664H0z"/><path d="M1367.8 0H2560v1664H810.968c4.459-3.42 41.228-11.42 49.893-13.75l135.339-37.2c21.33-5.82 54.17-13.62 73.97-20.2 4.92-2.62 34.33-9.34 42.17-11.5 39.1-11.14 78.29-21.99 117.56-32.55l250.64-68.97c35.9-10.29 71.9-20.23 107.99-29.84 33.87-9.13 67.66-19.01 101.74-27.5 38.02-9.47 74.23-23.66 96.15-58.42a125.4 125.4 0 0 0 18.98-71.23c-.68-18.1-6.31-34.5-10.98-51.89-10.82-40.22-23.13-80.06-33.85-120.3-.43-1.63-.79-4.84.55-6.14 6.4-6.16 16.63-8.31 24.44-12.42 62.44-32.13 134.69-44.77 203.83-53.04 24.9-2.98 51.57-3.85 76.6-5.01 9.47-.44 19.02-1.73 28.52-1.99 23.44 1.1 176.17-2.78 181.16 1.13l-.26 2.93c3 2.29 13.77 18.81 17.97 23.29 53.21 56.77 145.41 58.36 202.15 6.25 4.58-4.2 13.58-11.77 16.89-16.6 64.06-93.386 9.31-203.703-104.93-206.48a146.18 146.18 0 0 0-104.98 40.796c-15.76 15.355-31.95 42.281-36.47 63.827-2.42 11.492-2.19 32.423-2.26 44.917-7.7-1.19-42.22-.53-52.47-.47.45-15.825-6.93-33.867-7.13-50.156-.04-3.033-6.68-21.652-8.08-25.548a258.3 258.3 0 0 0-45.34-77.607c-30.71-36.841-62.17-58.927-76.12-108.318-17.85-63.213 15.82-107.368 22.74-167.886 2.92-25.633-4.78-66.838-11.35-92.219-25.97-99.485-96.7-181.255-191.4-221.294-73.26-30.636-150.84-23.948-221.5-55.848-48.17-21.749-87.81-75.271-125.46-112.23-48.62-47.715-111.04-80.137-178.63-89.612-.42-.308-.83-.615-1.24-.922"/></mask><mask id="c" width="2560" height="1664" x="0" y="0" maskUnits="userSpaceOnUse"><path fill="#fff" d="M0 0h2560v1664H0z"/><path d="M933.078 0h382.442c-4.47 3.532-3.83 2.35-9.41 3.229-37.02 5.831-72.92 20.794-103.14 43.004a241.8 241.8 0 0 0-41.81 38.592c-10.6 12.596-47.44 64.927-59.49 71.729-5.99-4.273-18.27-21.414-23.27-27.92l-45.26-59.444c-14.47-19.196-26.49-37.857-47.067-51.315-11.254-7.359-26.135-11.815-39.222-14.99-4.868-1.182-9.721-.152-13.773-2.885"/></mask><mask id="b" width="2560" height="1664" x="0" y="0" maskUnits="userSpaceOnUse"><path fill="#fff" d="M0 0h2560v1664H0z"/><path d="M0 654.892c2.005 4.044 2.055 6.747 3.011 10.923 4.733 20.668 12.428 30.877 25.253 47.219 12.167 15.504 25.13 31.454 37.072 47.3a20033 20033 0 0 0 187.462 239.936l387.616 496.4c3.972 5.14 16.157 20.14 18.215 24.91 9.062 21.02 13.608 57.42 24.312 76.46 20.588 36.61 49.578 57.68 89.855 65.67.128.1.255.19.383.29H0z"/></mask><mask id="a" width="2560" height="1664" x="0" y="0" maskUnits="userSpaceOnUse"><path fill="#fff" d="M0 0h2560v1664H0z"/><path d="M0 0h911.918c-7.722 4.866-35.356 4.71-49.243 14.414-17.858 12.48-38.329 25.182-56.77 37.215a7340 7340 0 0 0-114.022 74.484L385.187 325.702 146.059 481.163a6072 6072 0 0 1-60.612 39.294c-38.829 24.947-69.264 42.547-82.122 90.221-1.349 5-.712 9.138-3.325 13.344z"/></mask></defs><g mask="url(#a)"><g mask="url(#b)"><g mask="url(#c)"><g mask="url(#d)"><path fill="#2b2847" d="M0 0h2560v1664H0z"/></g><path fill="#dacce2" d="M1070.17 1592.85c4.92-2.62 34.33-9.34 42.17-11.5 39.1-11.14 78.29-21.99 117.56-32.55l250.64-68.97c35.9-10.29 71.9-20.23 107.99-29.84 33.87-9.13 67.66-19.01 101.74-27.5 38.02-9.47 74.23-23.66 96.15-58.42a125.4 125.4 0 0 0 18.98-71.23c-.68-18.1-6.31-34.5-10.98-51.89-10.82-40.22-23.13-80.06-33.85-120.3-.43-1.63-.79-4.84.55-6.14 6.4-6.16 16.63-8.31 24.44-12.42 62.44-32.13 134.69-44.77 203.83-53.04 24.9-2.98 51.57-3.85 76.6-5.01 9.47-.44 19.02-1.73 28.52-1.99 23.44 1.1 176.17-2.78 181.16 1.13l-.26 2.93c-1.16-1.6-1.32-2.54-3.85-2.62-20.01-.57-44.31-.76-63.99-.12l-.35 1.06c-4.86 15.15-6.49 30.65-13.91 45.32-2.56 5.05-4.37 11.13-7.3 16.14-12.8 24.29-23.03 49.98-26.8 77.31-.11.82-1.76 2.93-2.37 3.63-7.03 10.31-8.6 120.62-7.29 135.74.68 7.89-3.29 21.66-2.96 28.8 3.05 42.31-30 115.38-57.16 146.8-62.85 72.7-132.25 102.49-226.69 110.07-39.22 3.15-85.09-1.68-123.67-9.37-58.26-11.61-116.44-29.51-176.6-23.96-26.8 2.47-58.5 6.71-83.89 15.67-13.38 4.72-26.4 11.31-39.31 17.23-52.15 23.89-115.37 57.65-173.92 55.12-26.43-1.14-63.36-8.71-87.88-18.05-25.34-9.65-49.21-22.04-72.67-35.56-7.79-4.49-14.92-11.34-22.93-15.12-2.86-1.35-5.83-.93-8.9-.9-1.09.02-1.79-.08-2.8-.45"/><path fill="#dbc8ef" d="M2146.59 1351.37c-.33-7.14 3.64-20.91 2.96-28.8-1.31-15.12.26-125.43 7.29-135.74.67 15.06-2.03 26.96-2.31 41.98-.34 18.37-.31 36.83-.63 55.18-.14 8.06-2.24 18.22-2.8 27.01-.7 11.08.2 26.45-1.17 36.89-1.06 1.12-2.24 2.44-3.34 3.48"/><path fill="#dacce2" d="M933.078 0H1367.8c.41.307.82.614 1.24.922 67.59 9.475 130.01 41.897 178.63 89.613 37.65 36.958 77.29 90.48 125.46 112.229 70.66 31.9 148.24 25.212 221.5 55.848 94.7 40.039 165.43 121.809 191.4 221.294 6.57 25.381 14.27 66.586 11.35 92.219-6.92 60.518-40.59 104.673-22.74 167.886 13.95 49.391 45.41 71.477 76.12 108.318a258.3 258.3 0 0 1 45.34 77.607c1.4 3.896 8.04 22.515 8.08 25.548.2 16.289 7.58 34.331 7.13 50.156 10.25-.06 44.77-.72 52.47.47-4.62 1.23-42.65.72-49.66.71l-117.51.1c-11.67.07-22.76 2.03-34.13 2.29-17.3-.45-34.08 1.59-51.13 2.97-77.28 6.22-154.63 20.04-225.95 51.51-10.37 4.58-24.91 12.67-35.8 15.53-5.91-7.26-24.7-85.299-28.67-99.637l-107.72-403.4c-5.06-18.551-9.57-39.719-14.38-58.684-17.92-70.586-35.32-141.509-53.64-211.984-6.52-25.059-13.72-59.5-22.44-83.249a98.2 98.2 0 0 0-12.7-24.053c-19.13-26.279-42.99-40.92-74.81-47.432-44.99-9.207-90.19 7.203-133.64 18.213l-109.71 27.53c-8.36 2.158-47.74 12.593-53.6 11.695-6.53-3.93-32.6-40.622-36.62-47.665-5.99-4.273-18.27-21.414-23.27-27.92l-45.26-59.444c-14.47-19.196-26.49-37.857-47.067-51.315-11.254-7.359-26.135-11.815-39.222-14.99-4.868-1.182-9.721-.152-13.773-2.885"/></g></g></g><path fill="#dacce2" d="M1412.61 180.092c32.13 1.642 68.9 25.366 77.87 57.301 4.52 16.091 8.32 32.405 12.53 48.568l30.09 118.69 63.43 249.054 58.81 223.747a11289 11289 0 0 1 46.95 175.418c3.46 13.36 8.49 27.83 10.29 41.41.38 2.87-14.22 9.49-17.31 11.37-12.7 7.79-25.29 15.74-37.77 23.86-3.28 2.16-8.98 6.83-12.19 6.74-6.01-3.96-9.77-11.24-14.74-16.52-119.03-126.506-337.37-24.44-302.21 150.1 10.26 50.94 49.59 96.75 96.47 117.41 126.45 58.83 274.57-51.04 246.83-190.2-.86-4.31-8.55-23.41-6.18-26.21 4.44-5.24 54.74-36.49 57.67-36.11 5.99 8.69 41.06 136.11 43.51 150.42 1.7 9.5 1.7 19.22.01 28.71-4.33 23.2-17.69 41.35-36.86 54.57-15.42 10.64-48.01 17.12-67.24 22.51l-101.41 27.87-605.385 165.99-99.935 27.75c-13.88 3.82-28.981 8.82-42.837 11.87a94 94 0 0 1-38.413.19c-60.266-11.81-64.956-63.67-78.848-112.84l-39.302-138-146.746-500.856A20423 20423 0 0 1 403.76 508.591c-1.589-5.78-1.578-21.885.059-27.751 10.652-38.159 34.551-59.874 72.418-69.32L1112.75 250.3a15408 15408 0 0 1 197.32-49.08c17.17-4.046 53.55-14.366 68.93-16.6l1-1.252c4.32-1.148 25.9-2.501 32.61-3.276"/><path fill="#2b2847" d="M1480.5 730.69c1.78-.319 7.66 3.737 9.84 5.014 8.32 12.67 19.59 69.637 24.59 87.447 2.68 9.581-13.64 16.926-21.68 18.937-51.47 12.881-102.84 26.476-154.2 39.917a33236 33236 0 0 1-422.663 111.557 10864 10864 0 0 1-128.934 33.978c-12.117 3.23-61.283 18.25-71.426 17.86-12.784-2.93-19.1-23.6-21.322-35.1-3.173-16.43-19.48-53.633-10.12-67.744 13.56-8.869 50.568-15.921 67.55-20.435a6912 6912 0 0 1 122.781-32.481l319.264-84.704 197.39-52.928c19.77-5.235 71.15-20.544 88.93-21.318m-232.96 243.644c2.01-.629 9.28-.566 11.82-.625 10.02 6.612 11.86 9.439 15.03 21.079 5.24 19.212 10.47 38.482 15.49 57.752 1.19 4.58 3.95 13.69.96 17.66-2.81 3.76-5.97 8.95-10.48 10.92-17.22 6.07-36.17 10.26-53.78 14.93a9799 9799 0 0 1-114.25 30.37l-215.679 57.44c-39.671 10.55-89.649 25.27-129.505 33.57l-1.02.85c-21.584 2.62-25.226-25.32-29.634-41.83-4.237-15.86-14.861-42.72-11.629-57.53 2.738-3.13 5.658-5.85 8.64-8.74 13.142-2.25 33.587-8.18 46.94-11.68a6085 6085 0 0 0 96.683-26.03l260.864-69.27 69.27-18.696c11.63-3.148 28.74-8.315 40.28-10.17m68.18-644.884.67-.036 1.11-.031c6.26-.215 11.94.775 16.67 5.24 7.51 7.093 25.71 75.717 25.29 87.59-.17 4.852-1.41 7.144-4.95 10.379-.4.372-.82.733-1.22 1.108-1.92 1.785-3.26 2.759-5.79 3.482-27.51 7.888-55.93 14.274-83.73 21.26l-158.35 39.969a6159 6159 0 0 0-66.4 17.459c-6.89 1.828-30.9 8.417-36.78 8.624-9.73 3.528-25.72-.492-26.893-11.642-1.894-18.008-28.892-76.561-15.56-89.626l1.129-1.093c2.601-2.565 3.907-3.459 7.477-4.432 19.376-5.278 39.217-10.065 58.697-14.924l101.9-25.733 120.09-30.756c22.3-5.745 44.07-11.942 66.64-16.838"/><path fill="#dacce2" d="M611.01 1398.12c-5.061-5.12-26.814-33.65-32.673-41.04l-70.678-90.56c-9.807-12.77-18.949-26.13-28.973-38.57a26582 26582 0 0 1-267.938-341.616L105.096 751.696c-13.433-17.182-27.528-33.944-40.398-51.559-9.662-13.282-19.365-24.015-24.191-40.071-10.102-33.604 2.519-66.881 31.63-86.102 12.157-8.026 24.54-15.937 36.735-23.928l113.332-73.343 451.832-294.07 134.555-88.122 41.593-26.72c16.097-10.36 28.788-21.263 47.679-26.95 21.198-6.38 43.986-3.65 63.683 6.353 5.144 2.612 9.489 6.3 13.237 10.133 12.711 13.002 118.847 151.355 120.377 156.491-4.67 5.331-44.1 13.465-54.25 16.082l-146.472 36.764-360.824 92.468C477.146 373.355 413.9 382.39 381.438 436.68c-31.519 52.714-10.949 95.381 4.114 147.302l47.68 163.062 119.851 412.926 34.788 117.32c4.718 15.76 10.781 33.8 14.922 49.38 4.035 9.9 25.676 83.45 23.914 89.68l-1.057.36c-4.71-5.69-10.694-12.52-14.64-18.59"/><path fill="#dbc8ef" d="M602.793 1326.67c4.035 9.9 25.676 83.45 23.914 89.68l-1.057.36c-4.71-5.69-10.694-12.52-14.64-18.59l1.836-.96c4.167.78 3.684 3.85 7.61 5.11.255-15.65-22.198-61.22-17.663-75.6"/><path fill="#5810cb" d="M1492.24 1098.6c74.82-3.87 138.42 54.03 141.58 128.87 3.15 74.85-55.36 137.89-130.23 140.33-73.86 2.39-135.86-55.15-138.98-128.98-3.11-73.83 53.84-136.39 127.63-140.22"/><path fill="#dbc8ef" d="M1564.21 1163.35c3.61.22 5.54.55 8.47 2.94 2.98 2.45 4.84 6.19 5.04 10.04l.18 2.4c.03 1.34.01 3.1-.71 4.28-7.54 12.39-15.87 24.27-23.58 36.54l-38.16 60.98c-4.69 7.62-10.24 17.8-15.31 24.99-3.47 4.93-13.09 4.12-18.74 3.97-12.63-8.1-38.68-21.73-48.76-31.07-25.65-10.28-22.17-43.86 6.81-29.7 13.5 6.59 29.73 21.78 43.68 26.06 3.04-.44 4.69-2.54 6.33-5.22 19.72-32.37 38.69-65.3 59.99-96.68 4.34-6.4 7.16-8.51 14.76-9.53"/><path fill="#fdfdfe" d="M2379.18 1074.04c-19.67.69-50.33-19.58-61.36-35.13-31.37-44.253-18.38-100.053 26.1-130.036 43.72-29.472 114.01-23.054 144.5 22.922 25.69 38.742 11.97 94.154-23.8 121.924-4.15 3.25-12.53 7.83-17.37 10.95-3.29 1.41-10.04 4.45-13.15 5.67-10.38 4.07-46.26 9.27-54.92 3.7"/><path fill="#2b2847" d="M2388.79 1064.75c-14.63 1.52-34.9-8.14-45.57-17.96-19.42-17.88-26.28-32.41-28.43-58.207-2.34-28.218 5.26-43.314 23.77-64.176 6.14-7.248 25.4-16.487 34.32-19.722a92.76 92.76 0 0 1 71.56 3.775c66.65 31.686 58.39 129.34-5.17 151.47-9.81 4.26-27.7 6.85-38.55 7.21-5.24.17-7.23-1.26-11.93-2.39"/><path fill="#fdfdfe" d="M2396.83 915.484c23.52-.528 39.1 3.203 57.37 18.92 45.2 38.868 13.68 115.516-43.95 116.956-2.66.11-5.33.19-8 .24a70.54 70.54 0 0 1-51.24-20.42 68.68 68.68 0 0 1-20.78-48.914c-.37-34.82 31.9-66.676 66.6-66.782"/><path fill="#db6f76" d="M2398.22 953.056c14.85-2.533 29.29 6.249 33.87 20.592a30.22 30.22 0 0 1-2.38 23.912 30.23 30.23 0 0 1-19.08 14.61 30.24 30.24 0 0 1-29.58-8.88 30.22 30.22 0 0 1-6.34-30.219 30.22 30.22 0 0 1 23.51-20.015"/><path fill="#dbc8ef" d="M2388.79 1064.75c4.7 1.13 6.69 2.56 11.93 2.39 10.85-.36 28.74-2.95 38.55-7.21-1.35 6.96-.02 4.33 7.98 4.74-3.29 1.41-10.04 4.45-13.15 5.67-10.38 4.07-46.26 9.27-54.92 3.7 4.75-.59 8.33-.08 12.98-.09 7.89-.03 15.46.2 23.15-1.64 1.51-.36 3.36-.96 4.92-1.3-.12.03 2.97-1 2.26-.75.68-.98 7.87-1.58 7.81-2.28-3.52-2.64-11.2 3.22-17.29 1.15-9.38-3.18-16.29 3.67-24.22-4.38"/></svg>