<svg xmlns="http://www.w3.org/2000/svg" viewBox="0 0 1024 1024"><path fill="#ede7f7" d="M778.54 863.579a65 65 0 0 1-10.277 4.502c-12.675 4.313-32.925 8.537-46.429 11.863l-61.776 15.853c-18.858 4.674-38.173 10.217-57.066 15.139l-101.606 25.999-155.371 39.64a3659 3659 0 0 1-58.192 14.587c-17.918 4.519-31.706 11.928-49.581 2.991a39.7 39.7 0 0 1-20.223-23.691c-2.808-8.739-6.132-24.062-8.611-33.628l-21.47-84.888-66.299-262.763a24007 24007 0 0 1-64.054-252.287 6871 6871 0 0 1-25.186-99.37c-3.352-13.473-7.245-27.064-10.348-40.517-1.655-7.173.848-16.424 4.365-22.777 5.276-9.531 14.77-16.277 25.206-19.158 26.892-7.427 54.071-13.686 81.071-20.654l227.581-57.286 142.181-36.355 43.042-10.917c8.989-2.31 17.738-4.702 26.678-6.553 17.448-3.611 38.026 8.128 44.205 24.724 3.975 10.675 6.462 25.192 9.52 36.636a4746 4746 0 0 1 28.308 111.255l66.099 260.037 23.508 92.545c3.701 14.402 7.177 29.865 11.414 44.001-.211.079-.42.165-.633.239-3.053 1.057-28.122.157-33.609.351-7.966.282-15.74 1.259-23.662 1.86-6.104.463-12.206.4-18.294 1.192-26.38 3.428-88.439 66.223-100.455 88.877-2.695 5.082-4.345 10.296-5.837 15.829.785 1.564 1.629 3.369 2.568 4.81l5.844 3.123-.48.205c-5.366 2.325-12.758 5.909-18.167 7.611 3.151 8.55 5.458 18.62 8.648 27.165-.009-.025 1.961-.712 3.505.045 1.75-.276 9.744-3.332 11.571-4.094-.289 1.713-.352 1.625-1.103 3.209-1.818 3.832-2.349 8.811-2.833 13.004 2.24 4.818 3.101 6.531 8.293 9 8.696 4.136 17.606 2.76 26.758 1.617.53-.066 3.856 2.943 4.572 3.432 10.377 9.096 19.369 7.778 31.462 3.725 4.055 3.226 8.579 6.016 12.479 9.2 31.958 26.099 64.783 52.783 100.607 73.37 3.727 2.141 8.623 5.488 12.077 7.302"/><path fill="#2b2b3f" d="M553.183 723.395c4.472 2.572 5.763 17.077 5.87 22.098-2.614.127-3.679-.024-6.31.384-4.86.434-10.198.404-14.774.795-.728-1.542-2.06-3.478-2.407-4.931-.474-1.983-.857-3.813-1.553-5.769 3.074-1.738 16.702-10.669 19.174-12.577"/><path fill="#7a3fd9" d="M553.183 723.395c2.219-4.002 4.037-7.711 9.321-6.791 3.151 8.55 5.458 18.62 8.648 27.165-.009-.025 1.961-.712 3.505.045-1.598.823-3.602 1.189-4.94 2.106-.921.631-6.415.858-6.486.825-3.191-1.486-6.948-.864-10.488-.868 2.631-.408 3.696-.257 6.31-.384-.107-5.021-1.398-19.526-5.87-22.098m-19.174 12.577c.696 1.956 1.079 3.786 1.553 5.769.347 1.453 1.679 3.389 2.407 4.931-1.956.672-10.797.495-13.139-.296-.294-.099-.409-2.067-.6-2.681 3.465-2.539 6.42-5.134 9.779-7.723M211.071 544.646c2.028-1.835 4.596-6.449 6.469-7.903 6.939-5.385 16.141-7.5 24.706-5.753 7.322 1.493 13.198 5.62 20.597 3.254 10.565-3.377 16.83-13.713 27.839-16.885 6.893-1.986 11.841-.693 17.938 2.437 12.379 10.058 12.535 19.165 25.401 27.118l.442-.041c18.675-1.549 39.471.173 41.613 24.455.749 8.48-1.227 15.456 6.689 21.969 10.239 8.338 21.277 11.592 22.458 26.881 1.342 12.408-11.007 21.047-13.77 31.553-3.376 12.84 12.84 29.303-.239 41.433-16.199 15.022-28.907 5.919-33.954 32.8-4.982 26.535-33.151 22-52.623 18.892-.83-.099-2.245.546-3.019.901l-.894.405c-12.771 5.855-22.2 18.996-39.381 14.008-9.771-2.838-18.677-19.461-25.915-23.117-14.686-7.419-30.742 6.7-42.238-15.579-4.398-8.524-.237-22.416-3.897-28.565-9.366-15.734-35.227-14.124-25.584-42.655 2.062-6.101 10.84-16.399 11.228-22.027.718-15.46-12.191-24.387-1.974-40.467 7.421-11.679 21.623-10.406 29.841-20.364 4.425-5.362 5.367-17.748 8.267-22.75"/><path fill="#2b2b3f" d="M276.642 555.089c48.03-3.74 90.002 32.154 93.76 80.183s-32.122 90.014-80.149 93.789c-48.052 3.777-90.063-32.125-93.823-80.178s32.157-90.051 80.212-93.794"/><path fill="#7a3fd9" d="M273.76 564.988c42.572-5.329 81.414 24.836 86.79 67.403 5.375 42.567-24.749 81.442-67.31 86.863-42.626 5.429-81.572-24.751-86.956-67.383-5.383-42.631 24.838-81.545 67.476-86.883"/><path fill="#2b2b3f" d="M274.111 580.142c6.525.656 7.253 1.49 12.626 5.329 13.618-.593 14.144-.19 19.373 12.484 3.97 1.729 7.212 3.114 10.091 6.608 4.139 5.022-.771 9.174-1.377 15.2 5.683 4.941 3.313 14.561-1.818 19.238 3.586 4.206 27.703 29.563 27.949 31.96.07.678-.296.864-.688 1.349-3.777 1.565-12.6-.076-16.819-.668-3.905 3.336 2.102 13.937-.483 18.441-6.682 3.034-21.754-15.91-25.841-20.809-.061 2.746-.253 5.37-.444 8.105-.63 5.32-.158 22.49-2.575 25.818-4.704 2.319-11.564-7.056-14.556-10.379-3.505 3.117-5.693 6.869-8.832 10.239-.971 1.042-1.844 1.944-3.386 1.806-.987-.088-1.744-.575-2.427-1.25-2.696-2.663-1.036-40.166-.933-46.342-1.517-2.052-3.2-4.936-4.58-7.152a37 37 0 0 1-3.352-.555c-13.115-2.814-15.481-10.221-12.623-22.136-8.614-10.307-5.42-16.016 3.533-23.928-.496-3.76.15-8.332 2.725-11.317 3.435-3.982 7.985-3.883 12.843-4.22 4.184-3.954 6.055-6.004 11.594-7.821"/><path fill="#7a3fd9" d="M274.756 587.423c4.111.743 8.048 3.269 11.74 5.316 9.76-.863 11.047.068 13.844 9.542 3.618 2.409 9.008 3.405 10.692 8.231-.163 2.432-2.423 3.769-3.179 5.819-1.944 5.267 1.671 7.706 3.755 13.205l-3.085 4.221-.662.246-.907.353c-7.393 2.808-2.161 9.276-6.145 12.887-6.563 5.947-12.801-2.064-19.876 4.361q-.857.688-1.755 1.323c-7.245 5.026-10.798-1.941-13.284-7.529-10.775-7.26-18.813.411-13.868-18.132a60.3 60.3 0 0 0-6.78-10.404c2.203-4.721 6.024-6.937 7.068-9.125 5.295-11.097-.336-11.747 13.917-12.913 4.025-2.452 4.012-5.035 8.525-7.401"/><path fill="#2b2b3f" d="M279.146 598.724c12.645-.063 22.938 10.155 22.967 22.801s-10.218 22.91-22.863 22.904c-12.597-.006-22.814-10.204-22.842-22.8-.029-12.597 10.141-22.841 22.738-22.905"/><path fill="#7a3fd9" d="M276.205 607.144c7.923-1.797 15.825 3.085 17.764 10.975 1.938 7.89-2.801 15.878-10.655 17.958a14.898 14.898 0 0 1-18.097-18.644 14.9 14.9 0 0 1 10.988-10.289m8.191 51.381c1.621 1.236 2.792 2.768 4.846 4.182l1.576 1.078c-3.108 7.249-2.666 19.931-2.801 28.282-1.195-1.405-7.762-10.951-9.909-8-5.757 3.247-2.247 2.109-6.436 7.415-.137.173-.485.109-.688.04-.383-.462.104-28.241.171-30.651 2.698-.066 6.622.153 9.107-.783l2.36-.901a70 70 0 0 1 1.774-.662m24.246-11.323c2.328 1.642 5.229 5.002 7.369 7.043 4.553 4.343 8.632 8.512 13.338 12.718-2.895-.576-5.477-1.601-8.097-1.115-3.903.723-8.925-2.733-6.505 3.73.592 1.584.747 6.179.469 7.961-2.99-2.424-19.713-18.278-22.223-21.085 4.063-.727 6.523-1.028 10.556-1.421l-.15.122c2.479-1.137 4.285-5.664 5.243-7.953"/><path fill="#2b2b3f" d="M228.199 549.588a4.784 4.784 0 1 1 3.507 8.902 4.784 4.784 0 0 1-3.507-8.902m-39.216 51.094a4.575 4.575 0 1 1 3.792 8.317 4.573 4.573 0 0 1-3.792-8.317m162.352-35.383a4.437 4.437 0 1 1 3.22 8.269 4.437 4.437 0 0 1-3.22-8.269m-53.504-28.434a4.422 4.422 0 1 1 2.945 8.338 4.422 4.422 0 0 1-2.945-8.338m-31.682 197.993c3.251.122 5.732 1.436 6.54 5.146.33 1.518-1.832 3.405-2.804 4.415-5.121.158-7.541-4.857-4.311-8.822zm66.783-11.967a4.407 4.407 0 0 1 5.486 2.843 4.407 4.407 0 1 1-8.498.437 4.4 4.4 0 0 1 3.012-3.28M185.12 659.848c6.676.086 7.632 4.508 3.7 9.245l-.52-.07c-7.006-.872-6.593-4.484-3.18-9.175m197.22-42.193a4.32 4.32 0 1 1 3.514 7.895 4.32 4.32 0 0 1-3.514-7.895m-8.681 56.457a4.245 4.245 0 1 1 .824 8.45 4.245 4.245 0 0 1-.824-8.45m-160.421 40.962c5.644-.352 9.868 1.213 5.721 7.23-5.882.827-9.542-1.737-5.721-7.23m-13.24-129.37a2.928 2.928 0 1 1 2.895 5.091 2.928 2.928 0 0 1-2.895-5.091m114.387 143.028c3.059.505 4.204 3.757 1.533 5.79-5.369-1.323-5.327-1.584-1.533-5.79m48.351-35.909a2.663 2.663 0 1 1 1.918 4.97 2.663 2.663 0 0 1-1.918-4.97M280.8 539.154c3.832.723 4.506 1.969 3.266 6.089-3.759-.477-5.072-.871-3.575-5.165zm99.839 100.905c3.844.467 5.931.274 4.281 4.491-3.916.285-6.486.27-4.281-4.491m-186.546 33.743c2.892 1.493 4.423 2.804 2.176 5.932l-.542.784c-4.025-1.223-3.439-3.849-1.634-6.716m57.438-126.857a2.51 2.51 0 1 1 1.441 4.809 2.51 2.51 0 0 1-1.441-4.809m66.7 1.507a2.495 2.495 0 1 1 2.068 4.542 2.495 2.495 0 0 1-2.068-4.542m19.286 10.41c4.504-.011 5.084 1.233 2.378 4.841-4.174-.718-4.761-1.796-2.378-4.841M204.889 698.769a2.462 2.462 0 1 1 1.947 4.522 2.462 2.462 0 0 1-1.947-4.522m26.333 21.593a2.463 2.463 0 1 1 .751 4.869 2.463 2.463 0 0 1-.751-4.869m-42.077-102.477a2.457 2.457 0 1 1 2.246 4.37 2.457 2.457 0 0 1-2.246-4.37m173.344-31.64a2.43 2.43 0 1 1 2.813 3.946 2.431 2.431 0 0 1-2.813-3.946M251.442 727.619c3.387.821 4.303 2.346 2.292 5.471l-.39.631c-2.754-.433-3.285-1.426-2.465-4.226zm125.751-64.895a2.411 2.411 0 1 1 1.517 4.577 2.411 2.411 0 0 1-1.517-4.577m-189.957-18.558c3.605 1.659 1.99 3.936-.002 6.099-3.668-2.68-3.181-3.117.002-6.099m29.993-76.456a2.344 2.344 0 1 1 1.747 4.351 2.344 2.344 0 0 1-1.747-4.351m69.47 167.12a2.338 2.338 0 1 1 .917 4.586 2.338 2.338 0 0 1-.917-4.586m90.033-131.128c2.546.492 2.723 3.227 1.594 4.909l-.418.69c-2.976-1.245-4.351-1.731-1.809-4.795zm-31.926 108.136a2.085 2.085 0 1 1 2.702 3.175 2.085 2.085 0 0 1-2.702-3.175"/><path fill="#fff" d="M512.186 693.108c11.911-.712 10.172 8.198 19.26 14.889 3.359.207 7.322-.415 9.414 2.401.711 2.858-.661 5.082-1.901 7.671-13.489 6.534-18.734-4.083-25.303-13.636-19.482 15.568-29.282 46.654-40.759 67.945-2.5 4.637-6.86 8.801-10.257 12.868-10.111 12.103-21.03 22.925-34.091 31.847-4.673 9.788-5.778 20.478-11.707 29.762-2.306 3.611-4.763 8.513-6.443 12.424.618 3.67.688 12.037.908 16.254 14.982-5.874 29.097-22.15 41.252-33.535 26.241-24.579 50.172-49.104 82.013-66.851 5.624-3.134 11.263-7.018 17.285-9.311 12.727 9.491-6.282 16.439-12.431 20.036-37.886 22.139-66.863 54.748-99.068 83.793-12.499 11.273-34.627 31.407-41.997 4.007-1.719 2.431-3.679 4.529-5.66 6.749-13.638 12.46-28.962 23.199-47.197 27.419-16.027 3.709-28.671 3.298-32.35-15.346-11.134 6.096-23.8 12.324-36.398 5.745-4.152-2.181-7.215-6.36-8.254-10.924-6.737-29.909 18.393-56.538 45.711-63.985 10.373-2.827 22.109 1.884 24.198 13.166 2.373 12.814-3.08 27.331-8.93 38.508-1.47 2.809-3.878 5.246-5.628 8.002l-.303.484c-.17 3-.09 5.448-.003 8.446 5.934 10.929 23.954 3.564 33.013-.247 26.143-10.999 45.305-38.725 55.879-64.128-15.265 5.75-31.938 1.814-32.038-17.463-.133-25.735 11.871-49.703 28.81-68.684 10.183-11.411 26.376-25.061 42.564-25.811 17.916.023 23.624 9.818 23.728 25.701l.644-1.443c7.253-16.17 18.58-40.108 36.039-46.753"/><path fill="#ede7f7" d="M449.221 727.578c3.89-.287 6.882.425 10.667 1.157 6.359 8.996 3.377 24.552 3.864 35.418l.032.592c-8.541 10.028-16.242 20.924-25.441 31.322 2.195-5.651 7.897-24.37.532-27.381-9.607.004-15.142 25.536-18.03 33.692-1.087 3.036-2.244 7.249-3.22 10.413-4.498 1.318-24.176 9.987-25.299.589-3.829-32.033 27.033-76.3 56.895-85.802M319.845 834.144c4.954-.217 8.068 1.01 7.841 6.555-.983 24.01-15.968 47.77-41.131 49.042-3.98-.125-4.337-1.207-6.853-4.009-.341-1.666-.716-3.523-.931-5.201-2.751-21.403 20.91-44.141 41.074-46.387"/><path fill="#fff" d="M398.197 130.142c7.638-1.02 9.072.165 11.344 7.676 1.439 4.758 2.628 9.704 3.728 14.524 1.389 6.085 4.765 15.331-3.844 17.552-9.91 2.698-20.079 4.647-30.098 7.091l-65.053 16.345-145.506 36.193c-19.204 4.707-38.357 9.991-57.66 14.367-1.707.314-3.52.494-5.253.698-2.94-1.933-3.239-2.099-5.659-4.766-.97-4.032-1.537-7.731-2.697-11.829-1.585-5.597-5.083-14.882-2.045-20.135 3.643-2.195 44.964-12.381 51.23-13.947l86.066-21.818 106.032-27.064c17.634-4.536 42.041-11.708 59.415-14.887m53.674 174.03c7.735-.414 8.114 15.079 8.376 20.568-5.093 2.977-37.318 9.958-45.209 11.923L261.737 373.85c-39.149 9.388-80.686 21.332-119.69 29.496-5.762-1.546-13.102-20.699-2.927-23.29a21565 21565 0 0 1 222.169-53.786l57.246-14.028c9.811-2.486 23.805-6.654 33.336-8.07m-240.8 240.474c-9.004-1.54-27.397 7.429-36.97 7.062-4.175-.161-6.068-18.066-4.763-21.646 1.349-1.042 3.098-1.582 4.745-2.003a12209 12209 0 0 0 210.27-53.81 3624 3624 0 0 1 66.18-17.042c9.968-2.564 22.242-6.463 32.556-7.615 1.455-.162 5.178.727 5.657 2.015 1.326 3.569 3.718 12.188 2.951 15.992-.368 1.825-1.74 3.018-3.139 3.533-10.207 3.76-22.855 6.178-33.502 8.909l-92.828 24.281c-11.686 3.037-44.175 10.065-53.608 15.474-6.097-3.13-11.045-4.423-17.938-2.437-11.009 3.172-17.274 13.508-27.839 16.885-7.399 2.366-13.275-1.761-20.597-3.254-8.565-1.747-17.767.368-24.706 5.753-1.873 1.454-4.441 6.068-6.469 7.903m111.737-329.013c1.876-.274 2.539-.52 4.364.058 4.044 3.148 7.937 19.876 1.415 21.655-24.392 6.653-49 12.43-73.501 18.632l-136.404 34.631c-5.41.011-6.978-.447-8.48-6.374-3.198-12.616-3.657-13.88 8.565-17.4 14.599-4.205 29.111-7.35 43.782-11.005l56.237-14.483 56.024-14.107c15.078-3.84 32.818-8.713 47.998-11.607m29.941 164.003c1.383-.248 4.955-.628 5.662.444 3.098 4.696 6.77 15.211 3.605 20.069-5.029 3.075-13.635 4.125-19.533 5.854-21.948 6.431-44.33 11.67-66.486 17.41-28.66 7.425-57.274 15.712-86.031 22.578-10.606 2.532-23.205 6.899-33.846 8.273-1.655.323-5.475.862-6.308-.781-1.975-3.898-4.408-14.653-3.772-18.654 1.442-1.809 5.232-3.382 7.479-3.897 15.859-3.637 31.551-7.861 47.313-11.897l78.384-20.464 48.803-12.853c7.894-2.045 16.832-4.654 24.73-6.082m96.973-149.006 5.146-.092c1.966 4.186 5.085 11.818 2.517 16.145-1.033 1.74-3.323 2.42-5.191 2.958-6.963 2.006-14.072 3.593-21.107 5.352l-39.21 9.92-82.023 20.443c-23.899 5.814-46.363 10.919-70.231 17.302-8.119.733-10.568-12.858-7.125-15.955 3.429-3.086 20.301-6.638 24.901-7.827a1289 1289 0 0 1 42.619-10.602c16.393-3.897 33.181-8.455 49.653-12.541l67.863-16.886c10.818-2.7 21.187-5.976 32.188-8.217m149.151 138.588c3.182-.127 4.309 1.39 5.16 4.176 2.249 7.362 7.475 15.342-3.059 18.227-16.139 4.42-32.323 8.333-48.489 12.523L450.8 430.731c-6.619-.488-6.822-8.143-8.224-13.142-.8-2.849-1.601-5.668.007-8.301 5.836-4.03 60.044-16.174 71.109-19.124a2133 2133 0 0 1 52.447-13.432c9.306-2.352 23.611-6.42 32.734-7.514m-301.197 76.448c6.562-.982 7.039 4.502 8.556 9.42 1.048 3.4 2.268 7.849.446 11.093-3.806 2.408-14.442 4.579-19.17 5.808l-32.907 8.427c-29.423 7.493-58.383 15.273-87.993 22.531-.999.125-2.675.358-3.42-.232-4.687-3.714-7.751-15.926-5.252-20.687 2.83-2.469 32.269-9.055 37.762-10.448l58.024-14.809c11.174-2.804 33.462-9.659 43.954-11.103m349.951-38.553c7.541-1.85 8.713 11.515 9.949 16.948-1.37 2.351-1.808 3.106-3.605 5.12-14.422 3.291-30.253 7.945-44.743 11.668l-89.112 22.694c-1.02-.009-2.874-.001-3.706-.538-2.369-1.532-3.391-7.057-4.383-9.681-.775-2.05-2.557-8.405-1.406-10.216.809-1.273 5.199-2.865 6.925-3.36 18.735-5.373 37.904-9.408 56.769-14.206 24.424-6.212 48.793-12.611 73.312-18.429m-34.979-143.521c5.692-.561 6.838.915 8.253 6.386 1.1 4.256 3.477 10.052 1.242 14.175-4.391 3.119-41.092 11.318-48.354 13.195a3522 3522 0 0 1-86.175 21.695c-5.181 1.339-5.997-2.231-7.461-6.39-1.334-3.791-3.366-10.302-1.514-14.007 4.33-2.97 40.182-10.91 47.26-12.725zm-107.056 77.443c7.488-.304 7.501 6.129 8.924 11.755 1.854 7.329 2.828 9.349-5.313 11.478-38.482 10.066-77.142 19.023-115.596 29.21-8.579 2.092-8.087-7.518-9.686-13.619-.9-3.437-.758-7.998 3.433-9.075 34.292-8.813 68.843-16.758 103.116-25.673 5.141-1.337 10.05-2.416 15.122-4.076m43.758 142.161c6.501.051 9.369 18.825 6.595 20.587-6.916 4.391-19.246 6.286-27.698 8.469l-38.855 10.208-28.016 7.237c-5.382 1.391-11.966 3.302-17.373 4.14-4.735-1.714-5.75-5.701-7.065-10.274-.988-3.436-2.024-7.73-.143-10.981 4.851-2.611 18.384-5.5 24.594-7.12a2726 2726 0 0 1 52.061-13.341c10.683-2.684 25.627-7.543 35.9-8.925m75.8-171.505c.829.041 3.497.13 3.923.57 3.567 3.69 6.604 16.321 4.604 20.479-4.328 2.305-26.953 7.164-33.01 8.72l-35.357 9.251c-7 1.814-15.461 4.245-22.498 5.118-6.09-.749-5.739-3.003-7.114-8.433-.839-3.315-2.306-8.279-1.308-11.583 3.852-3.038 82.074-22.869 90.76-24.122M414.431 415.214c4.398.319 5.178 1.246 6.228 5.637.987 3.32 3.285 13.003.879 15.844-1.941 2.292-15.89 5.357-19.299 6.186-21.931 5.329-43.674 11.364-65.579 16.675-2.284.175-2.928.253-4.684-.812-2.246-3.856-5.977-16.509-3.401-20.441 4.628-3.061 15.721-5.167 21.548-6.645l30.702-7.838c7.659-1.974 26.759-7.659 33.606-8.606m246.301 39.359c6.451 0 9.446 16.15 7.287 21.125-3.642 3.134-43.718 11.804-51.848 14.251-7.965 2.398-23.572 6.71-31.692 8.602-3.286-.16-4.623.013-5.772-3.696-1.12-2.917-4.232-14.635-2.123-17.009 2.911-3.277 19.364-6.632 23.875-7.929 20.005-5.756 40.193-10.139 60.273-15.344M203.371 292.66c8.129-1.522 11.296 16.739 4.019 18.425-26.805 6.211-53.473 13.717-80.144 20.319-8.102-.034-8.465-10.936-8.027-16.86 7.565-4.099 29.878-9.029 39.306-11.24 13.29-3.115 31.848-8.619 44.846-10.644m434.381 67.577c2.857.061 5.615.727 6.15 4.01.806 4.244 3.513 11.992 1.019 15.967-.244.39-13.329 4.13-14.584 4.503-5.5-.772-5.62-1.482-7.147-6.749-1.294-4.463-1.984-7.942-2.467-12.522 5.99-4.243 9.833-4.409 17.029-5.209"/><path fill="#ede7f7" d="M755.229 592.507c2.202.76 17.51.43 23.018 1.209 10.552 1.061 31.8 4.309 40.321 10.377-3.735 2.156-10.979 4.316-15.315 4.593-.202.013-1.003.164-1.249.289l.641.335c-13.602 7.25-31.653 11.636-46.067 17.494-4.8 1.951-10.965 2.847-10.178 9.642l-.247.489c1.486 4.341 3.295 11.706 4.543 16.366 1.465 5.472 4.832 15.657 5.505 20.88 3.28-.552 5.938 4.226 10.218 3.178 10.098-2.471 73.76-24.371 76.451-28.079l1.161-.128c2.776-1.323 8.575-4.675 11.301-3.381 1.168 1.96 1.751 2.993 3.925 3.602 7.661 9.703 14.538 21.731 20.851 32.41 6.439 10.892 12.957 21.995 18.538 33.37 4.542 9.258 8.495 19.759 12.428 29.345 3.064 7.468 5.834 15.413 8.021 23.168 3.621 12.844 5.197 25.606 12.394 37.187 3.262 5.251 7.483 9.628 11.656 14.157 1.234-.833 2.455-1.715 3.751-2.434-1.234 3.506-9.424 8.947-12.548 11.02-6.03 5.721-12.993 10.983-19.352 16.399-18.844 16.053-38.218 31.177-58.777 44.968-5.715 3.833-12.485 6.436-17.915 10.284-1.94 1.088-6.851 3.827-8.8 4.575-.771-.407-8.317-7.816-9.707-9.068-6.498-5.856-14.284-10.982-20.573-16.769-2.878-2.978-16.646-12.313-20.684-14.406-3.454-1.814-8.35-5.161-12.077-7.302-35.824-20.587-68.649-47.271-100.607-73.37-3.9-3.184-8.424-5.974-12.479-9.2-12.093 4.053-21.085 5.371-31.462-3.725-.716-.489-4.042-3.498-4.572-3.432-9.152 1.143-18.062 2.519-26.758-1.617-5.192-2.469-6.053-4.182-8.293-9 .484-4.193 1.015-9.172 2.833-13.004.751-1.584.814-1.496 1.103-3.209-1.827.762-9.821 3.818-11.571 4.094-1.544-.757-3.514-.07-3.505-.045-3.19-8.545-5.497-18.615-8.648-27.165 5.409-1.702 12.801-5.286 18.167-7.611l.48-.205-5.844-3.123c-.939-1.441-1.783-3.246-2.568-4.81 1.492-5.533 3.142-10.747 5.837-15.829 12.016-22.654 74.075-85.449 100.455-88.877 6.088-.792 12.19-.729 18.294-1.192 7.922-.601 15.696-1.578 23.662-1.86 5.487-.194 30.556.706 33.609-.351.213-.074.422-.16.633-.239"/><path fill="#424246" d="M755.229 592.507c2.202.76 17.51.43 23.018 1.209 10.552 1.061 31.8 4.309 40.321 10.377-3.735 2.156-10.979 4.316-15.315 4.593-.202.013-1.003.164-1.249.289l.641.335c-13.602 7.25-31.653 11.636-46.067 17.494-4.8 1.951-10.965 2.847-10.178 9.642l-.247.489c1.486 4.341 3.295 11.706 4.543 16.366 1.465 5.472 4.832 15.657 5.505 20.88-5.103 2.513-13.433 4.057-17.306 6.542l.558.317c3.583 1.995 8.74 4.917 12.607 4.449 1.077-.13 1.543.157 2.466.66 1.627 2.29.791 10.174.765 13.329-.149 18.342 5.469 35.887 11.008 53.249-7.476-1.177-22.769-3.026-28.951-6.133a2632 2632 0 0 1-40.335-20.707c-19.229-10.09-36.865-20.631-58.584-24.964-10.186-2.26-20.911-4.74-30.904 1.505-2.788 1.741-4.716 7.114-6.558 10.276 2.648 4.467-.718 6.554 6.393 12.413 14.76 12.164 31.132 21.534 45.997 33.559 27.033 20.504 52.551 42.637 80.05 62.352 28.31 20.296 59.347 36.84 86.047 59.5 7.004 5.945 13.601 10.844 18.85 18.719-1.94 1.088-6.851 3.827-8.8 4.575-.771-.407-8.317-7.816-9.707-9.068-6.498-5.856-14.284-10.982-20.573-16.769-2.878-2.978-16.646-12.313-20.684-14.406-3.454-1.814-8.35-5.161-12.077-7.302-35.824-20.587-68.649-47.271-100.607-73.37-3.9-3.184-8.424-5.974-12.479-9.2-12.093 4.053-21.085 5.371-31.462-3.725-.716-.489-4.042-3.498-4.572-3.432-9.152 1.143-18.062 2.519-26.758-1.617-5.192-2.469-6.053-4.182-8.293-9 .484-4.193 1.015-9.172 2.833-13.004.751-1.584.814-1.496 1.103-3.209-1.827.762-9.821 3.818-11.571 4.094-1.544-.757-3.514-.07-3.505-.045-3.19-8.545-5.497-18.615-8.648-27.165 5.409-1.702 12.801-5.286 18.167-7.611l.48-.205-5.844-3.123c-.939-1.441-1.783-3.246-2.568-4.81 1.492-5.533 3.142-10.747 5.837-15.829 12.016-22.654 74.075-85.449 100.455-88.877 6.088-.792 12.19-.729 18.294-1.192 7.922-.601 15.696-1.578 23.662-1.86 5.487-.194 30.556.706 33.609-.351.213-.074.422-.16.633-.239"/><path fill="#ede7f7" d="M583.259 701.723c.245-1.371.518-2.749.886-4.093 5.688-20.784 63.287-73.008 82.78-84.143 4.927-2.814 10.217-5.28 15.817-6.377 6.612-1.295 14.011-.816 20.779-1.246 14.134-.899 28.093-1.299 42.242-1.585 20.682-.418 35.894-.809 56.241 4.696l.641.335c-13.602 7.25-31.653 11.636-46.067 17.494-4.8 1.951-10.965 2.847-10.178 9.642l-.247.489c1.486 4.341 3.295 11.706 4.543 16.366 1.465 5.472 4.832 15.657 5.505 20.88-5.103 2.513-13.433 4.057-17.306 6.542-2.92-.759-10.176 2.465-12.534 4.346-7.572 1.946-18.264 6.148-25.854 8.822-7.383 2.601-17.096 5.614-24.044 8.578-3.625.346-17.329-8.098-22.943-9.379-11.339-2.587-21.982-4.368-33.438-5.503l-.394.554c-8.143-2.89-18.399 6.94-24.243 10.868-1.807 1.214-9.471 2.155-12.186 2.714"/><path fill="#2b2b3f" d="m661.208 668.783.773-1.538c2.453.046 16.717-6.078 20.499-6.387 1.096-.09 1.488-.835 2.408-1.744 3.772-.713 6.193-1.693 9.782-2.919 17.259-5.895 34.238-13.391 51.483-19.26 1.486 4.341 3.295 11.706 4.543 16.366 1.465 5.472 4.832 15.657 5.505 20.88-5.103 2.513-13.433 4.057-17.306 6.542-2.92-.759-10.176 2.465-12.534 4.346-7.572 1.946-18.264 6.148-25.854 8.822-7.383 2.601-17.096 5.614-24.044 8.578-3.625.346-17.329-8.098-22.943-9.379-11.339-2.587-21.982-4.368-33.438-5.503.667-1.971 9.196-5.831 12.142-7.955 5.109.353 22.58-8.516 28.984-10.849"/><path fill="#424246" d="M632.224 679.632c8.396-7.459 18.583-13.287 24.197-23.236 2.207-3.911 5.35-8.048 9.176-2.917 1.235 2.058-.614 4.911-.734 6.204-.286 3.082-5.005 6.964-3.655 9.1-6.404 2.333-23.875 11.202-28.984 10.849"/><path fill="#2b2b3f" d="M581.151 708.788c2.947-1.207 10.689-5.246 14.096-6.856-1.569 5.169-2.154 8.538-3.396 13.568l.149.451c1.546 4.822 2.369 8.857 5.911 12.854 1.174 1.325 2.98 3.784 3.659 5.433-1.473.78-3.652 1.045-4.035 2.517-2.655-.275-9.676 1.256-11.307 2.965-1.827.762-9.821 3.818-11.571 4.094-1.544-.757-3.514-.07-3.505-.045-3.19-8.545-5.497-18.615-8.648-27.165 5.409-1.702 12.801-5.286 18.167-7.611z"/><path fill="#ede7f7" d="m726.361 685.069.441.243c4.173 2.265 11.544 4.682 13.982 8.091.425 2.436-3.94 9.216-6.423 9.915-2.141-.27-5.782-1.318-7.506-1.379-10.741-.378-21.57.175-32.318-.745-3.109-.267-7.577-.872-10.339.516-1.368.691-2.683 2.223-4.087 2.154l-.86-.565-1.13.405-1.658-1.235c6.948-2.964 16.661-5.977 24.044-8.578 7.59-2.674 18.282-6.876 25.854-8.822M601.57 734.238c2.338-.455 3.806.607 4.884 2.811.657 1.345 3.829 2.055 3.894 3.669.052 1.293-2.21 6.854-3.539 7.276a1.2 1.2 0 0 0-.705.789c-.198.893-1.166 2.475-2.013 2.871-.75.35-1.142.42-1.639 1.29-.904 1.047-2.847 1.978-4.214 2.114l-.463-.002c-1.639.376-3.186 1.15-4.94.34-.214-.099-.082-.787-.074-.928.026-.506-.16-.771-.407-1.221-.331-.602-.125-.73-.021-1.249.422-2.117.866-4.194 1.579-6.249.399-1.149.665-2.082.937-3.246.09-.552.465-.978.877-1.279.477-.347.468-.918.055-1.281-.128-.112-.12-.289-.138-.436-.017-.281.364-.532.571-.726.679-.635.904-1.189 1.321-2.026.383-1.472 2.562-1.737 4.035-2.517m143.515-30.045 1.486 1.16c-.354 7.726 1.428 16.785 2.819 24.405.832 4.56 2.938 8.826 4.048 13.625-4.23-1.608-10.511-3.34-13.654-6.503l-.469-.46c.053-8.548 1.561-23.359 5.368-31.338zm-15.724 6.059c1.732.009 2.058 0 3.781-.377.257.818-1.318 4.12-1.518 5.381-.841 5.295-1.518 10.336-1.717 15.721-2.468-1.499-3.241-2.187-5.878-3.079-1.279-.656-4.74-2.956-6.297-3.894 1.823-3.02 2.432-4.569 3.421-7.685 2.576-8.12 4.457-4.508 8.208-6.067m-18.914 9.57c-2.835-.892-17.452-7.304-18.715-9.099-.261-2.323 6.126.452 6.756.05 1.161-.903 1.567 1.933 2.1.757.873-1.929 2.87.481 5.123-.322-.598.213 3.272-.068 3.052-.125 1.012.26 1.345.136 2.682-.115 5.206.528 5.51-.834 1.888 4.53-.678 1.118-2.111 3.216-2.886 4.324"/><path fill="#cfcfd1" d="M711.445 710.968c5.206.528 5.51-.834 1.888 4.53-.464-2.071-.692-2.759-1.888-4.53"/><path fill="#ede7f7" d="M618.707 746.684c2.954 1.944 6.541 4.288 9.341 6.436-2.388 1.011-6.192 3.222-8.332 2.416-2.283-.859-2.456.996-2.886 1.8-.302.563-.886-.8-2.315-.337-.734.858-4.54.911-4.768.764.626-.673 4.757-5.088 5.356-5.217 1.122-2.142 2.236-3.873 3.604-5.862"/><path fill="#cfcfd1" d="M614.515 756.999c-.734.858-4.54.911-4.768.764.626-.673 4.757-5.088 5.356-5.217.472 2.934-3.21 1.805-.588 4.453"/><path fill="#ede7f7" d="M636.115 759.362c1.802.671 2.51.786 3.053 2.262.316.859 5.533 3.785 6.54 4.415-2.104.222-5.216.757-7.197.213-.978-.13-15.238-1.219-8.03-4.215 2.865-1.19 3.532.24 5.634-2.675"/><path fill="#cfcfd1" d="M745.085 704.193c1.549-4.783 1.474-1.293 1.486 1.16z"/><path fill="#424246" d="M844.031 649.152c2.776-1.323 8.575-4.675 11.301-3.381 1.168 1.96 1.751 2.993 3.925 3.602 7.661 9.703 14.538 21.731 20.851 32.41 6.439 10.892 12.957 21.995 18.538 33.37 4.542 9.258 8.495 19.759 12.428 29.345 3.064 7.468 5.834 15.413 8.021 23.168 3.621 12.844 5.197 25.606 12.394 37.187 3.262 5.251 7.483 9.628 11.656 14.157 1.234-.833 2.455-1.715 3.751-2.434-1.234 3.506-9.424 8.947-12.548 11.02-22.252-25.739-18.603-40.481-28.993-69.045-9.967-27.403-39.845-91.337-61.324-109.399"/><path fill="#2b2b3f" d="M0 182.737c11.098-44.13 35.804-47.498 74.897-57.302l41.6-10.367 126.747-31.773L452.09 30.227c29.849-7.59 59.564-15.67 89.625-22.482 18.336-4.154 33.974-10.606 53.167-5.57C611.136 6.44 624.784 16.48 633.16 31.4c7.844 15.397 13.972 44.347 18.342 61.879l16.819 67.005 68.984 272.42 25.686 101.342 9.808 37.306c1.416 5.394 4.713 17.303 5.448 22.364-5.508-.779-20.816-.449-23.018-1.209-4.237-14.136-7.713-29.599-11.414-44.001l-23.508-92.545-66.099-260.037A4746 4746 0 0 0 625.9 84.669c-3.058-11.444-5.545-25.96-9.52-36.636-6.179-16.596-26.757-28.335-44.205-24.724-8.94 1.85-17.689 4.244-26.678 6.553l-43.042 10.917-142.181 36.355-227.581 57.286c-27 6.968-54.18 13.227-81.07 20.654-10.436 2.881-19.931 9.627-25.207 19.158-3.517 6.353-6.02 15.604-4.365 22.777 3.103 13.453 6.996 27.044 10.348 40.517a6871 6871 0 0 0 25.186 99.37 24007 24007 0 0 0 64.054 252.287l66.299 262.763 21.47 84.888c2.479 9.566 5.803 24.889 8.611 33.628a39.7 39.7 0 0 0 20.223 23.691c17.875 8.937 31.663 1.528 49.581-2.991a3659 3659 0 0 0 58.192-14.587l155.371-39.64 101.606-25.999c18.893-4.922 38.208-10.465 57.066-15.139l61.776-15.853c13.504-3.326 33.754-7.55 46.429-11.863a65 65 0 0 0 10.277-4.502c4.038 2.093 17.806 11.428 20.684 14.406-3.689 2.272-12.52 8.209-16.013 9.425-13.687 4.765-29.274 7.914-43.383 11.535a5510 5510 0 0 0-97.827 25.305c-32.115 8.731-65.678 16.622-97.962 24.954L370.29 993.999l-68.456 17.141c-13.842 3.55-29.826 8.51-43.911 10.2-23.594 2.82-51.028-15.6-58.954-37.586-6.737-18.686-10.798-39.868-15.854-59.06l-39.321-155.228-102.045-402.27A8415 8415 0 0 0 8.073 234.34c-2.75-10.657-5.24-22.025-8.073-32.477zm946.896 633.839c1.482-1.391 4.775-2.961 6.693-3.574 7.603 3.983 11.54 9.734 16.754 16.268 16.184 20.285 31.687 41.56 45.377 63.599 3.12 5.033 4.73 9.967 7.43 14.81-15.6 15.563-30.069 30.79-46.497 45.772a485 485 0 0 1-79.136 58.739c-5.512 3.26-13.167 7.97-19.328 9.53-2.815.71-9.385-11-11.177-13.48-7.16-9.918-13.329-20.613-19.488-31.168-5.551-10.928-29.938-55.509-29.208-65.814 1.674-3.398 7.628-5.721 11.188-7.436 1.949-.748 6.86-3.487 8.8-4.575 5.43-3.848 12.2-6.451 17.915-10.284 20.559-13.791 39.933-28.915 58.777-44.968 6.359-5.416 13.322-10.678 19.352-16.399 3.124-2.073 11.314-7.514 12.548-11.02"/><path fill="#7a3fd9" d="M818.568 604.093c1.874-.729 5.493-1.736 7.977-2.615 11.671-4.131 23.795-9.784 36.062-11.458 2.002-.273 8.289 1.016 10.434 1.629 3.13 2.688 3.835 4.745 6.188 7.121 2.712-.733 8.877-3.574 11.103-2.004 3.752 2.647 5.929 11.232 3.302 15.289-1.502 2.318-6.135 3.19-7.717 5.549-.093 1.887.598 11.37-.54 12.644-6.228 6.972-21.89 10.546-29.158 14.436a180 180 0 0 1 3.038 4.689c-2.174-.609-2.757-1.642-3.925-3.602-2.726-1.294-8.525 2.058-11.301 3.381l-1.161.128c-2.691 3.708-66.353 25.608-76.451 28.079-4.28 1.048-6.938-3.73-10.218-3.178-.673-5.223-4.04-15.408-5.505-20.88-1.248-4.66-3.057-12.025-4.543-16.366l.247-.489c-.787-6.795 5.378-7.691 10.178-9.642 14.414-5.858 32.465-10.244 46.067-17.494l-.641-.335c.246-.125 1.047-.276 1.249-.289 4.336-.277 11.58-2.437 15.315-4.593"/><path fill="#2b2b3f" d="M863.32 600.517c1.616.134 2.735.264 3.844 1.568.731.859 6.76 22.978 6.573 24.632-2.78 2.232-16.236 6.702-20.49 8.242-28.266 10.233-56.269 22.754-85.128 31.206-2.104.478-1.671.738-3.148-.032-2.141-5.235-6.692-21.565-7.365-27.116 30.977-10.575 62.041-23.138 93.17-33.572 4.153-1.392 8.407-3.353 12.544-4.928"/></svg>