<svg xmlns="http://www.w3.org/2000/svg" viewBox="0 0 1024 1024"><path fill="#ede7f7" d="M133 343.37c5.958-11.872 17.311-25.372 25.892-35.971l21.639-27.211c6.749-8.625 13.061-15.416 17.204-25.622 6.283-15.264 8.813-36.081 8.225-52.713-.833-23.592 4.708-39.421 12.778-60.499 16.079-41.994 47.15-71.024 84.228-94.928 4.604-2.968 10.316-5.391 15.096-8.15 11.331-6.695 24.13-13.17 36.689-17.282 15.372-5.035 34.612-9.777 50.713-11.851 13.675-1.762 30.576-1.098 44.285-.291 37.802 2.224 72.327 13.931 105.934 30.799 5.598 2.809 12.724 6.62 18.026 10.038 27.269-3.563 42.337-4.779 68.321 3.518 24.009 7.665 45.765 13.295 66.069 30.125 40.012 30.544 49.923 81.085 74.606 122.515 21.552 36.175 48.453 70.357 54.494 113.339 5.544 39.445-15.205 75.232-33.951 108.027a1941 1941 0 0 0-20.603 37.379c-5.297 10.02-7.52 19.66-12.022 29.102-3.63.187-6.928.368-10.56.307-1.634-21.865.692-44.701-1.998-66.763-.738-6.052.339-13.542-1.21-19.717-5.268-17.002-17.447-41.473-33.913-49.625-4.092.253-8.934-1.838-11.964-4.549-4.443-.577-23.215-1.518-24.558 3.997l2.066 1.201c-2.393-.297-6.242-1.074-8.521-.895-12.511.983-30.847 5.057-40.701 13.065-22.192 18.038-21.191 49.674-21.819 75.412a1091 1091 0 0 0-.36 47.995c.353 18.411 1.294 35.573 1.33 54.301l-.35 247.035c-3.43 2.086-9.055 6.539-12.417 9.032a357 357 0 0 1-21.337 14.952c-25.008 16.231-52.048 30.433-77.97 45.214-3.906 2.471-10.423 4.083-14.164 6.455-8.59 5.447-17.031 8.278-26.334 12.279-24.151 10.387-47.908 18.013-74.552 17.614a166.8 166.8 0 0 1-49.979-8.459c-55.927-18.576-102.037-43.98-142.876-87.093-20.237-21.363-16.988-22.695-17.141-51.077l-.263-47.844c-.461-65.82.712-131.373-.273-197.159-.169-11.294.147-22.734.351-34.037 7.146-7.683 16.731-20.196 23.554-28.554l36.167-43.479 115.676-138.57 56.423-68.134a1105 1105 0 0 0 22.823-27.575c3.527-4.357 7.005-9.038 10.493-13.379 3.3-4.107 8.901-22.226 5.647-25.6 7.562-25.037-6.056-41.209-29.255-49.267-9.027-3.135-21.088-.737-29.416 3.942-10.911 7.346-25.609 25.403-34.728 35.486l-47.121 52.443-75.324 83.41-57.213 63.021c-8.936 9.813-21.612 22.862-29.688 32.766-5.371-5.653-9.523-5.384-16.148-8.475"/><path fill="#fff" d="M710.978 353.347c4.554.309 8.366 1.713 11.964 4.549-4.092.253-8.934-1.838-11.964-4.549"/><path fill="#54308e" d="M412.525 428.211c35.936-4.382 98.122 13.771 125.553 37.501 34.799 30.103 53.237 72.005 57.208 117.229a220.1 220.1 0 0 1-50.148 158.276c-31.783 37.762-76.472 67.593-126.613 71.954-17.664 2.13-50.596-3.021-68.518-7.243-67.494-15.9-108.061-80.177-113.58-146.427a229.34 229.34 0 0 1 52.809-165.423c31.446-37.026 74.436-61.935 123.289-65.867"/><path fill="#c4bbeb" d="M417.262 462.706c1.052-.123.771-.115 1.685-.146a110.62 110.62 0 0 1 79.163 28.618c66.015 61.114 51.337 172.361-6.135 233.628-25.448 27.128-60.368 48.998-98.351 50.453-70.586 5.369-118.16-55.182-123.791-120.663a185.24 185.24 0 0 1 42.308-135.539c27.717-32.617 61.782-52.807 105.121-56.351"/><path fill="#54308e" d="M416.71 490.21c58.585-2.148 94.734 42.618 100.772 97.585 7.985 72.688-47.676 152.475-122.407 159.593-21.812 3.236-49.345-6.709-65.664-21.339-5.011-4.492-10.497-9.779-14.431-15.25-58.471-81.337 2.568-213.72 101.73-220.589"/><path fill="#c4bbeb" d="M415.525 505.711c18.566-1.76 39.575 5.076 54.069 16.883 20.528 16.268 30.19 39.47 33.353 64.977 8.15 65.724-39.719 137.933-108.326 144.736l-.795.079c-18.409 1.677-41.522-5.784-55.377-18.177-53.126-47.521-34.3-139.225 15.482-182.111 18.325-15.786 37.007-24.52 61.594-26.387"/><path fill="#54308e" d="M418.014 548.507c12.44-.12 8.31 11.229 7.255 19.512 13.111 10.998 19.745 19.055 19.233 37.188-.112 3.972-4.538 11.73-9.268 10.396-6.073-1.713-5.894-9.809-6.185-14.745-.257-11.29-12.309-19.714-22.792-21.323-7.848-1.204-18.244 3.363-19.395 12.604-1.812 14.551 7.422 16.661 18.37 22.405 6.441 3.38 13.616 6.669 18.106 12.845 12.874 17.469 7.361 50.61-17.728 53.268-2.964.669-10.888-.567-12.888 1.74-5.66 6.527.316 17.896-13.749 14.318-7.687-3.845-3.101-12.563-1.865-19.356-8.303-8.574-17.04-12.296-20.345-25.552-1.271-5.096-3.279-23.206 6.179-24.022 8.194-.706 8.224 14.185 9.615 20.325 2.731 12.051 18.301 17.18 29.473 16.277 7.6-.564 14.639-8.537 13.15-16.502-.933-6.7-6.08-11.165-11.496-14.822-12.866-8.687-30.827-15.067-33.282-32.778a31.8 31.8 0 0 1 6.291-23.414c8.683-11.474 20.744-13.128 33.851-14.898 2.985-5.708 1.832-9.213 7.47-13.466M149.148 351.845c8.076-9.904 20.752-22.953 29.688-32.766l57.213-63.021 75.324-83.41 47.121-52.443c9.119-10.083 23.817-28.14 34.728-35.486 8.328-4.68 20.389-7.077 29.416-3.942 23.199 8.058 36.817 24.23 29.255 49.267-4.592 10.688-17.425 23.792-25.425 33.208l-33.554 39.563-147.36 175.916-39.9 47.488c-10.738 12.541-26.83 30.945-36.734 44.764-1.454 2.029-.724 15.395-.631 19.17q.228 10.303.202 20.609l-.013 81.363 1.176 259.007.458 56.083c.254 30.166 4.226 82.406-31.343 94.535-23.081 7.87-77.203 13.04-99.426 3.39a43 43 0 0 1-23.547-24.61c-5.756-15.117-5.336-36.833-5.537-53.142q-.242-22.47-.076-44.94l.021-111.918-.037-50.531c-.011-8.586.525-19.872-.098-28.33-.223-1.444-.058-5.202-.572-5.828-.23 2.327-.051 3.289.204 5.654-4.323-5.116-2.464-44.85-2.372-52.822.144-12.592.054-25.119.412-37.726 1.275 7.325-.408 15.054.111 21.806.405 5.261-.68 21.619.374 25.681l.137-2.642.402.002.217.398c.013-.02.734-51.51 1.082-56.343.687-11.225.157-30.765.206-42.347l.144-90.25-.014-28.26c0-29.146 5.797-55.773 36.874-67.516 7.839-2.333 17.785-3.726 25.984-4.106 18.425-.854 51.354-5.959 67.809 2.059 3.705-3.04 4.94-3.899 8.081-7.584"/><path fill="#ede7f7" d="M10.064 589.849c.563 6.026.357 14.604.346 20.9l-.347 41.045.215 26.027c.036 3.464.274 10.513-.21 13.848-.222-1.444-.057-5.202-.571-5.828-.23 2.327-.051 3.289.204 5.654-4.323-5.116-2.464-44.85-2.372-52.822.144-12.592.054-25.119.412-37.726 1.275 7.325-.408 15.054.111 21.806.405 5.261-.68 21.619.374 25.681l.137-2.642.402.002.217.398c.013-.02.734-51.51 1.082-56.343"/><path fill="#c4bbeb" d="M55.248 636.91c14.482-6.719 41.205-6.201 57.186-9.58 6.214-1.314 19.893-2.253 24.818 1.049 2.238 1.501 1.396 13.509 1.373 16.619a372 372 0 0 0 .409 21.32l1.14 1.348c1.562 16.573.372 34.568.101 51.276-.022 1.352-.732 4.197-.862 4.714l.017 8.248c2.269 5.755 1.579 23.305 1.591 30.308l.068 39.633c-.046 14.866.906 30.616.325 45.434.272 8.398.323 27.119-1.407 34.844l.119 38.051c-.002 5.912.532 12.508-.307 18.332-.207 1.433-.201 1.989-1.478 2.81-5.028 3.234-70.336 10.634-75.518 9.435-3.93-.91-6.256-3.993-8.26-7.245-.822-18.186-.427-40.543-.489-58.914l.113-130.532-.237-63.152c-.15-12.78-1.22-42.492 1.297-53.998"/><path fill="#6b4aa0" d="M139.43 731.904c2.269 5.755 1.579 23.305 1.591 30.308l.068 39.633c-.046 14.866.906 30.616.325 45.434.272 8.398.323 27.119-1.407 34.844-.131-7.436-.419-17.259-.088-24.533-.424-3.302-.321-11.641-.332-15.16l-.062-27.28a8163 8163 0 0 1-.095-83.246m-.396-65.586 1.14 1.348c1.562 16.573.372 34.568.101 51.276-.022 1.352-.732 4.197-.862 4.714-1.004-15.294-.546-41.67-.379-57.338"/><path fill="#c4bbeb" d="M142.281 560.377c-.972 3.913.117 19.253-4.785 20.243-17.473 3.53-36.485 4.162-54.326 6.054-4.353.094-13.065 1.121-16.903-.551-8.221-3.582-5.943-26.884-5.9-33.482l.104-37.368-.077-50.774c-.035-9.555-.495-19.203.195-28.722.3-9.22 6.641-16.517 16.44-16.873 15.426-.56 33.353-2.688 48.638-2.838 15.914 1.207 13.16 10.915 14.182 21.688 1.196 12.597-.201 26.374 1.268 38.169l.105.807c4.875 3.424 10.93 9.939 11.458 16.042 1.599 18.483.824 37.742.048 56.273-.202 4.704-6.292 9.873-10.447 11.332"/><path fill="#f96e65" d="M142.281 560.377q-14.522.435-29.006 1.564c-36.81 2.663-45.865 3.017-43.44-37.003 1.692-27.952-8.052-47.247 32.312-48.47 13.58-.412 25.445-1.186 39.075.262 4.875 3.424 10.93 9.939 11.458 16.042 1.599 18.483.824 37.742.048 56.273-.202 4.704-6.292 9.873-10.447 11.332"/><path fill="#fff" d="M133.392 493.549c3.404-.239 6.251-.956 7.837 2.571-.199 3.862-2.735 8.634-5.172 11.909-9.635 12.953-19.741 25.778-29.54 38.601-1.445 1.89-4.747 4.308-7.068 4.745-4.468-1.173-9.518-9.418-12.346-13.388-3.186-4.323-12.888-17.411-1.58-18.343 3.843-.317 11.8 12.015 14.587 15.099l.46.505c9.54-8.802 22.92-33.324 32.822-41.699"/><path fill="#c4bbeb" d="M424.315 105.582c7.173-.569 11.941 2.704 12.609 10.119.744 8.257-9.44 17.532-14.623 23.526l-22.925 26.47-55.482 64.724-170.946 198.735c-1.491 1.679-3.011 3.554-4.467 5.283.011-2.52-.1-5.289.041-7.786.63-11.194-1.785-21.558-3.651-32.606 12.233-14.702 27.616-31.035 40.563-45.646l94.663-106.59 75.403-85.274a2552 2552 0 0 1 27.953-31.322c4.754-5.331 9.404-10.821 14.256-16.059 1.982-2.14 3.868-2.624 6.606-3.574"/><path fill="#54308e" d="m618.065 795.458.35-247.035c-.036-18.728-.977-35.89-1.33-54.301-.232-15.999-.112-32.001.36-47.995.628-25.738-.373-57.374 21.819-75.412 9.854-8.008 28.19-12.082 40.701-13.065 2.279-.179 6.128.598 8.521.895 16.238.996 28.155 6.51 39.306 18.656 7.209 7.852 15.072 23.154 16.976 33.507 1.654 8.992 1.278 25.679 1.28 35.338l.023 60.005c24.212.27 46.827-2.307 71.04-3.865l57.649-3.663c7.491-.452 16.023-.592 23.346-1.189 1.53-8.329.503-14.737.453-23.125.003-18.489-.604-37.401 1.046-55.814 1.312-14.64 2.833-28.621 16.343-37.115 35.179-22.116 90.512-17.305 93.562 33.167.78 12.788.63 24.964.6 37.654l-.1 49.803-.41 166.34.18 87.2c.15 20.059 1.27 45.509-1.9 64.688-4.62 27.906-40.239 45.345-66.295 39.26-13.059-3.05-25.833-11.038-33.069-22.696-10.309-16.782-8.537-41.467-8.512-60.606l.074-49.793.035-170.834c-10.348.043-22.265 1.455-32.759 2.132-40.45 2.61-82.172 6.456-122.607 7.3l1.296 210.617c.044 6.832.186 13.634.291 20.477.364 23.746 2.989 47.587-.682 71.22-1.694 10.907-7.357 19.423-14.862 27.318-13.263 13.82-33.841 14.858-51.898 15.022-16.213.147-34.522-3.893-46.43-15.857a42.2 42.2 0 0 1-10.197-16.911c-5.329-16.737-4.069-62.652-4.2-81.323"/><path fill="#c4bbeb" d="M702.27 571.207c9.711-1.219 13.98 5.429 14.981 14.198 1.099 9.619 1.103 19.517 1.359 29.204q.723 29.057.821 58.123l.989 94.617c.089 31.146-.449 63.732.871 94.697-.51.935-1.954 3.691-2.602 4.382-6.469 6.897-21.916 10.333-30.568 11.003-5.035.561-8.645.556-13.683.373-3.672-3.452-5.368-5.944-5.431-11.046-.222-17.765-.089-35.564-.22-53.333l-.833-122.534-.542-69.98c-.05-10.612-.79-31.301 1.202-40.724 7.571-8.297 22.817-8.042 33.656-8.98m245.771-7.657c4.645-7.034 15.45-6.455 23.057-6.811 11.863-.555 15.511-1.128 15.615 11.715.11 13.504-.123 26.7-.14 40.039l.062 83.27.199 74.369c.066 12.748.39 26.303-.085 39.05-.522 14.017-9.613 21.208-23.495 21.803-16.653.714-15.773-13.957-15.877-25.998l-.353-206.369c-.574-7.311-1.827-24.871 1.017-31.068"/><path fill="#ae95d6" d="M948.041 563.55c.947 7.189.882 24.097-1.017 31.068-.574-7.311-1.827-24.871 1.017-31.068"/><path fill="#fff" d="M671.11 404.668a46 46 0 0 1 2.194-.751c8.798-2.717 27.2-1.364 35.814 2.578 2.85 1.305 5.861 5.152 6.666 8.232 4.132 15.812-1.376 32.543 3.603 48.313 15.009 8.751 8.76 26.415 10.282 41.462.739 7.302.653 17.282-2.902 23.75-4.554 7.09-18.816 6.843-26.263 7.469-8.822.742-29.497 5.114-32.4-7.093-2.403-6.68-1.975-19.181-1.193-26.391l.159-12.486-.225-56.257c.008-6.911-.354-14.582.247-21.444.205-2.333 2.603-5.426 4.018-7.382"/><path fill="#c4bbeb" d="M671.11 404.668a46 46 0 0 1 2.194-.751c8.798-2.717 27.2-1.364 35.814 2.578 2.85 1.305 5.861 5.152 6.666 8.232 4.132 15.812-1.376 32.543 3.603 48.313-10.729-3.056-33.847-4.788-44.248.093-10.294 4.831-6.507 17.97-8.069 26.618l-.225-56.257c.008-6.911-.354-14.582.247-21.444.205-2.333 2.603-5.426 4.018-7.382"/><path fill="#ede7f7" d="m666.911 502.237 1.183 1.343c.758 7.737.309 16.031.551 23.866.011.354-.42.984-.541 1.182-2.403-6.68-1.975-19.181-1.193-26.391"/><path fill="#f96e65" d="M676.816 467.456c.835-.005 2.395-.054 3.076.464 7.055 5.356 12.281 12.682 19.108 18.493 4.979-4.662 13.89-21.18 21.705-16.805a6.46 6.46 0 0 1 3.087 3.917c2.188 7.766-11.151 14.841-14.287 21.458-2.483 5.24 9.183 13.02 12.122 17.656 2.553 4.025 2.304 2.958 3.779 7.675-2.916 4.38-4.67 6.683-10.132 4.976-5.946-4.228-10.741-14.604-16.029-15.98-8.146 1.121-12.366 14.818-19.616 18.628-1.907 1.405-7.315.978-8.011-1.785-3.162-12.547 12.237-18.293 16.427-29.576-6.258-10.085-26.105-19.388-11.229-29.121"/><path fill="#c4bbeb" d="M961.8 409.659c7.859-.817 19.549 1.623 24.517 8.22 1.307 2.041 1.98 5.979 2.063 8.411.421 12.367.237 24.947.232 37.314l-.034 29.631c-.017 7.572.089 18.902-1.344 26.151-4.713 4.546-8.79 4.372-15.191 5.154-10.174.364-17.979 5.085-24.835-5.468-1.228-9.542-.352-28.956-.317-39.308q-.134-20.265.403-40.524c.31-15.187-3.608-26.924 14.506-29.581"/><path fill="#ede7f7" d="M758.043 575.721c2.39-.101 4.132.133 6.492.371 1.205 15.845-1.747 41.161-5.615 56.302l-.493 2.664-.394.161c-.601-2.59-.998-12.491-.973-14.95.056-5.446-2.077-41.86.983-44.548"/></svg>