<?xml version="1.0" encoding="utf-8" ?><svg xmlns="http://www.w3.org/2000/svg" xmlns:xlink="http://www.w3.org/1999/xlink" width="1024" height="1024" viewBox="0 0 1024 1024"><metadata><c2pa:manifest xmlns:c2pa="http://c2pa.org/manifest">AABvQGp1bWIAAAAeanVtZGMycGEAEQAQgAAAqgA4m3EDYzJwYQAAADONanVtYgAAAEdqdW1kYzJtYQARABCAAACqADibcQN1cm46YzJwYTo1MzViYmU0NS0yZjA0LTRlMWMtYThmZC05ZGQ5NWE0YWVmOTEAAAAB4mp1bWIAAAApanVtZGMyYXMAEQAQgAAAqgA4m3EDYzJwYS5hc3NlcnRpb25zAAAAAO1qdW1iAAAAQWp1bWRjYm9yABEAEIAAAKoAOJtxE2MycGEuYWN0aW9ucy52MgAAAAAYYzJzaG9B1PgEcZstmj/VXjFTpcgAAACkY2JvcqFnYWN0aW9uc4GjZmFjdGlvbmxjMnBhLmNyZWF0ZWRxZGlnaXRhbFNvdXJjZVR5cGV4Rmh0dHA6Ly9jdi5pcHRjLm9yZy9uZXdzY29kZXMvZGlnaXRhbHNvdXJjZXR5cGUvdHJhaW5lZEFsZ29yaXRobWljTWVkaWFrZGVzY3JpcHRpb252Q3JlYXRlZCBieSBSZWNyYWZ0IEFJLgAAAMRqdW1iAAAAQGp1bWRjYm9yABEAEIAAAKoAOJtxE2MycGEuaGFzaC5kYXRhAAAAABhjMnNoWBCP5cGvukyUnwVr3/KsxwAAAHxjYm9ypWpleGNsdXNpb25zgaJlc3RhcnQY22ZsZW5ndGgZRPBkbmFtZW5qdW1iZiBtYW5pZmVzdGNhbGdmc2hhMjU2ZGhhc2hYIMTELtetRwEkEBeHUfTJObikiEe4+8qob37GXk2NGN1YY3BhZEkAAAAAAAAAAAAAAAI0anVtYgAAACdqdW1kYzJjbAARABCAAACqADibcQNjMnBhLmNsYWltLnYyAAAAAgVjYm9ypmppbnN0YW5jZUlEeCx4bXA6aWlkOjQ4OWVkNWU0LTVlZGYtNGU5YS1hZmMzLWI4NGQxNjM3NDViZnRjbGFpbV9nZW5lcmF0b3JfaW5mb6NkbmFtZWpyZWNyYWZ0LmFpZ3ZlcnNpb254KDgxY2U4MmUyYzVjM2NiZmJlOGM2ZmJlMTc5ZDVmOGQ5MWM0MDljZTF3b3JnLmNvbnRlbnRhdXRoLmMycGFfcnNmMC45MC43aXNpZ25hdHVyZXhNc2VsZiNqdW1iZj0vYzJwYS91cm46YzJwYTo1MzViYmU0NS0yZjA0LTRlMWMtYThmZC05ZGQ5NWE0YWVmOTEvYzJwYS5zaWduYXR1cmVyY3JlYXRlZF9hc3NlcnRpb25zgqJjdXJseCpzZWxmI2p1bWJmPWMycGEuYXNzZXJ0aW9ucy9jMnBhLmFjdGlvbnMudjJkaGFzaFgg5P39SSzi0zhzk56Xnh+duRubadJ4uO3dejP7lCpW2JaiY3VybHgpc2VsZiNqdW1iZj1jMnBhLmFzc2VydGlvbnMvYzJwYS5oYXNoLmRhdGFkaGFzaFggXE0tz2bxZQ5KJ6GjnP2rtcHq3brfDkvhy+yO53hfpnVoZGM6dGl0bGV4GlJlY3JhZnQgQUkgR2VuZXJhdGVkIEltYWdlY2FsZ2ZzaGEyNTYAAC8oanVtYgAAAChqdW1kYzJjcwARABCAAACqADibcQNjMnBhLnNpZ25hdHVyZQAAAC74Y2JvctKEWQPsogEmGCGCWQH0MIIB8DCCAZWgAwIBAgIUJcFH1Va4pZJDhzepwEtzPPNj2YMwCgYIKoZIzj0EAwIwQTELMAkGA1UEBhMCVVMxEzARBgNVBAoMClJlY3JhZnQgQUkxHTAbBgNVBAMMFFJlY3JhZnQgQzJQQSBSb290IENBMB4XDTI2MDkxMDE2NTIzNFoXDTI3MDkxMDE2NTIzNFowNzELMAkGA1UEBhMCVVMxEzARBgNVBAoMClJlY3JhZnQgQUkxEzARBgNVBAMMCnJlY3JhZnQuYWkwWTATBgcqhkjOPQIBBggqhkjOPQMBBwNCAASoOPdqG3YmNRdGd+dltfh1ikcE/nkLm8YK10H29taFa8iegusHYB1678yl5Bs18hLaV/Fhd+Ni32xAlnHdbimFo3UwczAMBgNVHRMBAf8EAjAAMA4GA1UdDwEB/wQEAwIGwDATBgNVHSUEDDAKBggrBgEFBQcDBDAdBgNVHQ4EFgQUgVwhvbEXPSSgCubOfUHxCtuoVAQwHwYDVR0jBBgwFoAUc9yF+sfWlRHeWv2Iucaec5jwdAgwCgYIKoZIzj0EAwIDSQAwRgIhAJltDpQN+vbXITLxb+8BNwSL6/5WktO4Sevkb0VXjtfWAiEAqhoz7z/sN32NxdnnZsQVTeu3P7CgGtJdXFx283fp08RZAewwggHoMIIBjaADAgECAhQAydo/NKOQWWu/4V5FktVQHX7jTDAKBggqhkjOPQQDAjBBMQswCQYDVQQGEwJVUzETMBEGA1UECgwKUmVjcmFmdCBBSTEdMBsGA1UEAwwUUmVjcmFmdCBDMlBBIFJvb3QgQ0EwHhcNMjYwOTEwMTY1MjM0WhcNMzYwOTA3MTY1MjM0WjBBMQswCQYDVQQGEwJVUzETMBEGA1UECgwKUmVjcmFmdCBBSTEdMBsGA1UEAwwUUmVjcmFmdCBDMlBBIFJvb3QgQ0EwWTATBgcqhkjOPQIBBggqhkjOPQMBBwNCAAQbQ+eF6fkpnHhTwrMxSBLh/JhROWkzsC8L8jN1r1Rlf8oECvzEFk3WujloPtNs3PLADriqR5rGtd+8giFuiTLno2MwYTAfBgNVHSMEGDAWgBRz3IX6x9aVEd5a/Yi5xp5zmPB0CDAPBgNVHRMBAf8EBTADAQH/MA4GA1UdDwEB/wQEAwIBhjAdBgNVHQ4EFgQUc9yF+sfWlRHeWv2Iucaec5jwdAgwCgYIKoZIzj0EAwIDSQAwRgIhAND2Z+xryBRnMbxk8eAzMcAq8bzl0rfA9Y2z7q5QoEUeAiEA6ZbI3e47h5clRZaARSOOotKXsK/YQMWC3vj91d3bmlOhY3BhZFkqtAAAAAAAAAAAAAAAAAAAAAAAAAAAAAAAAAAAAAAAAAAAAAAAAAAAAAAAAAAAAAAAAAAAAAAAAAAAAAAAAAAAAAAAAAAAAAAAAAAAAAAAAAAAAAAAAAAAAAAAAAAAAAAAAAAAAAAAAAAAAAAAAAAAAAAAAAAAAAAAAAAAAAAAAAAAAAAAAAAAAAAAAAAAAAAAAAAAAAAAAAAAAAAAAAAAAAAAAAAAAAAAAAAAAAAAAAAAAAAAAAAAAAAAAAAAAAAAAAAAAAAAAAAAAAAAAAAAAAAAAAAAAAAAAAAAAAAAAAAAAAAAAAAAAAAAAAAAAAAAAAAAAAAAAAAAAAAAAAAAAAAAAAAAAAAAAAAAAAAAAAAAAAAAAAAAAAAAAAAAAAAAAAAAAAAAAAAAAAAAAAAAAAAAAAAAAAAAAAAAAAAAAAAAAAAAAAAAAAAAAAAAAAAAAAAAAAAAAAAAAAAAAAAAAAAAAAAAAAAAAAAAAAAAAAAAAAAAAAAAAAAAAAAAAAAAAAAAAAAAAAAAAAAAAAAAAAAAAAAAAAAAAAAAAAAAAAAAAAAAAAAAAAAAAAAAAAAAAAAAAAAAAAAAAAAAAAAAAAAAAAAAAAAAAAAAAAAAAAAAAAAAAAAAAAAAAAAAAAAAAAAAAAAAAAAAAAAAAAAAAAAAAAAAAAAAAAAAAAAAAAAAAAAAAAAAAAAAAAAAAAAAAAAAAAAAAAAAAAAAAAAAAAAAAAAAAAAAAAAAAAAAAAAAAAAAAAAAAAAAAAAAAAAAAAAAAAAAAAAAAAAAAAAAAAAAAAAAAAAAAAAAAAAAAAAAAAAAAAAAAAAAAAAAAAAAAAAAAAAAAAAAAAAAAAAAAAAAAAAAAAAAAAAAAAAAAAAAAAAAAAAAAAAAAAAAAAAAAAAAAAAAAAAAAAAAAAAAAAAAAAAAAAAAAAAAAAAAAAAAAAAAAAAAAAAAAAAAAAAAAAAAAAAAAAAAAAAAAAAAAAAAAAAAAAAAAAAAAAAAAAAAAAAAAAAAAAAAAAAAAAAAAAAAAAAAAAAAAAAAAAAAAAAAAAAAAAAAAAAAAAAAAAAAAAAAAAAAAAAAAAAAAAAAAAAAAAAAAAAAAAAAAAAAAAAAAAAAAAAAAAAAAAAAAAAAAAAAAAAAAAAAAAAAAAAAAAAAAAAAAAAAAAAAAAAAAAAAAAAAAAAAAAAAAAAAAAAAAAAAAAAAAAAAAAAAAAAAAAAAAAAAAAAAAAAAAAAAAAAAAAAAAAAAAAAAAAAAAAAAAAAAAAAAAAAAAAAAAAAAAAAAAAAAAAAAAAAAAAAAAAAAAAAAAAAAAAAAAAAAAAAAAAAAAAAAAAAAAAAAAAAAAAAAAAAAAAAAAAAAAAAAAAAAAAAAAAAAAAAAAAAAAAAAAAAAAAAAAAAAAAAAAAAAAAAAAAAAAAAAAAAAAAAAAAAAAAAAAAAAAAAAAAAAAAAAAAAAAAAAAAAAAAAAAAAAAAAAAAAAAAAAAAAAAAAAAAAAAAAAAAAAAAAAAAAAAAAAAAAAAAAAAAAAAAAAAAAAAAAAAAAAAAAAAAAAAAAAAAAAAAAAAAAAAAAAAAAAAAAAAAAAAAAAAAAAAAAAAAAAAAAAAAAAAAAAAAAAAAAAAAAAAAAAAAAAAAAAAAAAAAAAAAAAAAAAAAAAAAAAAAAAAAAAAAAAAAAAAAAAAAAAAAAAAAAAAAAAAAAAAAAAAAAAAAAAAAAAAAAAAAAAAAAAAAAAAAAAAAAAAAAAAAAAAAAAAAAAAAAAAAAAAAAAAAAAAAAAAAAAAAAAAAAAAAAAAAAAAAAAAAAAAAAAAAAAAAAAAAAAAAAAAAAAAAAAAAAAAAAAAAAAAAAAAAAAAAAAAAAAAAAAAAAAAAAAAAAAAAAAAAAAAAAAAAAAAAAAAAAAAAAAAAAAAAAAAAAAAAAAAAAAAAAAAAAAAAAAAAAAAAAAAAAAAAAAAAAAAAAAAAAAAAAAAAAAAAAAAAAAAAAAAAAAAAAAAAAAAAAAAAAAAAAAAAAAAAAAAAAAAAAAAAAAAAAAAAAAAAAAAAAAAAAAAAAAAAAAAAAAAAAAAAAAAAAAAAAAAAAAAAAAAAAAAAAAAAAAAAAAAAAAAAAAAAAAAAAAAAAAAAAAAAAAAAAAAAAAAAAAAAAAAAAAAAAAAAAAAAAAAAAAAAAAAAAAAAAAAAAAAAAAAAAAAAAAAAAAAAAAAAAAAAAAAAAAAAAAAAAAAAAAAAAAAAAAAAAAAAAAAAAAAAAAAAAAAAAAAAAAAAAAAAAAAAAAAAAAAAAAAAAAAAAAAAAAAAAAAAAAAAAAAAAAAAAAAAAAAAAAAAAAAAAAAAAAAAAAAAAAAAAAAAAAAAAAAAAAAAAAAAAAAAAAAAAAAAAAAAAAAAAAAAAAAAAAAAAAAAAAAAAAAAAAAAAAAAAAAAAAAAAAAAAAAAAAAAAAAAAAAAAAAAAAAAAAAAAAAAAAAAAAAAAAAAAAAAAAAAAAAAAAAAAAAAAAAAAAAAAAAAAAAAAAAAAAAAAAAAAAAAAAAAAAAAAAAAAAAAAAAAAAAAAAAAAAAAAAAAAAAAAAAAAAAAAAAAAAAAAAAAAAAAAAAAAAAAAAAAAAAAAAAAAAAAAAAAAAAAAAAAAAAAAAAAAAAAAAAAAAAAAAAAAAAAAAAAAAAAAAAAAAAAAAAAAAAAAAAAAAAAAAAAAAAAAAAAAAAAAAAAAAAAAAAAAAAAAAAAAAAAAAAAAAAAAAAAAAAAAAAAAAAAAAAAAAAAAAAAAAAAAAAAAAAAAAAAAAAAAAAAAAAAAAAAAAAAAAAAAAAAAAAAAAAAAAAAAAAAAAAAAAAAAAAAAAAAAAAAAAAAAAAAAAAAAAAAAAAAAAAAAAAAAAAAAAAAAAAAAAAAAAAAAAAAAAAAAAAAAAAAAAAAAAAAAAAAAAAAAAAAAAAAAAAAAAAAAAAAAAAAAAAAAAAAAAAAAAAAAAAAAAAAAAAAAAAAAAAAAAAAAAAAAAAAAAAAAAAAAAAAAAAAAAAAAAAAAAAAAAAAAAAAAAAAAAAAAAAAAAAAAAAAAAAAAAAAAAAAAAAAAAAAAAAAAAAAAAAAAAAAAAAAAAAAAAAAAAAAAAAAAAAAAAAAAAAAAAAAAAAAAAAAAAAAAAAAAAAAAAAAAAAAAAAAAAAAAAAAAAAAAAAAAAAAAAAAAAAAAAAAAAAAAAAAAAAAAAAAAAAAAAAAAAAAAAAAAAAAAAAAAAAAAAAAAAAAAAAAAAAAAAAAAAAAAAAAAAAAAAAAAAAAAAAAAAAAAAAAAAAAAAAAAAAAAAAAAAAAAAAAAAAAAAAAAAAAAAAAAAAAAAAAAAAAAAAAAAAAAAAAAAAAAAAAAAAAAAAAAAAAAAAAAAAAAAAAAAAAAAAAAAAAAAAAAAAAAAAAAAAAAAAAAAAAAAAAAAAAAAAAAAAAAAAAAAAAAAAAAAAAAAAAAAAAAAAAAAAAAAAAAAAAAAAAAAAAAAAAAAAAAAAAAAAAAAAAAAAAAAAAAAAAAAAAAAAAAAAAAAAAAAAAAAAAAAAAAAAAAAAAAAAAAAAAAAAAAAAAAAAAAAAAAAAAAAAAAAAAAAAAAAAAAAAAAAAAAAAAAAAAAAAAAAAAAAAAAAAAAAAAAAAAAAAAAAAAAAAAAAAAAAAAAAAAAAAAAAAAAAAAAAAAAAAAAAAAAAAAAAAAAAAAAAAAAAAAAAAAAAAAAAAAAAAAAAAAAAAAAAAAAAAAAAAAAAAAAAAAAAAAAAAAAAAAAAAAAAAAAAAAAAAAAAAAAAAAAAAAAAAAAAAAAAAAAAAAAAAAAAAAAAAAAAAAAAAAAAAAAAAAAAAAAAAAAAAAAAAAAAAAAAAAAAAAAAAAAAAAAAAAAAAAAAAAAAAAAAAAAAAAAAAAAAAAAAAAAAAAAAAAAAAAAAAAAAAAAAAAAAAAAAAAAAAAAAAAAAAAAAAAAAAAAAAAAAAAAAAAAAAAAAAAAAAAAAAAAAAAAAAAAAAAAAAAAAAAAAAAAAAAAAAAAAAAAAAAAAAAAAAAAAAAAAAAAAAAAAAAAAAAAAAAAAAAAAAAAAAAAAAAAAAAAAAAAAAAAAAAAAAAAAAAAAAAAAAAAAAAAAAAAAAAAAAAAAAAAAAAAAAAAAAAAAAAAAAAAAAAAAAAAAAAAAAAAAAAAAAAAAAAAAAAAAAAAAAAAAAAAAAAAAAAAAAAAAAAAAAAAAAAAAAAAAAAAAAAAAAAAAAAAAAAAAAAAAAAAAAAAAAAAAAAAAAAAAAAAAAAAAAAAAAAAAAAAAAAAAAAAAAAAAAAAAAAAAAAAAAAAAAAAAAAAAAAAAAAAAAAAAAAAAAAAAAAAAAAAAAAAAAAAAAAAAAAAAAAAAAAAAAAAAAAAAAAAAAAAAAAAAAAAAAAAAAAAAAAAAAAAAAAAAAAAAAAAAAAAAAAAAAAAAAAAAAAAAAAAAAAAAAAAAAAAAAAAAAAAAAAAAAAAAAAAAAAAAAAAAAAAAAAAAAAAAAAAAAAAAAAAAAAAAAAAAAAAAAAAAAAAAAAAAAAAAAAAAAAAAAAAAAAAAAAAAAAAAAAAAAAAAAAAAAAAAAAAAAAAAAAAAAAAAAAAAAAAAAAAAAAAAAAAAAAAAAAAAAAAAAAAAAAAAAAAAAAAAAAAAAAAAAAAAAAAAAAAAAAAAAAAAAAAAAAAAAAAAAAAAAAAAAAAAAAAAAAAAAAAAAAAAAAAAAAAAAAAAAAAAAAAAAAAAAAAAAAAAAAAAAAAAAAAAAAAAAAAAAAAAAAAAAAAAAAAAAAAAAAAAAAAAAAAAAAAAAAAAAAAAAAAAAAAAAAAAAAAAAAAAAAAAAAAAAAAAAAAAAAAAAAAAAAAAAAAAAAAAAAAAAAAAAAAAAAAAAAAAAAAAAAAAAAAAAAAAAAAAAAAAAAAAAAAAAAAAAAAAAAAAAAAAAAAAAAAAAAAAAAAAAAAAAAAAAAAAAAAAAAAAAAAAAAAAAAAAAAAAAAAAAAAAAAAAAAAAAAAAAAAAAAAAAAAAAAAAAAAAAAAAAAAAAAAAAAAAAAAAAAAAAAAAAAAAAAAAAAAAAAAAAAAAAAAAAAAAAAAAAAAAAAAAAAAAAAAAAAAAAAAAAAAAAAAAAAAAAAAAAAAAAAAAAAAAAAAAAAAAAAAAAAAAAAAAAAAAAAAAAAAAAAAAAAAAAAAAAAAAAAAAAAAAAAAAAAAAAAAAAAAAAAAAAAAAAAAAAAAAAAAAAAAAAAAAAAAAAAAAAAAAAAAAAAAAAAAAAAAAAAAAAAAAAAAAAAAAAAAAAAAAAAAAAAAAAAAAAAAAAAAAAAAAAAAAAAAAAAAAAAAAAAAAAAAAAAAAAAAAAAAAAAAAAAAAAAAAAAAAAAAAAAAAAAAAAAAAAAAAAAAAAAAAAAAAAAAAAAAAAAAAAAAAAAAAAAAAAAAAAAAAAAAAAAAAAAAAAAAAAAAAAAAAAAAAAAAAAAAAAAAAAAAAAAAAAAAAAAAAAAAAAAAAAAAAAAAAAAAAAAAAAAAAAAAAAAAAAAAAAAAAAAAAAAAAAAAAAAAAAAAAAAAAAAAAAAAAAAAAAAAAAAAAAAAAAAAAAAAAAAAAAAAAAAAAAAAAAAAAAAAAAAAAAAAAAAAAAAAAAAAAAAAAAAAAAAAAAAAAAAAAAAAAAAAAAAAAAAAAAAAAAAAAAAAAAAAAAAAAAAAAAAAAAAAAAAAAAAAAAAAAAAAAAAAAAAAAAAAAAAAAAAAAAAAAAAAAAAAAAAAAAAAAAAAAAAAAAAAAAAAAAAAAAAAAAAAAAAAAAAAAAAAAAAAAAAAAAAAAAAAAAAAAAAAAAAAAAAAAAAAAAAAAAAAAAAAAAAAAAAAAAAAAAAAAAAAAAAAAAAAAAAAAAAAAAAAAAAAAAAAAAAAAAAAAAAAAAAAAAAAAAAAAAAAAAAAAAAAAAAAAAAAAAAAAAAAAAAAAAAAAAAAAAAAAAAAAAAAAAAAAAAAAAAAAAAAAAAAAAAAAAAAAAAAAAAAAAAAAAAAAAAAAAAAAAAAAAAAAAAAAAAAAAAAAAAAAAAAAAAAAAAAAAAAAAAAAAAAAAAAAAAAAAAAAAAAAAAAAAAAAAAAAAAAAAAAAAAAAAAAAAAAAAAAAAAAAAAAAAAAAAAAAAAAAAAAAAAAAAAAAAAAAAAAAAAAAAAAAAAAAAAAAAAAAAAAAAAAAAAAAAAAAAAAAAAAAAAAAAAAAAAAAAAAAAAAAAAAAAAAAAAAAAAAAAAAAAAAAAAAAAAAAAAAAAAAAAAAAAAAAAAAAAAAAAAAAAAAAAAAAAAAAAAAAAAAAAAAAAAAAAAAAAAAAAAAAAAAAAAAAAAAAAAAAAAAAAAAAAAAAAAAAAAAAAAAAAAAAAAAAAAAAAAAAAAAAAAAAAAAAAAAAAAAAAAAAAAAAAAAAAAAAAAAAAAAAAAAAAAAAAAAAAAAAAAAAAAAAAAAAAAAAAAAAAAAAAAAAAAAAAAAAAAAAAAAAAAAAAAAAAAAAAAAAAAAAAAAAAAAAAAAAAAAAAAAAAAAAAAAAAAAAAAAAAAAAAAAAAAAAAAAAAAAAAAAAAAAAAAAAAAAAAAAAAAAAAAAAAAAAAAAAAAAAAAAAAAAAAAAAAAAAAAAAAAAAAAAAAAAAAAAAAAAAAAAAAAAAAAAAAAAAAAAAAAAAAAAAAAAAAAAAAAAAAAAAAAAAAAAAAAAAAAAAAAAAAAAAAAAAAAAAAAAAAAAAAAAAAAAAAAAAAAAAAAAAAAAAAAAAAAAAAAAAAAAAAAAAAAAAAAAAAAAAAAAAAAAAAAAAAAAAAAAAAAAAAAAAAAAAAAAAAAAAAAAAAAAAAAAAAAAAAAAAAAAAAAAAAAAAAAAAAAAAAAAAAAAAAAAAAAAAAAAAAAAAAAAAAAAAAAAAAAAAAAAAAAAAAAAAAAAAAAAAAAAAAAAAAAAAAAAAAAAAAAAAAAAAAAAAAAAAAAAAAAAAAAAAAAAAAAAAAAAAAAAAAAAAAAAAAAAAAAAAAAAAAAAAAAAAAAAAAAAAAAAAAAAAAAAAAAAAAAAAAAAAAAAAAAAAAAAAAAAAAAAAAAAAAAAAAAAAAAAAAAAAAAAAAAAAAAAAAAAAAAAAAAAAAAAAAAAAAAAAAAAAAAAAAAAAAAAAAAAAAAAAAAAAAAAAAAAAAAAAAAAAAAAAAAAAAAAAAAAAAAAAAAAAAAAAAAAAAAAAAAAAAAAAAAAAAAAAAAAAAAAAAAAAAAAAAAAAAAAAAAAAAAAAAAAAAAAAAAAAAAAAAAAAAAAAAAAAAAAAAAAAAAAAAAAAAAAAAAAAAAAAAAAAAAAAAAAAAAAAAAAAAAAAAAAAAAAAAAAAAAAAAAAAAAAAAAAAAAAAAAAAAAAAAAAAAAAAAAAAAAAAAAAAAAAAAAAAAAAAAAAAAAAAAAAAAAAAAAAAAAAAAAAAAAAAAAAAAAAAAAAAAAAAAAAAAAAAAAAAAAAAAAAAAAAAAAAAAAAAAAAAAAAAAAAAAAAAAAAAAAAAAAAAAAAAAAAAAAAAAAAAAAAAAAAAAAAAAAAAAAAAAAAAAAAAAAAAAAAAAAAAAAAAAAAAAAAAAAAAAAAAAAAAAAAAAAAAAAAAAAAAAAAAAAAAAAAAAAAAAAAAAAAAAAAAAAAAAAAAAAAAAAAAAAAAAAAAAAAAAAAAAAAAAAAAAAAAAAAAAAAAAAAAAAAAAAAAAAAAAAAAAAAAAAAAAAAAAAAAAAAAAAAAAAAAAAAAAAAAAAAAAAAAAAAAAAAAAAAAAAAAAAAAAAAAAAAAAAAAAAAAAAAAAAAAAAAAAAAAAAAAAAAAAAAAAAAAAAAAAAAAAAAAAAAAAAAAAAAAAAAAAAAAAAAAAAAAAAAAAAAAAAAAAAAAAAAAAAAAAAAAAAAAAAAAAAAAAAAAAAAAAAAAAAAAAAAAAAAAAAAAAAAAAAAAAAAAAAAAAAAAAAAAAAAAAAAAAAAAAAAAAAAAAAAAAAAAAAAAAAAAAAAAAAAAAAAAAAAAAAAAAAAAAAAAAAAAAAAAAAAAAAAAAAAAAAAAAAAAAAAAAAAAAAAAAAAAAAAAAAAAAAAAAAAAAAAAAAAAAAAAAAAAAAAAAAAAAAAAAAAAAAAAAAAAAAAAAAAAAAAAAAAAAAAAAAAAAAAAAAAAAAAAAAAAAAAAAAAAAAAAAAAAAAAAAAAAAAAAAAAAAAAAAAAAAAAAAAAAAAAAAAAAAAAAAAAAAAAAAAAAAAAAAAAAAAAAAAAAAAAAAAAAAAAAAAAAAAAAAAAAAAAAAAAAAAAAAAAAAAAAAAAAAAAAAAAAAAAAAAAAAAAAAAAAAAAAAAAAAAAAAAAAAAAAAAAAAAAAAAAAAAAAAAAAAAAAAAAAAAAAAAAAAAAAAAAAAAAAAAAAAAAAAAAAAAAAAAAAAAAAAAAAAAAAAAAAAAAAAAAAAAAAAAAAAAAAAAAAAAAAAAAAAAAAAAAAAAAAAAAAAAAAAAAAAAAAAAAAAAAAAAAAAAAAAAAAAAAAAAAAAAAAAAAAAAAAAAAAAAAAAAAAAAAAAAAAAAAAAAAAAAAAAAAAAAAAAAAAAAAAAAAAAAAAAAAAAAAAAAAAAAAAAAAAAAAAAAAAAAAAAAAAAAAAAAAAAAAAAAAAAAAAAAAAAAAAAAAAAAAAAAAAAAAAAAAAAAAAAAAAAAAAAAAAAAAAAAAAAAAAAAAAAAAAAAAAAAAAAAAAAAAAAAAAAAAAAAAAAAAAAAAAAAAAAAAAAAAAAAAAAAAAAAAAAAAAAAAAAAAAAAAAAAAAAAAAAAAAAAAAAAAAAAAAAAAAAAAAAAAAAAAAAAAAAAAAAAAAAAAAAAAAAAAAAAAAAAAAAAAAAAAAAAAAAAAAAAAAAAAAAAAAAAAAAAAAAAAAAAAAAAAAAAAAAAAAAAAAAAAAAAAAAAAAAAAAAAAAAAAAAAAAAAAAAAAAAAAAAAAAAAAAAAAAAAAAAAAAAAAAAAAAAAAAAAAAAAAAAAAAAAAAAAAAAAAAAAAAAAAAAAAAAAAAAAAAAAAAAAAAAAAAAAAAAAAAAAAAAAAAAAAAAAAAAAAAAAAAAAAAAAAAAAAAAAAAAAAAAAAAAAAAAAAAAAAAAAAAAAAAAAAAAAAAAAAAAAAAAAAAAAAAAAAAAAAAAAAAAAAAAAAAAAAAAAAAAAAAAAAAAAAAAAAAAAAAAAAAAAAAAAAAAAAAAAAAAAAAAAAAAAAAAAAAAAAAAAAAAAAAAAAAAAAAAAAAAAAAAAAAAAAAAAAAAAAAAAAAAAAAAAAAAAAAAAAAAAAAAAAAAAAAAAAAAAAAAAAAAAAAAAAAAAAAAAAAAAAAAAAAAAAAAAAAAAAAAAAAAAAAAAAAAAAAAAAAAAAAAAAAAAAAAAAAAAAAAAAAAAAAAAAAAAAAAAAAAAAAAAAAAAAAAAAAAAAAAAAAAAAAAAAAAAAAAAAAAAAAAAAAAAAAAAAAAAAAAAAAAAAAAAAAAAAAAAAAAAAAAAAAAAAAAAAAAAAAAAAAAAAAAAAAAAAAAAAAAAAAAAAAAAAAAAAAAAAAAAAAAAAAAAAAAAAAAAAAAAAAAAAAAAAAAAAAAAAAAAAAAAAAAAAAAAAAAAAAAAAAAAAAAAAAAAAAAAAAAAAAAAAAAAAAAAAAAAAAAAAAAAAAAAAAAAAAAAAAAAAAAAAAAAAAAAAAAAAAAAAAAAAAAAAAAAAAAAAAAAAAAAAAAAAAAAAAAAAAAAAAAAAAAAAAAAAAAAAAAAAAAAAAAAAAAAAAAAAAAAAAAAAAAAAAAAAAAAAAAAAAAAAAAAAAAAAAAAAAAAAAAAAAAAAAAAAAAAAAAAAAAAAAAAAAAAAAAAAAAAAAAAAAAAAAAAAAAAAAAAAAAAAAAAAAAAAAAAAAAAAAAAAAAAAAAAAAAAAAAAAAAAAAAAAAAAAAAAAAAAAAAAAAAAAAAAAAAAAAAAAAAAAAAAAAAAAAAAAAAAAAAAAAAAAAAAAAAAAAAAAAAAAAAAAAAAAAAAAAAAAAAAAAAAAAAAAAAAAAAAAAAAAAAAAAAAAAAAAAAAAAAAAAAAAAAAAAAAAAAAAAAAAAAAAAAAAAAAAAAAAAAAAAAAAAAAAAAAAAAAAAAAAAAAAAAAAAAAAAAAAAAAAAAAAAAAAAAAAAAAAAAAAAAAAAAAAAAAAAAAAAAAAAAAAAAAAAAAAAAAAAAAAAAAAAAAAAAAAAAAAAAAAAAAAAAAAAAAAAAAAAAAAAAAAAAAAAAAAAAAAAAAAAAAAAAAAAAAAAAAAAAAAAAAAAAAAAAAAAAAAAAAAAAAAAAAAAAAAAAAAAAAAAAAAAAAAAAAAAAAAAAAAAAAAAAAAAAAAAAAAAAAAAAAAAAAAAAAAAAAAAAAAAAAAAAAAAAAAAAAAAAAAAAAAAAAAAAAAAAAAAAAAAAAAAAAAAAAAAAAAAAAAAAAAAAAAAAAAAAAAAAAAAAAAAAAAAAAAAAAAAAAAAAAAAAAAAAAAAAAAAAAAAAAAAAAAAAAAAAAAAAAAAAAAAAAAAAAAAAAAAAAAAAAAAAAAAAAAAAAAAAAAAAAAAAAAAAAAAAAAAAAAAAAAAAAAAAAAAAAAAAAAAAAAAAAAAAAAAAAAAAAAAAAAAAAAAAAAAAAAAAAAAAAAAAAAAAAAAAAAAAAAAAAAAAAAAAAAAAAAAAAAAAAAAAAAAAAAAAAAAAAAAAAAAAAAAAAAAAAAAAAAAAAAAAAAAAAAAAAAAAAAAAAAAAAAAAAAAAAAAAAAAAAAAAAAAAAAAAAAAAAAAAAAAAAAAAAAAAAAAAAAAAAAAAAAAAAAAAAAAAAAAAAAAAAAAAAAAAAAAAAAAAAAAAAAAAAAAAAAAAAAAAAAAAAAAAAAAAAAAAAAAAAAAAAAAAAAAAAAAAAAAAAAAAAAAAAAAAAAAAAAAAAAAAAAAAAAAAAAAAAAAAAAAAAAAAAAAAAAAAAAAAAAAAAAAAAAAAAAAAAAAAAAAAAAAAAAAAAAAAAAAAAAAAAAAAAAAAAAAAAAAAAAAAAAAAAAAAAAAAAAAAAAAAAAAAAAAAAAAAAAAAAAAAAAAAAAAAAAAAAAAAAAAAAAAAAAAAAAAAAAAAAAAAAAAAAAAAAAAAAAAAAAAAAAAAAAAAAAAAAAAAAAAAAAAAAAAAAAAAAAAAAAAAAAAAAAAAAAAAAAAAAAAAAAAAAAAAAAAAAAAAAAAAAAAAAAAAAAAAAAAAAAAAAAAAAAAAAAAAAAAAAAAAAAAAAAAAAAAAAAAAAAAAAAAAAAAAAAAAAAAAAAAAAAAAAAAAAAAAAAAAAAAAAAAAAAAAAAAAAAAAAAAAAAAAAAAAAAAAAAAAAAAAAAAAAAAAAAAAAAAAAAAAAAAAAAAAAAAAAAAAAAAAAAAAAAAAAAAAAAAAAAAAAAAAAAAAAAAAAAAAAAAAAAAAAAAAAAAAAAAAAAAAAAAAAAAAAAAAAAAAAAAAAAAAAAAAAAAAAAAAAAAAAAAAAAAAAAAAAAAAAAAAAAAAAAAAAAAAAAAAAAAAAAAAAAAAAAAAAAAAAAAAAAAAAAAAAAAAAAAAAAAAAAAAAAAAAAAAAAAAAAAAAAAAAAAAAAAAAAAAAAAAAAAAAAAAAAAAAAAAAAAAAAAAAAAAAAAAAAAAAAAAAAAAAAAAAAAAAAAAAAAAAAAAAAAAAAAAAAAAAAAAAAAAAAAAAAAAAAAAAAAAAAAAAAAAAAAAAAAAAAAAAAAAAAAAAAAAAAAAAAAAAAAAAAAAAAAAAAAAAAAAAAAAAAAAAAAAAAAAAAAAAAAAAAAAAAAAAAAAAAAAAAAAAAAAAAAAAAAAAAAAAAAAAAAAAAAAAAAAAAAAAAAAAAAAAAAAAAAAAAAAAAAAAAAAAAAAAAAAAAAAAAAAAAAAAAAAAAAAAAAAAAAAAAAAAAAAAAAAAAAAAAAAAAAAAAAAAAAAAAAAAAAAAAAAAAAAAAAAAAAAAAAAAAAAAAAAAAAAAAAAAAAAAAAAAAAAAAAAAAAAAAAAAAAAAAAAAAAAAAAAAAAAAAAAAAAAAAAAAAAAAAAAAAAAAAAAAAAAAAAAAAAAAAAAAAAAAAAAAAAAAAAAAAAAAAAAAAAAAAAAAAAAAAAAAAAAAAAAAAAAAAAAAAAAAAAAAAAAAAAAAAAAAAAAAAAAAAAAAAAAAAAAAAAAAAAAAAAAAAAAAAAAAAAAAAAAAAAAAAAAAAAAAAAAAAAAAAAAAAAAAAAAAAAAAAAAAAAAAAAAAAAAAAAAAAAAAAAAAAAAAAAAAAAAAAAAAAAAAAAAAAAAAAAAAAAAAAAAAAAAAAAAAAAAAAAAAAAAAAAAAAAAAAAAAAAAAAAAAAAAAAAAAAAAAAAAAAAAAAAAAAAAAAAAAAAAAAAAAAAAAAAAAAAAAAAAAAAAAAAAAAAAAAAAAAAAAAAAAAAAAAAAAAAAAAAAAAAAAAAAAAAAAAAAAAAAAAAAAAAAAAAAAAAAAAAAAAAAAAAAAAAAAAAAAAAAAAAAAAAAAAAAAAAAAAAAAAAAAAAAAAAAAAAAAAAAAAAAAAAAAAAAAAAAAAAAAAAAAAAAAAAAAAAAAAAAAAAAAAAAAAAAAAAAAAAAAAAAAAAAAAAAAAAAAAAAAAAAAAAAAAAAAAAAAAAAAAAAAAAAAAAAAAAAAAAAAAAAAAAAAAAAAAAAAAAAAAAAAAAAAAAAAAAAAAAAAAAAAAAAAAAAAAAAAAAAAAAAAAAAAAAAAAAAAAAAAAAAAAAAAAAAAAAAAAAAAAAAAAAAAAAAAAAAAAAAAAAAAAAAAAAAAAAAAAAAAAAAAAAAAAAAAAAAAAAAAAAAAAAAAAAAAAAAAAAAAAAAAAAAAAAAAAAAAAAAAAAAAAAAAAAAAAAAAAAAAAAAAAAAAAAAAAAAAAAAAAAAAAAAAAAAAAAAAAAAAAAAAAAAAAAAAAAAAAAAAAAAAAAAAAAAAAAAAAAAAAAAAAAAAAAAAAAAAAAAAAAAAAAAAAAAAAAAAAAAAAAAAAAAAAAAAAAAAAAAAAAAAAAAAAAAAAAAAAAAAAAAAAAAAAAAAAAAAAAAAAAAAAAAAAAAAAAAAAAAAAAAAAAAAAAAAAAAAAAAAAAAAAAAAAAAAAAAAAAAAAAAAAAAAAAAAAAAAAAAAAAAAAAAAAAAAAAAAAAAAAAAAAAAAAAAAAAAAAAAAAAAAAAAAAAAAAAAAAAAAAAAAAAAAAAAAAAAAAAAAAAAAAAAAAAAAAAAAAAAAAAAAAAAAAAAAAAAAAAAAAAAAAAAAAAAAAAAAAAAAAAAAAAAAAAAAAAAAAAAAAAAAAAAAAAAAAAAAAAAAAAAAAAAAAAAAAAAAAAAAAAAAAAAAAAAAAAAAAAAAAAAAAAAAAAAAAAAAAAAAAAAAAAAAAAAAAAAAAAAAAAAAAAAAAAAAAAAAAAAAAAAAAAAAAAAAAAAAAAAAAAAAAAAAAAAAAAAAAAAAAAAAAAAAAAAAAAAAAAAAAAAAAAAAAAAAAAAAAAAAAAAAAAAAAAAAAAAAAAAAAAAAAAAAAAAAAAAAAAAAAAAAAAAAAAAAAAAAAAAAAAAAAAAAAAAAAAAAAAAAAAAAAAAAAAAAAAAAAAAAAAAAAAAAAAAAAAAAAAAAAAAAAAAAAAAAAAAAAAAAAAAAAAAAAAAAAAAAAAAAAAAAAAAAAAAAAAAAAAAAAAAAAAAAAAAAAAAAAAAAAAAAAAAAAAAAAAAAAAAAAAAAAAAAAAAAAAAAAAAAAAAAAAAAAAAAAAAAAAAAAAAAAAAAAAAAAAAAAAAAAAAAAAAAAAAAAAAAAAAAAAAAAAAAAAAAAAAAAAAAAAAAAAAAAAAAAAAAAAAAAAAAAAAAAAAAAAAAAAAAAAAAAAAAAAAAAAAAAAAAAAAAAAAAAAAAAAAAAAAAAAAAAAAAAAAAAAAAAAAAAAAAAAAAAAAAAAAAAAAAAAAAAAAAAAAAAAAAAAAAAAAAAAAAAAAAAAAAAAAAAAAAAAAAAAAAAAAAAAAAAAAAAAAAAAAAAAAAAAAAAAAAAAAAAAAAAAAAAAAAAAAAAAAAAAAAAAAAAAAAAAAAAAAAAAAAAAAAAAAAAAAAAAAAAAAAAAAAAAAAAAAAAAAAAAAAAAAAAAAAAAAAAAAAAAAAAAAAAAAAAAAAAAAAAAAAAAAAAAAAAAAAAAAAAAAAAAAAAAAAAAAAAAAAAAAAAAAAAAAAAAAAAAAAAAAAAAAAAAAAAAAAAAAAAAAAAAAAAAAAAAAAAAAAAAAAAAAAAAAAAAAAAAAAAAAAAAAAAAAAAAAAAAAAAAAAAAAAAAAAAAAAAAAAAAAAAAAAAAAAAAAAAAAAAAAAAAAAAAAAAAAAAAAAAAAAAAAAAAAAAAAAAAAAAAAAAAAAAAAAAAAAAAAAAAAAAAAAAAAAAAAAAAAAAAAAAAAAAAAAAAAAAAAAAAAAAAAAAAAAAAAAAAAAAAAAAAAAAAAAAAAAAAAAAAAAAAAAAAAAAAAAAAAAAAAAAAAAAAAAAAAAAAAAAAAAAAAAAAAAAAAAAAAAAAAAAAAAAAAAAAAAAAAAAAAAAAAAAAAAAAAAAAAAAAAAAAAAAAAAAAAAAAAAAAAAAAAAAAAAAAAAAAAAAAAPZYQNlQzK8ZksfUGstpzPSq+nCiRG8Kf6ptWv6LUIlRTzkKoqui9f3EGQ34nNYh9HJcIcCOYECKSDhfRp6mrEU1XxIAADuNanVtYgAAAEdqdW1kYzJtYQARABCAAACqADibcQN1cm46YzJwYTphNTgyZWE0Mi1hODMyLTRkNDEtYjVlNy03ODk5NjIzYWY4NmQAAAAJgGp1bWIAAAApanVtZGMyYXMAEQAQgAAAqgA4m3EDYzJwYS5hc3NlcnRpb25zAAAABjpqdW1iAAAARGp1bWRjYm9yABEAEIAAAKoAOJtxE2MycGEuaW5ncmVkaWVudC52MwAAAAAYYzJzaKvR1pgXsfXAJd9mrDhokyMAAAXuY2JvcqdscmVsYXRpb25zaGlwaHBhcmVudE9maGRjOnRpdGxlZnNvdXJjZWlkYzpmb3JtYXRtaW1hZ2Uvc3ZnK3htbHF2YWxpZGF0aW9uUmVzdWx0c6FuYWN0aXZlTWFuaWZlc3SjZ3N1Y2Nlc3OFo2Rjb2RleB1jbGFpbVNpZ25hdHVyZS5pbnNpZGVWYWxpZGl0eWN1cmx4TXNlbGYjanVtYmY9L2MycGEvdXJuOmMycGE6NTM1YmJlNDUtMmYwNC00ZTFjLWE4ZmQtOWRkOTVhNGFlZjkxL2MycGEuc2lnbmF0dXJla2V4cGxhbmF0aW9udWNsYWltIHNpZ25hdHVyZSB2YWxpZKNkY29kZXgYY2xhaW1TaWduYXR1cmUudmFsaWRhdGVkY3VybHhNc2VsZiNqdW1iZj0vYzJwYS91cm46YzJwYTo1MzViYmU0NS0yZjA0LTRlMWMtYThmZC05ZGQ5NWE0YWVmOTEvYzJwYS5zaWduYXR1cmVrZXhwbGFuYXRpb251Y2xhaW0gc2lnbmF0dXJlIHZhbGlko2Rjb2RleBlhc3NlcnRpb24uaGFzaGVkVVJJLm1hdGNoY3VybHhec2VsZiNqdW1iZj0vYzJwYS91cm46YzJwYTo1MzViYmU0NS0yZjA0LTRlMWMtYThmZC05ZGQ5NWE0YWVmOTEvYzJwYS5hc3NlcnRpb25zL2MycGEuYWN0aW9ucy52MmtleHBsYW5hdGlvbng+aGFzaGVkIHVyaSBtYXRjaGVkOiBzZWxmI2p1bWJmPWMycGEuYXNzZXJ0aW9ucy9jMnBhLmFjdGlvbnMudjKjZGNvZGV4GWFzc2VydGlvbi5oYXNoZWRVUkkubWF0Y2hjdXJseF1zZWxmI2p1bWJmPS9jMnBhL3VybjpjMnBhOjUzNWJiZTQ1LTJmMDQtNGUxYy1hOGZkLTlkZDk1YTRhZWY5MS9jMnBhLmFzc2VydGlvbnMvYzJwYS5oYXNoLmRhdGFrZXhwbGFuYXRpb254PWhhc2hlZCB1cmkgbWF0Y2hlZDogc2VsZiNqdW1iZj1jMnBhLmFzc2VydGlvbnMvYzJwYS5oYXNoLmRhdGGjZGNvZGV4GGFzc2VydGlvbi5kYXRhSGFzaC5tYXRjaGN1cmx4XXNlbGYjanVtYmY9L2MycGEvdXJuOmMycGE6NTM1YmJlNDUtMmYwNC00ZTFjLWE4ZmQtOWRkOTVhNGFlZjkxL2MycGEuYXNzZXJ0aW9ucy9jMnBhLmhhc2guZGF0YWtleHBsYW5hdGlvbm9kYXRhIGhhc2ggdmFsaWRtaW5mb3JtYXRpb25hbIBnZmFpbHVyZYGjZGNvZGV4G3NpZ25pbmdDcmVkZW50aWFsLnVudHJ1c3RlZGN1cmx4TXNlbGYjanVtYmY9L2MycGEvdXJuOmMycGE6NTM1YmJlNDUtMmYwNC00ZTFjLWE4ZmQtOWRkOTVhNGFlZjkxL2MycGEuc2lnbmF0dXJla2V4cGxhbmF0aW9ueB1zaWduaW5nIGNlcnRpZmljYXRlIHVudHJ1c3RlZGppbnN0YW5jZUlEeCx4bXA6aWlkOjA5YjA1MGQxLTJlM2UtNDdlZi1hOTJiLTdjN2Y0OWRmNTViY25hY3RpdmVNYW5pZmVzdKNjdXJseD5zZWxmI2p1bWJmPS9jMnBhL3VybjpjMnBhOjUzNWJiZTQ1LTJmMDQtNGUxYy1hOGZkLTlkZDk1YTRhZWY5MWNhbGdmc2hhMjU2ZGhhc2hYIH+L0DSyS0aV4ebW0+75rQRHtaxVv8nVDKHTtvFhoa5nbmNsYWltU2lnbmF0dXJlo2N1cmx4TXNlbGYjanVtYmY9L2MycGEvdXJuOmMycGE6NTM1YmJlNDUtMmYwNC00ZTFjLWE4ZmQtOWRkOTVhNGFlZjkxL2MycGEuc2lnbmF0dXJlY2FsZ2ZzaGEyNTZkaGFzaFggWTb6/FTlc2egbBgRd1K65J431i6001HOBdg099eOaLIAAAHuanVtYgAAAEFqdW1kY2JvcgARABCAAACqADibcRNjMnBhLmFjdGlvbnMudjIAAAAAGGMyc2g5k80xCIgUM9Ntbfo1uMRAAAABpWNib3KhZ2FjdGlvbnOComZhY3Rpb25rYzJwYS5vcGVuZWRqcGFyYW1ldGVyc6FraW5ncmVkaWVudHOBomN1cmx4LXNlbGYjanVtYmY9YzJwYS5hc3NlcnRpb25zL2MycGEuaW5ncmVkaWVudC52M2RoYXNoWCBpPpXo/4w1HJ89cGzYPMNwltCdWI1sx/bjtgkDIB+QC6RmYWN0aW9ubGMycGEuY3JlYXRlZGpwYXJhbWV0ZXJzoWtpbmdyZWRpZW50c4GiY3VybHgtc2VsZiNqdW1iZj1jMnBhLmFzc2VydGlvbnMvYzJwYS5pbmdyZWRpZW50LnYzZGhhc2hYIGk+lej/jDUcnz1wbNg8w3CW0J1YjWzH9uO2CQMgH5ALcWRpZ2l0YWxTb3VyY2VUeXBleEFodHRwOi8vY3YuaXB0Yy5vcmcvbmV3c2NvZGVzL2RpZ2l0YWxzb3VyY2V0eXBlL2NvbXBvc2l0ZVN5bnRoZXRpY2tkZXNjcmlwdGlvbngfQ29tcG9zZWQgaW4gdGhlIFJlY3JhZnQgZWRpdG9yLgAAASdqdW1iAAAAQGp1bWRjYm9yABEAEIAAAKoAOJtxE2MycGEuaGFzaC5kYXRhAAAAABhjMnNo22qdOSR4t6AEVMwpUxcVCgAAAN9jYm9ypWpleGNsdXNpb25zgaJlc3RhcnQYrWZsZW5ndGgZlLJkbmFtZW5qdW1iZiBtYW5pZmVzdGNhbGdmc2hhMjU2ZGhhc2hYIAI0D8ZNohZkQlWjxs6bnSsyoxkfn37Ph+a4CFjbNPEFY3BhZFhrAAAAAAAAAAAAAAAAAAAAAAAAAAAAAAAAAAAAAAAAAAAAAAAAAAAAAAAAAAAAAAAAAAAAAAAAAAAAAAAAAAAAAAAAAAAAAAAAAAAAAAAAAAAAAAAAAAAAAAAAAAAAAAAAAAAAAAAAAAAAAAAAAAKWanVtYgAAACdqdW1kYzJjbAARABCAAACqADibcQNjMnBhLmNsYWltLnYyAAAAAmdjYm9yp2ppbnN0YW5jZUlEeCx4bXA6aWlkOjAwMGYxNjM0LWFhNjgtNGI4ZC04NGM3LTBiY2RiMWM1MWYwYnRjbGFpbV9nZW5lcmF0b3JfaW5mb6NkbmFtZWpyZWNyYWZ0LmFpZ3ZlcnNpb254KDgxY2U4MmUyYzVjM2NiZmJlOGM2ZmJlMTc5ZDVmOGQ5MWM0MDljZTF3b3JnLmNvbnRlbnRhdXRoLmMycGFfcnNmMC45MC43aXNpZ25hdHVyZXhNc2VsZiNqdW1iZj0vYzJwYS91cm46YzJwYTphNTgyZWE0Mi1hODMyLTRkNDEtYjVlNy03ODk5NjIzYWY4NmQvYzJwYS5zaWduYXR1cmVyY3JlYXRlZF9hc3NlcnRpb25zgqJjdXJseCpzZWxmI2p1bWJmPWMycGEuYXNzZXJ0aW9ucy9jMnBhLmFjdGlvbnMudjJkaGFzaFgg22DMi8I1jdlUlpGoXbq5NmFJKdmtOBr0gp21k3tk64CiY3VybHgpc2VsZiNqdW1iZj1jMnBhLmFzc2VydGlvbnMvYzJwYS5oYXNoLmRhdGFkaGFzaFggB+pc+eowp9SYEMAO6diZVxR7iaNERwoOVg5/Q0u1m/NzZ2F0aGVyZWRfYXNzZXJ0aW9uc4GiY3VybHgtc2VsZiNqdW1iZj1jMnBhLmFzc2VydGlvbnMvYzJwYS5pbmdyZWRpZW50LnYzZGhhc2hYIGk+lej/jDUcnz1wbNg8w3CW0J1YjWzH9uO2CQMgH5ALaGRjOnRpdGxlbVJlY3JhZnQgSW1hZ2VjYWxnZnNoYTI1NgAALyhqdW1iAAAAKGp1bWRjMmNzABEAEIAAAKoAOJtxA2MycGEuc2lnbmF0dXJlAAAALvhjYm9y0oRZA+yiASYYIYJZAfQwggHwMIIBlaADAgECAhQlwUfVVrilkkOHN6nAS3M882PZgzAKBggqhkjOPQQDAjBBMQswCQYDVQQGEwJVUzETMBEGA1UECgwKUmVjcmFmdCBBSTEdMBsGA1UEAwwUUmVjcmFmdCBDMlBBIFJvb3QgQ0EwHhcNMjYwOTEwMTY1MjM0WhcNMjcwOTEwMTY1MjM0WjA3MQswCQYDVQQGEwJVUzETMBEGA1UECgwKUmVjcmFmdCBBSTETMBEGA1UEAwwKcmVjcmFmdC5haTBZMBMGByqGSM49AgEGCCqGSM49AwEHA0IABKg492obdiY1F0Z352W1+HWKRwT+eQubxgrXQfb21oVryJ6C6wdgHXrvzKXkGzXyEtpX8WF342LfbECWcd1uKYWjdTBzMAwGA1UdEwEB/wQCMAAwDgYDVR0PAQH/BAQDAgbAMBMGA1UdJQQMMAoGCCsGAQUFBwMEMB0GA1UdDgQWBBSBXCG9sRc9JKAK5s59QfEK26hUBDAfBgNVHSMEGDAWgBRz3IX6x9aVEd5a/Yi5xp5zmPB0CDAKBggqhkjOPQQDAgNJADBGAiEAmW0OlA369tchMvFv7wE3BIvr/laS07hJ6+RvRVeO19YCIQCqGjPvP+w3fY3F2edmxBVN67c/sKAa0l1cXHbzd+nTxFkB7DCCAegwggGNoAMCAQICFADJ2j80o5BZa7/hXkWS1VAdfuNMMAoGCCqGSM49BAMCMEExCzAJBgNVBAYTAlVTMRMwEQYDVQQKDApSZWNyYWZ0IEFJMR0wGwYDVQQDDBRSZWNyYWZ0IEMyUEEgUm9vdCBDQTAeFw0yNjA5MTAxNjUyMzRaFw0zNjA5MDcxNjUyMzRaMEExCzAJBgNVBAYTAlVTMRMwEQYDVQQKDApSZWNyYWZ0IEFJMR0wGwYDVQQDDBRSZWNyYWZ0IEMyUEEgUm9vdCBDQTBZMBMGByqGSM49AgEGCCqGSM49AwEHA0IABBtD54Xp+SmceFPCszFIEuH8mFE5aTOwLwvyM3WvVGV/ygQK/MQWTda6OWg+02zc8sAOuKpHmsa137yCIW6JMuejYzBhMB8GA1UdIwQYMBaAFHPchfrH1pUR3lr9iLnGnnOY8HQIMA8GA1UdEwEB/wQFMAMBAf8wDgYDVR0PAQH/BAQDAgGGMB0GA1UdDgQWBBRz3IX6x9aVEd5a/Yi5xp5zmPB0CDAKBggqhkjOPQQDAgNJADBGAiEA0PZn7GvIFGcxvGTx4DMxwCrxvOXSt8D1jbPurlCgRR4CIQDplsjd7juHlyVFloBFI46i0pewr9hAxYLe+P3V3duaU6FjcGFkWSq0AAAAAAAAAAAAAAAAAAAAAAAAAAAAAAAAAAAAAAAAAAAAAAAAAAAAAAAAAAAAAAAAAAAAAAAAAAAAAAAAAAAAAAAAAAAAAAAAAAAAAAAAAAAAAAAAAAAAAAAAAAAAAAAAAAAAAAAAAAAAAAAAAAAAAAAAAAAAAAAAAAAAAAAAAAAAAAAAAAAAAAAAAAAAAAAAAAAAAAAAAAAAAAAAAAAAAAAAAAAAAAAAAAAAAAAAAAAAAAAAAAAAAAAAAAAAAAAAAAAAAAAAAAAAAAAAAAAAAAAAAAAAAAAAAAAAAAAAAAAAAAAAAAAAAAAAAAAAAAAAAAAAAAAAAAAAAAAAAAAAAAAAAAAAAAAAAAAAAAAAAAAAAAAAAAAAAAAAAAAAAAAAAAAAAAAAAAAAAAAAAAAAAAAAAAAAAAAAAAAAAAAAAAAAAAAAAAAAAAAAAAAAAAAAAAAAAAAAAAAAAAAAAAAAAAAAAAAAAAAAAAAAAAAAAAAAAAAAAAAAAAAAAAAAAAAAAAAAAAAAAAAAAAAAAAAAAAAAAAAAAAAAAAAAAAAAAAAAAAAAAAAAAAAAAAAAAAAAAAAAAAAAAAAAAAAAAAAAAAAAAAAAAAAAAAAAAAAAAAAAAAAAAAAAAAAAAAAAAAAAAAAAAAAAAAAAAAAAAAAAAAAAAAAAAAAAAAAAAAAAAAAAAAAAAAAAAAAAAAAAAAAAAAAAAAAAAAAAAAAAAAAAAAAAAAAAAAAAAAAAAAAAAAAAAAAAAAAAAAAAAAAAAAAAAAAAAAAAAAAAAAAAAAAAAAAAAAAAAAAAAAAAAAAAAAAAAAAAAAAAAAAAAAAAAAAAAAAAAAAAAAAAAAAAAAAAAAAAAAAAAAAAAAAAAAAAAAAAAAAAAAAAAAAAAAAAAAAAAAAAAAAAAAAAAAAAAAAAAAAAAAAAAAAAAAAAAAAAAAAAAAAAAAAAAAAAAAAAAAAAAAAAAAAAAAAAAAAAAAAAAAAAAAAAAAAAAAAAAAAAAAAAAAAAAAAAAAAAAAAAAAAAAAAAAAAAAAAAAAAAAAAAAAAAAAAAAAAAAAAAAAAAAAAAAAAAAAAAAAAAAAAAAAAAAAAAAAAAAAAAAAAAAAAAAAAAAAAAAAAAAAAAAAAAAAAAAAAAAAAAAAAAAAAAAAAAAAAAAAAAAAAAAAAAAAAAAAAAAAAAAAAAAAAAAAAAAAAAAAAAAAAAAAAAAAAAAAAAAAAAAAAAAAAAAAAAAAAAAAAAAAAAAAAAAAAAAAAAAAAAAAAAAAAAAAAAAAAAAAAAAAAAAAAAAAAAAAAAAAAAAAAAAAAAAAAAAAAAAAAAAAAAAAAAAAAAAAAAAAAAAAAAAAAAAAAAAAAAAAAAAAAAAAAAAAAAAAAAAAAAAAAAAAAAAAAAAAAAAAAAAAAAAAAAAAAAAAAAAAAAAAAAAAAAAAAAAAAAAAAAAAAAAAAAAAAAAAAAAAAAAAAAAAAAAAAAAAAAAAAAAAAAAAAAAAAAAAAAAAAAAAAAAAAAAAAAAAAAAAAAAAAAAAAAAAAAAAAAAAAAAAAAAAAAAAAAAAAAAAAAAAAAAAAAAAAAAAAAAAAAAAAAAAAAAAAAAAAAAAAAAAAAAAAAAAAAAAAAAAAAAAAAAAAAAAAAAAAAAAAAAAAAAAAAAAAAAAAAAAAAAAAAAAAAAAAAAAAAAAAAAAAAAAAAAAAAAAAAAAAAAAAAAAAAAAAAAAAAAAAAAAAAAAAAAAAAAAAAAAAAAAAAAAAAAAAAAAAAAAAAAAAAAAAAAAAAAAAAAAAAAAAAAAAAAAAAAAAAAAAAAAAAAAAAAAAAAAAAAAAAAAAAAAAAAAAAAAAAAAAAAAAAAAAAAAAAAAAAAAAAAAAAAAAAAAAAAAAAAAAAAAAAAAAAAAAAAAAAAAAAAAAAAAAAAAAAAAAAAAAAAAAAAAAAAAAAAAAAAAAAAAAAAAAAAAAAAAAAAAAAAAAAAAAAAAAAAAAAAAAAAAAAAAAAAAAAAAAAAAAAAAAAAAAAAAAAAAAAAAAAAAAAAAAAAAAAAAAAAAAAAAAAAAAAAAAAAAAAAAAAAAAAAAAAAAAAAAAAAAAAAAAAAAAAAAAAAAAAAAAAAAAAAAAAAAAAAAAAAAAAAAAAAAAAAAAAAAAAAAAAAAAAAAAAAAAAAAAAAAAAAAAAAAAAAAAAAAAAAAAAAAAAAAAAAAAAAAAAAAAAAAAAAAAAAAAAAAAAAAAAAAAAAAAAAAAAAAAAAAAAAAAAAAAAAAAAAAAAAAAAAAAAAAAAAAAAAAAAAAAAAAAAAAAAAAAAAAAAAAAAAAAAAAAAAAAAAAAAAAAAAAAAAAAAAAAAAAAAAAAAAAAAAAAAAAAAAAAAAAAAAAAAAAAAAAAAAAAAAAAAAAAAAAAAAAAAAAAAAAAAAAAAAAAAAAAAAAAAAAAAAAAAAAAAAAAAAAAAAAAAAAAAAAAAAAAAAAAAAAAAAAAAAAAAAAAAAAAAAAAAAAAAAAAAAAAAAAAAAAAAAAAAAAAAAAAAAAAAAAAAAAAAAAAAAAAAAAAAAAAAAAAAAAAAAAAAAAAAAAAAAAAAAAAAAAAAAAAAAAAAAAAAAAAAAAAAAAAAAAAAAAAAAAAAAAAAAAAAAAAAAAAAAAAAAAAAAAAAAAAAAAAAAAAAAAAAAAAAAAAAAAAAAAAAAAAAAAAAAAAAAAAAAAAAAAAAAAAAAAAAAAAAAAAAAAAAAAAAAAAAAAAAAAAAAAAAAAAAAAAAAAAAAAAAAAAAAAAAAAAAAAAAAAAAAAAAAAAAAAAAAAAAAAAAAAAAAAAAAAAAAAAAAAAAAAAAAAAAAAAAAAAAAAAAAAAAAAAAAAAAAAAAAAAAAAAAAAAAAAAAAAAAAAAAAAAAAAAAAAAAAAAAAAAAAAAAAAAAAAAAAAAAAAAAAAAAAAAAAAAAAAAAAAAAAAAAAAAAAAAAAAAAAAAAAAAAAAAAAAAAAAAAAAAAAAAAAAAAAAAAAAAAAAAAAAAAAAAAAAAAAAAAAAAAAAAAAAAAAAAAAAAAAAAAAAAAAAAAAAAAAAAAAAAAAAAAAAAAAAAAAAAAAAAAAAAAAAAAAAAAAAAAAAAAAAAAAAAAAAAAAAAAAAAAAAAAAAAAAAAAAAAAAAAAAAAAAAAAAAAAAAAAAAAAAAAAAAAAAAAAAAAAAAAAAAAAAAAAAAAAAAAAAAAAAAAAAAAAAAAAAAAAAAAAAAAAAAAAAAAAAAAAAAAAAAAAAAAAAAAAAAAAAAAAAAAAAAAAAAAAAAAAAAAAAAAAAAAAAAAAAAAAAAAAAAAAAAAAAAAAAAAAAAAAAAAAAAAAAAAAAAAAAAAAAAAAAAAAAAAAAAAAAAAAAAAAAAAAAAAAAAAAAAAAAAAAAAAAAAAAAAAAAAAAAAAAAAAAAAAAAAAAAAAAAAAAAAAAAAAAAAAAAAAAAAAAAAAAAAAAAAAAAAAAAAAAAAAAAAAAAAAAAAAAAAAAAAAAAAAAAAAAAAAAAAAAAAAAAAAAAAAAAAAAAAAAAAAAAAAAAAAAAAAAAAAAAAAAAAAAAAAAAAAAAAAAAAAAAAAAAAAAAAAAAAAAAAAAAAAAAAAAAAAAAAAAAAAAAAAAAAAAAAAAAAAAAAAAAAAAAAAAAAAAAAAAAAAAAAAAAAAAAAAAAAAAAAAAAAAAAAAAAAAAAAAAAAAAAAAAAAAAAAAAAAAAAAAAAAAAAAAAAAAAAAAAAAAAAAAAAAAAAAAAAAAAAAAAAAAAAAAAAAAAAAAAAAAAAAAAAAAAAAAAAAAAAAAAAAAAAAAAAAAAAAAAAAAAAAAAAAAAAAAAAAAAAAAAAAAAAAAAAAAAAAAAAAAAAAAAAAAAAAAAAAAAAAAAAAAAAAAAAAAAAAAAAAAAAAAAAAAAAAAAAAAAAAAAAAAAAAAAAAAAAAAAAAAAAAAAAAAAAAAAAAAAAAAAAAAAAAAAAAAAAAAAAAAAAAAAAAAAAAAAAAAAAAAAAAAAAAAAAAAAAAAAAAAAAAAAAAAAAAAAAAAAAAAAAAAAAAAAAAAAAAAAAAAAAAAAAAAAAAAAAAAAAAAAAAAAAAAAAAAAAAAAAAAAAAAAAAAAAAAAAAAAAAAAAAAAAAAAAAAAAAAAAAAAAAAAAAAAAAAAAAAAAAAAAAAAAAAAAAAAAAAAAAAAAAAAAAAAAAAAAAAAAAAAAAAAAAAAAAAAAAAAAAAAAAAAAAAAAAAAAAAAAAAAAAAAAAAAAAAAAAAAAAAAAAAAAAAAAAAAAAAAAAAAAAAAAAAAAAAAAAAAAAAAAAAAAAAAAAAAAAAAAAAAAAAAAAAAAAAAAAAAAAAAAAAAAAAAAAAAAAAAAAAAAAAAAAAAAAAAAAAAAAAAAAAAAAAAAAAAAAAAAAAAAAAAAAAAAAAAAAAAAAAAAAAAAAAAAAAAAAAAAAAAAAAAAAAAAAAAAAAAAAAAAAAAAAAAAAAAAAAAAAAAAAAAAAAAAAAAAAAAAAAAAAAAAAAAAAAAAAAAAAAAAAAAAAAAAAAAAAAAAAAAAAAAAAAAAAAAAAAAAAAAAAAAAAAAAAAAAAAAAAAAAAAAAAAAAAAAAAAAAAAAAAAAAAAAAAAAAAAAAAAAAAAAAAAAAAAAAAAAAAAAAAAAAAAAAAAAAAAAAAAAAAAAAAAAAAAAAAAAAAAAAAAAAAAAAAAAAAAAAAAAAAAAAAAAAAAAAAAAAAAAAAAAAAAAAAAAAAAAAAAAAAAAAAAAAAAAAAAAAAAAAAAAAAAAAAAAAAAAAAAAAAAAAAAAAAAAAAAAAAAAAAAAAAAAAAAAAAAAAAAAAAAAAAAAAAAAAAAAAAAAAAAAAAAAAAAAAAAAAAAAAAAAAAAAAAAAAAAAAAAAAAAAAAAAAAAAAAAAAAAAAAAAAAAAAAAAAAAAAAAAAAAAAAAAAAAAAAAAAAAAAAAAAAAAAAAAAAAAAAAAAAAAAAAAAAAAAAAAAAAAAAAAAAAAAAAAAAAAAAAAAAAAAAAAAAAAAAAAAAAAAAAAAAAAAAAAAAAAAAAAAAAAAAAAAAAAAAAAAAAAAAAAAAAAAAAAAAAAAAAAAAAAAAAAAAAAAAAAAAAAAAAAAAAAAAAAAAAAAAAAAAAAAAAAAAAAAAAAAAAAAAAAAAAAAAAAAAAAAAAAAAAAAAAAAAAAAAAAAAAAAAAAAAAAAAAAAAAAAAAAAAAAAAAAAAAAAAAAAAAAAAAAAAAAAAAAAAAAAAAAAAAAAAAAAAAAAAAAAAAAAAAAAAAAAAAAAAAAAAAAAAAAAAAAAAAAAAAAAAAAAAAAAAAAAAAAAAAAAAAAAAAAAAAAAAAAAAAAAAAAAAAAAAAAAAAAAAAAAAAAAAAAAAAAAAAAAAAAAAAAAAAAAAAAAAAAAAAAAAAAAAAAAAAAAAAAAAAAAAAAAAAAAAAAAAAAAAAAAAAAAAAAAAAAAAAAAAAAAAAAAAAAAAAAAAAAAAAAAAAAAAAAAAAAAAAAAAAAAAAAAAAAAAAAAAAAAAAAAAAAAAAAAAAAAAAAAAAAAAAAAAAAAAAAAAAAAAAAAAAAAAAAAAAAAAAAAAAAAAAAAAAAAAAAAAAAAAAAAAAAAAAAAAAAAAAAAAAAAAAAAAAAAAAAAAAAAAAAAAAAAAAAAAAAAAAAAAAAAAAAAAAAAAAAAAAAAAAAAAAAAAAAAAAAAAAAAAAAAAAAAAAAAAAAAAAAAAAAAAAAAAAAAAAAAAAAAAAAAAAAAAAAAAAAAAAAAAAAAAAAAAAAAAAAAAAAAAAAAAAAAAAAAAAAAAAAAAAAAAAAAAAAAAAAAAAAAAAAAAAAAAAAAAAAAAAAAAAAAAAAAAAAAAAAAAAAAAAAAAAAAAAAAAAAAAAAAAAAAAAAAAAAAAAAAAAAAAAAAAAAAAAAAAAAAAAAAAAAAAAAAAAAAAAAAAAAAAAAAAAAAAAAAAAAAAAAAAAAAAAAAAAAAAAAAAAAAAAAAAAAAAAAAAAAAAAAAAAAAAAAAAAAAAAAAAAAAAAAAAAAAAAAAAAAAAAAAAAAAAAAAAAAAAAAAAAAAAAAAAAAAAAAAAAAAAAAAAAAAAAAAAAAAAAAAAAAAAAAAAAAAAAAAAAAAAAAAAAAAAAAAAAAAAAAAAAAAAAAAAAAAAAAAAAAAAAAAAAAAAAAAAAAAAAAAAAAAAAAAAAAAAAAAAAAAAAAAAAAAAAAAAAAAAAAAAAAAAAAAAAAAAAAAAAAAAAAAAAAAAAAAAAAAAAAAAAAAAAAAAAAAAAAAAAAAAAAAAAAAAAAAAAAAAAAAAAAAAAAAAAAAAAAAAAAAAAAAAAAAAAAAAAAAAAAAAAAAAAAAAAAAAAAAAAAAAAAAAAAAAAAAAAAAAAAAAAAAAAAAAAAAAAAAAAAAAAAAAAAAAAAAAAAAAAAAAAAAAAAAAAAAAAAAAAAAAAAAAAAAAAAAAAAAAAAAAAAAAAAAAAAAAAAAAAAAAAAAAAAAAAAAAAAAAAAAAAAAAAAAAAAAAAAAAAAAAAAAAAAAAAAAAAAAAAAAAAAAAAAAAAAAAAAAAAAAAAAAAAAAAAAAAAAAAAAAAAAAAAAAAAAAAAAAAAAAAAAAAAAAAAAAAAAAAAAAAAAAAAAAAAAAAAAAAAAAAAAAAAAAAAAAAAAAAAAAAAAAAAAAAAAAAAAAAAAAAAAAAAAAAAAAAAAAAAAAAAAAAAAAAAAAAAAAAAAAAAAAAAAAAAAAAAAAAAAAAAAAAAAAAAAAAAAAAAAAAAAAAAAAAAAAAAAAAAAAAAAAAAAAAAAAAAAAAAAAAAAAAAAAAAAAAAAAAAAAAAAAAAAAAAAAAAAAAAAAAAAAAAAAAAAAAAAAAAAAAAAAAAAAAAAAAAAAAAAAAAAAAAAAAAAAAAAAAAAAAAAAAAAAAAAAAAAAAAAAAAAAAAAAAAAAAAAAAAAAAAAAAAAAAAAAAAAAAAAAAAAAAAAAAAAAAAAAAAAAAAAAAAAAAAAAAAAAAAAAAAAAAAAAAAAAAAAAAAAAAAAAAAAAAAAAAAAAAAAAAAAAAAAAAAAAAAAAAAAAAAAAAAAAAAAAAAAAAAAAAAAAAAAAAAAAAAAAAAAAAAAAAAAAAAAAAAAAAAAAAAAAAAAAAAAAAAAAAAAAAAAAAAAAAAAAAAAAAAAAAAAAAAAAAAAAAAAAAAAAAAAAAAAAAAAAAAAAAAAAAAAAAAAAAAAAAAAAAAAAAAAAAAAAAAAAAAAAAAAAAAAAAAAAAAAAAAAAAAAAAAAAAAAAAAAAAAAAAAAAAAAAAAAAAAAAAAAAAAAAAAAAAAAAAAAAAAAAAAAAAAAAAAAAAAAAAAAAAAAAAAAAAAAAAAAAAAAAAAAAAAAAAAAAAAAAAAAAAAAAAAAAAAAAAAAAAAAAAAAAAAAAAAAAAAAAAAAAAAAAAAAAAAAAAAAAAAAAAAAAAAAAAAAAAAAAAAAAAAAAAAAAAAAAAAAAAAAAAAAAAAAAAAAAAAAAAAAAAAAAAAAAAAAAAAAAAAAAAAAAAAAAAAAAAAAAAAAAAAAAAAAAAAAAAAAAAAAAAAAAAAAAAAAAAAAAAAAAAAAAAAAAAAAAAAAAAAAAAAAAAAAAAAAAAAAAAAAAAAAAAAAAAAAAAAAAAAAAAAAAAAAAAAAAAAAAAAAAAAAAAAAAAAAAAAAAAAAAAAAAAAAAAAAAAAAAAAAAAAAAAAAAAAAAAAAAAAAAAAAAAAAAAAAAAAAAAAAAAAAAAAAAAAAAAAAAAAAAAAAAAAAAAAAAAAAAAAAAAAAAAAAAAAAAAAAAAAAAAAAAAAAAAAAAAAAAAAAAAAAAAAAAAAAAAAAAAAAAAAAAAAAAAAAAAAAAAAAAAAAAAAAAAAAAAAAAAAAAAAAAAAAAAAAAAAAAAAAAAAAAAAAAAAAAAAAAAAAAAAAAAAAAAAAAAAAAAAAAAAAAAAAAAAAAAAAAAAAAAAAAAAAAAAAAAAAAAAAAAAAAAAAAAAAAAAAAAAAAAAAAAAAAAAAAAAAAAAAAAAAAAAAAAAAAAAAAAAAAAAAAAAAAAAAAAAAAAAAAAAAAAAAAAAAAAAAAAAAAAAAAAAAAAAAAAAAAAAAAAAAAAAAAAAAAAAAAAAAAAAAAAAAAAAAAAAAAAAAAAAAAAAAAAAAAAAAAAAAAAAAAAAAAAAAAAAAAAAAAAAAAAAAAAAAAAAAAAAAAAAAAAAAAAAAAAAAAAAAAAAAAAAAAAAAAAAAAAAAAAAAAAAAAAAAAAAAAAAAAAAAAAAAAAAAAAAAAAAAAAAAAAAAAAAAAAAAAAAAAAAAAAAAAAAAAAAAAAAAAAAAAAAAAAAAAAAAAAAAAAAAAAAAAAAAAAAAAAAAAAAAAAAAAAAAAAAAAAAAAAAAAAAAAAAAAAAAAAAAAAAAAAAAAAAAAAAAAAAAAAAAAAAAAAAAAAAAAAAAAAAAAAAAAAAAAAAAAAAAAAAAAAAAAAAAAAAAAAAAAAAAAAAAAAAAAAAAAAAAAAAAAAAAAAAAAAAAAAAAAAAAAAAAAAAAAAAAAAAAAAAAAAAAAAAAAAAAAAAAAAAAAAAAAAAAAAAAAAAAAAAAAAAAAAAAAAAAAAAAAAAAAAAAAAAAAAAAAAAAAAAAAAAAAAAAAAAAAAAAAAAAAAAAAAAAAAAAAAAAAAAAAAAAAAAAAAAAAAAAAAAAAAAAAAAAAAAAAAAAAAAAAAAAAAAAAAAAAAAAAAAAAAAAAAAAAAAAAAAAAAAAAAAAAAAAAAAAAAAAAAAAAAAAAAAAAAAAAAAAAAAAAAAAAAAAAAAAAAAAAAAAAAAAAAAAAAAAAAAAAAAAAAAAAAAAAAAAAAAAAAAAAAAAAAAAAAAAAAAAAAAAAAAAAAAAAAAAAAAAAAAAAAAAAAAAAAAAAAAAAAAAAAAAAAAAAAAAAAAAAAAAAAAAAAAAAAAAAAAAAAAAAAAAAAAAAAAAAAAAAAAAAAAAAAAAAAAAAAAAAAAAAAAAAAAAAAAAAAAAAAAAAAAAAAAAAAAAAAAAAAAAAAAAAAAAAAAAAAAAAAAAAAAAAAAAAAAAAAAAAAAAAAAAAAAAAAAAAAAAAAAAAAAAAAAAAAAAAAAAAAAAAAAAAAAAAAAAAAAAAAAAAAAAAAAAAAAAAAAAAAAAAAAAAAAAAAAAAAAAAAAAAAAAAAAAAAAAAAAAAAAAAAAAAAAAAAAAAAAAAAAAAAAAAAAAAAAAAAAAAAAAAAAAAAAAAAAAAAAAAAAAAAAAAAAAAAAAAAAAAAAAAAAAAAAAAAAAAAAAAAAAAAAAAAAAAAAAAAAAAAAAAAAAAAAAAAAAAAAAAAAAAAAAAAAAAAAAAAAAAAAAAAAAAAAAAAAAAAAAAAAAAAAAAAAAAAAAAAAAAAAAAAAAAAAAAAAAAAAAAAAAAAAAAAAAAAAAAAAAAAAAAAAAAAAAAAAAAAAAAAAAAAAAAAAAAAAAAAAAAAAAAAAAAAAAAAAAAAAAAAAAAAAAAAAAAAAAAAAAAAAAAAAAAAAAAAAAAAAAAAAAAAAAAAAAAAAAAAAAAAAAAAAAAAAAAAAAAAAAAAAAAAAAAAAAAAAAAAAAAAAAAAAAAAAAAAAAAAAAAAAAAAAAAAAAAAAAAAAAAAAAAAAAAAAAAAAAAAAAAAAAAAAAAAAAAAAAAAAAAAAAAAAAAAAAAAAAAAAAAAAAAAAAAAAAAAAAAAAAAAAAAAAAAAAAAAAAAAAAAAAAAAAAAAAAAAAAAAAAAAAAAAAAAAAAAAAAAAAAAAAAAAAAAAAAAAAAAAAAAAAAAAAAAAAAAAAAAAAAAAAAAAAAAAAAAAAAAAAAAAAAAAAAAAAAAAAAAAAAAAAAAAAAAAAAAAAAAAAAAAAAAAAAAAAAAAAAAAAAAAAAAAAAAAAAAAAAAAAAAAAAAAAAAAAAAAAAAAAAAAAAAAAAAAAAAAAAAAAAAAAAAAAAAAAAAAAAAAAAAAAAAAAAAAAAAAAAAAAAAAAAAAAAAAAAAAAAAAAAAAAAAAAAAAAAAAAAAAAAAAAAAAAAAAAAAAAAAAAAAAAAAAAAAAAAAAAAAAAAAAAAAAAAAAAAAAAAAAAAAAAAAAAAAAAAAAAAAAAAAAAAAAAAAAAAAAAAAAAAAAAAAAAAAAAAAAAAAAAAAAAAAAAAAAAAAAAAAAAAAAAAAAAAAAAAAAAAAAAAAAAAAAAAAAAAAAAAAAAAAAAAAAAAAAAAAAAAAAAAAAAAAAAAAAAAAAAAAAAAAAAAAAAAAAAAAAAAAAAAAAAAAAAAAAAAAAAAAAAAAAAAAAAAAAAAAAAAAAAAAAAAAAAAAAAAAAAAAAAAAAAAAAAAAAAAAAAAAAAAAAAAAAAAAAAAAAAAAAAAAAAAAAAAAAAAAAAAAAAAAAAAAAAAAAAAAAAAAAAAAAAAAAAAAAAAAAAAAAAAAAAAAAAAAAAAAAAAAAAAAAAAAAAAAAAAAAAAAAAAAAAAAAAAAAAAAAAAAAAAAAAAAAAAAAAAAAAAAAAAAAAAAAAAAAAAAAAAAAAAAAAAAAAAAAAAAAAAAAAAAAAAAAAAAAAAAAAAAAAAAAAAAAAAAAAAAAAAAAAAAAAAAAAAAAAAAAAAAAAAAAAAAAAAAAAAAAAAAAAAAAAAAAAAAAAAAAAAAAAAAAAAAAAAAAAAAAAAAAAAAAAAAAAAAAAAAAAAAAAAAAAAAAAAAAAAAAAAAAAAAAAAAAAAAAAAAAAAAAAAAAAAAAAAAAAAAAAAAAAAAAAAAAAAAAAAAAAAAAAAAAAAAAAAAAAAAAAAAAAAAAAAAAAAAAAAAAAAAAAAAAAAAAAAAAAAAAAAAAAAAAAAAAAAAAAAAAAAAAAAAAAAAAAAAAAAAAAAAAAAAAAAAAAAAAAAAAAAAAAAAAAAAAAAAAAAAAAAAAAAAAAAAAAAAAAAAAAAAAAAAAAAAAAAAAAAAAAAAAAAAAAAAAAAAAAAAAAAAAAAAAAAAAAAAAAAAAAAAAAAAAAAAAAAAAAAAAAAAAAAAAAAAAAAAAAAAAAAAAAAAAAAAAAAAAAAAAAAAAAAAAAAAAAAAAAAAAAAAAAAAAAAAAAAAAAAAAAAAAAAAAAAAAAAAAAAAAAAAAAAAAAAAAAAAAAAAAAAAAAAAAAAAAAAAAAAAAAAAAAAAAAAAAAAAAAAAAAAAAAAAAAAAAAAAAAAAAAAAAAAAAAAAAAAAAAAAAAAAAAAAAAAAAAAAAAAAAAAAAAAAAAAAAAAAAAAAAAAAAAAAAAAAAAAAAAAAAAAAAAAAAAAAAAAAAAAAAAAAAAAAAAAAAAAAAAAAAAAAAAAAAAAAAAAAAAAAAAAAAAAAAAAAAAAAAAAAAAAAAAAAAAAAAAAAAAAAAAAAAAAAAAAAAAAAAAAAAAAAAAAAAAAAAAAAAAAAAAAAAAAAAAAAAAAAAAAAAAAAAAAAAAAAAAAAAAAAAAAAAAAAAAAAAAAAAAAAAAAAAAAAAAAAAAAAAAAAAAAAAAAAAAAAAAAAAAAAAAAAAAAAAAAAAAAAAAAAAAAAAAAAAAAAAAAAAAAAAAAAAAAAAAAAAAAAAAAAAAAAAAAAAAAAAAAAAAAAAAAAAAAAAAAAAAAAAAAAAAAAAAAAAAAAAAAAAAAAAAAAAAAAAAAAAAAAAAAAAAAAAAAAAAAAAAAAAAAAAAAAAAAAAAAAAAAAAAAAAAAAAAAAAAAAAAAAAAAAAAAAAAAAAAAAAAAAAAAAAAAAAAAAAAAAAAAAAAAAAAAAAAAAAAAAAAAAAAAAAAAAAAAAAAAAAAAAAAAAAAAAAAAAAAAAAAAAAAAAAAAAAAAAAAAAAAAAAAAAAAAAAAAAAAAAAAAAAAAAAAAAAAAAAAAAAAAAAAAAAAAAAAAAAAAAAAAAAAAAAAAAAAAAAAAAAAAAAAAAAAAAAAAAAAAAAAAAAAAAAAAAAAAAAAAAAAAAAAAAAAAAAAAAAAAAAAAAAAAAAAAAAAAAAAAAAAAAAAAAAAAAAAAAAAAAAAAAAAAAAAAAAAAAAAAAAAAAAAAAAAAAAAAAAAAAAAAAAAAAAAAAAAAAAAAAAAAAAAAAAAAAAAAAAAAAAAAAAAAAAAAAAAAAAAAAAAAAAAAAAAAAAAAAAAAAAAAAAAAAAAAAAAAAAAAAAAAAAAAAAAAAAAAAAAAAAAAAAAAAAAAAAAAAAAAAAAAAAAAAAAAAAAAAAAAAAAAAAAAAAAAAAAAAAAAAAAAAAAAAAAAAAAAAAAAAAAAAAAAAAAAAAAAAAAAAAAAAAAAAAAAAAAAAAAAAAAAAAAAAAAAAAAAAAAAAAAAAAAAAAAAAAAAAAAAAAAAAAAAAAAAAAAAAAAAAAAAAAAAAAAAAAAAAAAAAAAAAAAAAAAAAAAAAAAAAAAAAAAAAAAAAAAAAAAAAAAAAAAAAAAAAAAAAAAAAAAAAAAAAAAAAAAAAAAAAAAAAAAAAAAAAAAAAAAAAAAAAAAAAAAAAAAAAAAAAAAAAAAAAAAAAAAAAAAAAAAAAAAAAAAAAAAAAAAAAAAAAAAAAAAAAAAAAAAAAAAAAAAAAAAAAAAAAAAAAAAAAAAAAAAAAAAAAAAAAAAAAAAAAAAAAAAAAAAAAAAAAAAAAAAAAAAAAAAAAAAAAAAAAAAAAAAAAAAAAAAAAAAAAAAAAAAAAAAAAAAAAAAAAAAAAAAAAAAAAAAAAAAAAAAAAAAAAAAAAAAAAAAAAAAAAAAAAAAAAAAAAAAAAAAAAAAAAAAAAAAAAAAAAAAAAAAAAAAAAAAAAAAAAAAAAAAAAAAAAAAAAAAAAAAAAAAAAAAAAAAAAAAAAAAAAAAAAAAAAAAAAAAAAAAAAAAAAAAAAAAAAAAAAAAAAAAAAAAAAAAAAAAAAAAAAAAAAAAAAAAAAAAAAAAAAAAAAAAAAAAAAAAAAAAAAAAAAAAAAAAAAAAAAAAAAAAAAAAAAAAAAAAAAAAAAAAAAAAAAAAAAAAAAAAAAAAAAAAAAAAAAAAAAAAAAAAAAAAAAAAAAAAAAAAAAAAAAAAAAAAAAAAAAAAAAAAAAAAAAAAAAAAAAAAAAAAAAAAAAAAAAAAAAAAAAAAAAAAAAAAAAAAAAAAAAAAAAAAAAAAAAAAAAAAAAAAAAAAAAAAAAAAAAAAAAAAAAAAAAAAAAAAAAAAAAAAAAAAAAAAAAAAAAAAAAAAAAAAAAAAAAAAAAAAAAAAAAAAAAAAAAAAAAAAAAAAAAAAAAAAAAAAAAAAAAAAAAAAAAAAAAAAAAAAAAAAAAAAAAAAAAAAAAAAAAAAAAAAAAAAAAAAAAAAAAAAAAAAAAAAAAAAAAAAAAAAAAAAAAAAAAAAAAAAAAAAAAAAAAAAAAAAAAAAAAAAAAAAAAAAAAAAAAAAAAAAAAAAAAAAAAAAAAAAAAAAAAAAAAAAAAAAAAAAAAAAAAAAAAAAAAAAAAAAAAAAAAAAAAAAAAAAAAAAAAAAAAAAAAAAAAAAAAAAAAAAAAAAAAAAAAAAAAAAAAAAAAAAAAAAAAAAAAAAAAAAAAAAAAAAAAAAAAAAAAAAAAAAAAAAAAAAAAAAAAAAAAAAAAAAAAAAAAAAAAAAAAAAAAAAAAAAAAAAAAAAAAAAAAAAAAAAAAAAAAAAAAAAAAAAAAAAAAAAAAAAAAAAAAAAAAAAAAAAAAAAAAAAAAAAAAAAAAAAAAAAAAAAAAAAAAAAAAAAAAAAAAAAAAAAAAAAAAAAAAAAAAAAAAAAAAAAAAAAAAAAAAAAAAAAAAAAAAAAAAAAAAAAAAAAAAAAAAAAAAAAAAAAAAAAAAAAAAAAAAAAAAAAAAAAAAAAAAAAAAAAAAAAAAAAAAAAAAAAAAAAAAAAAAAAAAAAAAAAAAAAAAAAAAAAAAAAAAAAAAAAAAAAAAAAAAAAAAAAAAAAAAAAAAAAAAAAAAAAAAAAAAAAAAAAAAAAAAAAAAAAAAAAAAAAAAAAAAAAAAAAAAAAAAAAAAAAAAAAAAAAAAAAAAAAAAAAAAAAAAAAAAAAAAAAAAAAAAAAAAAAAAAAAAAAAAAAAAAAAAAAAAAAAAAAAAAAAAAAAAAAAAAAAAAAAAAAAAAAAAAAAAAAAAAAAAAAAAAAAAAAAAAAAAAAAAAAAAAAAAAAAAAAAAAAAAAAAAAAAAAAAAAAAAAAAAAAAAAAAAAAAAAAAAAAAAAAAAAAAAAAAAAAAAAAAAAAAAAAAAAAAAAAAAAAAAAAAAAAAAAAAAAAAAAAAAAAAAAAAAAAAAAAAAAAAAAAAAAAAAAAAAAAAAAAAAAAAAAAAAAAAAAAAAAAAAAAAAAAAAAAAAAAAAAAAAAAAAAAAAAAAAAAAAAAAAAAAAAAAAAAAAAAAAAAAAAAAAAAAAAAAAAAAAAAAAAAAAAAAAAAAAAAAAAAAAAAAAAAAAAAAAAAAAAAAAAAAAAAAAAAAAAAAAAAAAAAAAAAAAAAAAAAAAAAAAAAAAAAAAAAAAAAAAAAAAAAAAAAAAAAAAAAAAAAAAAAAAAAAAAAAAAAAAAAAAAAAAAAAAAAAAAAAAAAAAAAAAAAAAAAAAAAAAAAAAAAAAAAAAAAAAAAAAAAAAAAAAAAAAAAAAAAAAAAAAAAAAAAAAAAAAAAAAAAAAAAAAAAAAAAAAAAAAAAAAAAAAAAA9lhArjZhBvIET0/X8MvZZnNByQNL7ESV5KLPYY3709HrhLPaSBwkzogCyrtfbc0GUgycdbOBvNWoOW7Q1ELsp7ZK+g==</c2pa:manifest></metadata><path fill="#FEFEFE" d="M0 0L1024 0L1024 1024L0 1024L0 0Z"/><path fill="#FEFEFE" d="M457.568 832.438C452.724 832.329 447.945 832.455 443.106 832.562C421.094 833.051 399.003 833.84 377 834.37L161.13 840.449C136.374 841.025 111.806 842.22 87.0092 841.821C74.8796 841.744 62.7499 842.202 50.7005 840.7C41.355 840.599 26.479 829.482 24.0518 819.927C20.6442 806.512 22.0168 781.535 22.0441 767.203C22.1338 743.787 22.0997 720.372 21.942 696.957L21.1408 438.25L20.965 194.479L20.1588 114.224C20.0984 102.999 19.9243 91.7251 20.1285 80.5133C20.5461 74.9369 23.7166 69.1316 27.3057 65.1652C37.4073 54.0019 50.571 54.8836 64.3757 54.9474C72.0496 54.9828 80.0274 54.9176 87.8241 54.8873L162.154 54.3303L368.807 53.3334C379.975 53.2203 391.123 53.2855 402.29 53.299C436.364 53.3404 470.305 52.6383 504.401 52.7471C531.486 52.9275 558.571 52.8939 585.655 52.6464C610.51 52.5683 635.871 51.6986 660.697 52.4234C666.153 52.5827 673.471 55.9905 677.381 59.8286C681.173 63.5508 685.418 69.6018 686.308 75.0386C687.461 88.4168 686.96 103.098 687.096 116.552L687.412 218.326L688.46 422.813C688.585 467.708 687.652 513.767 688.709 558.482C683.575 558.603 670.228 559.06 665.484 558.265C662.559 559.038 659.713 560.442 657.663 562.729C633.263 589.962 609.826 618.159 586.233 646.099C581.656 651.52 576.623 656.547 573.071 662.742C565.885 675.758 580.583 676.773 589.276 676.439C589.863 696.947 589.316 718.626 589.577 739.336C571.55 735.662 561.569 736.241 543.869 739.294C535.945 740.669 523.363 744.77 516.458 748.651C514.595 750.855 514.197 750.284 511.915 751.526C504.564 755.528 497.834 761.322 491.421 766.64C479.314 778.968 469.761 793.567 463.312 809.598C461.205 816.703 458.747 825.128 457.568 832.438Z"/><path fill="#5C74EF" d="M457.568 832.438C452.724 832.329 447.945 832.455 443.106 832.562C421.094 833.051 399.003 833.84 377 834.37L161.13 840.449C136.374 841.025 111.806 842.22 87.0092 841.821C74.8796 841.744 62.7499 842.202 50.7005 840.7C41.355 840.599 26.479 829.482 24.0518 819.927C20.6442 806.512 22.0168 781.535 22.0441 767.203C22.1338 743.787 22.0997 720.372 21.942 696.957L21.1408 438.25L20.965 194.479L20.1588 114.224C20.0984 102.999 19.9243 91.7251 20.1285 80.5133C20.5461 74.9369 23.7166 69.1316 27.3057 65.1652C37.4073 54.0019 50.571 54.8836 64.3757 54.9474C72.0496 54.9828 80.0274 54.9176 87.8241 54.8873L162.154 54.3303L368.807 53.3334C379.975 53.2203 391.123 53.2855 402.29 53.299C436.364 53.3404 470.305 52.6383 504.401 52.7471C531.486 52.9275 558.571 52.8939 585.655 52.6464C610.51 52.5683 635.871 51.6986 660.697 52.4234C666.153 52.5827 673.471 55.9905 677.381 59.8286C681.173 63.5508 685.418 69.6018 686.308 75.0386C687.461 88.4168 686.96 103.098 687.096 116.552L687.412 218.326L688.46 422.813C688.585 467.708 687.652 513.767 688.709 558.482C683.575 558.603 670.228 559.06 665.484 558.265L666.296 557.681C666.842 554.898 666.516 533.327 666.511 528.895L666.452 457.22L665.868 215.948L665.957 135.603C665.985 122.903 666.151 110.366 665.654 97.4886C665.02 81.0652 668.766 75.8917 648.784 76.3886C640.212 76.6018 629.387 76.3578 620.634 76.3764L532.756 76.8159L210.849 77.7358L102.718 78.0062L70.0245 77.9999C63.6263 78.003 53.5012 77.6513 47.5434 78.9326C45.6464 80.2871 45.607 80.4612 44.3324 82.4828C43.5606 88.7908 43.8177 104.511 43.776 111.629L43.9782 179.443L43.9199 396.299L44.5209 679.135L44.572 770.774C44.6372 780.013 44.1885 802.636 45.469 810.176C48.1653 813.527 51.1312 816.787 55.7772 816.979C96.973 818.678 137.796 816.967 178.949 815.874L329.624 812.282C364 811.058 398.39 810.269 432.787 809.916C443.267 809.826 452.66 809.435 463.312 809.598C461.205 816.703 458.747 825.128 457.568 832.438Z"/><path fill="#DBD0EB" d="M542.771 585.517C543.057 620.817 543.143 656.118 543.03 691.419C543.036 697.689 542.472 737.627 543.869 739.294C535.945 740.669 523.363 744.77 516.458 748.651C515.566 748.983 514.667 749.293 513.77 749.612C507.43 751.867 449.495 750.574 437.588 750.584L312.674 751.092L119.751 753.375C127.294 746.334 172.972 710.426 179.288 708.03C184.757 705.955 196.464 706.594 203.034 705.794C223.244 703.333 244.543 698.416 263.218 690.181C271.154 686.682 278.452 680.121 285.622 675.19C300.404 665.024 317.715 653.153 333.502 645.011C342.552 646.4 350.197 648.97 358.864 650.948C371.577 653.848 394.841 657.617 407.85 656.628C432.064 654.788 460.8 645.567 482.063 633.964C485.137 632.286 491.481 627.177 494.555 625.028C502.621 619.388 510.338 613.35 517.888 607.056C526.52 599.86 535.278 593.96 542.771 585.517Z"/><path fill="#384390" d="M82.3771 584.462L82.2842 560.558C82.2729 557.032 81.4181 543.987 84.6183 542.075C100.24 532.74 96.4542 562.578 96.4497 571.004C103.881 570.96 104.873 570.639 111.737 573.268C115.945 579.225 113.712 581.358 108.762 585.346L96.9408 585.469C96.2841 598.468 96.6226 615.635 96.5094 629.004C98.6636 628.917 102.602 628.56 104.592 628.956C115.105 631.05 116.79 637.417 107.517 642.974L96.517 643.001C96.3249 656.14 96.8843 673.193 97.2398 686.514C101.919 686.483 108.552 685.077 112.049 688.812C113.352 690.215 114.003 692.102 113.841 694.009C113.163 702.753 102.735 700.872 96.9517 700.504C96.7981 703.566 96.8684 706.961 96.8982 710.041C97.0372 724.459 96.2557 739.034 96.7555 753.431C101.966 750.688 113.183 740.163 120.043 734.803C138.051 720.744 156.553 705.384 176.282 694.025C182.601 692.881 192.049 692.939 198.144 692.394C219.225 690.506 238.442 684.639 258.029 676.997C262.329 674.993 265.543 671.441 269.525 668.914C289.35 656.334 308.602 642.189 329.067 630.704C334.971 627.391 345.381 633.112 351.645 634.697C365.675 638.248 380.097 641.189 394.581 642.318C416.377 644.417 436.957 637.613 457.028 629.967C485.761 619.021 507.85 596.155 532.263 578.163C539.176 573.068 544.263 577.809 542.771 585.517C535.278 593.96 526.52 599.86 517.888 607.056C510.338 613.35 502.621 619.388 494.555 625.028C491.481 627.177 485.137 632.286 482.063 633.964C460.8 645.567 432.064 654.788 407.85 656.628C394.841 657.617 371.577 653.848 358.864 650.948C350.197 648.97 342.552 646.4 333.502 645.011C317.715 653.153 300.404 665.024 285.622 675.19C278.452 680.121 271.154 686.682 263.218 690.181C244.543 698.416 223.244 703.333 203.034 705.794C196.464 706.594 184.757 705.955 179.288 708.03C172.972 710.426 127.294 746.334 119.751 753.375L312.674 751.092L437.588 750.584C449.495 750.574 507.43 751.867 513.77 749.612C514.667 749.293 515.566 748.983 516.458 748.651C514.595 750.855 514.197 750.284 511.915 751.526C504.564 755.528 497.834 761.322 491.421 766.64C488.593 766.031 478.88 766.026 475.75 766.002L444.801 765.975C444.397 772.663 447.716 790.386 436.952 788.529C434.249 788.062 432.689 785.48 431.126 783.449C430.731 777.907 430.696 771.689 430.775 766.146C419.834 765.666 409.496 766.291 398.645 766.502C387.825 766.713 376.505 766.567 365.665 766.53C365.479 772.459 367.057 791.208 364.22 793.825C348.558 808.272 351.715 770.356 351.544 766.924C328.571 765.813 298.845 766.405 275.55 766.655C275.61 773.917 275.579 781.179 275.454 788.439C272.921 792.063 268.611 795.978 264.385 791.742C260.138 787.484 261.981 779.626 261.788 774.153C261.711 771.954 261.875 769.383 261.916 767.15C239.836 766.681 216.697 767.383 194.486 767.525C194.534 775.128 194.521 782.731 194.449 790.334C177.362 804.504 180.302 777.24 180.346 767.989C170.636 768.006 160.837 768.466 151.1 768.579C133.047 768.727 114.993 768.725 96.9406 768.572C97.0193 776.87 97.03 785.169 96.9727 793.468C92.0302 800.326 87.7262 799.928 83.1383 792.903C82.4104 786.064 82.6858 775.648 82.6921 768.502C75.9191 768.423 68.8465 769.053 62.2428 768.398C56.6431 767.842 53.6545 764.261 54.9727 758.747C55.5221 756.449 57.9372 755.213 59.7177 754.056C67.2522 753.786 74.9782 754.007 82.5327 754.133L82.4877 721.088C78.2096 720.977 61.4937 721.96 58.7228 718.767C52.3899 711.47 59.5837 704.91 68.2187 706.042C71.1196 706.423 78.9085 706.41 82.2716 706.306C82.6877 690.79 82.4724 674.145 82.5596 658.535C75.5711 658.514 68.5826 658.57 61.5953 658.705C53.8543 652.98 54.2647 649.33 62.44 644.53C68.8877 644.407 75.9587 644.621 82.4527 644.694L82.1486 598.688C75.0932 598.406 65.1234 600.089 59.3076 595.507C54.9189 592.05 60.0291 586.876 62.9292 584.498C68.8629 584.226 76.3328 584.442 82.3771 584.462Z"/><path fill="#384390" d="M304.394 93.7429L506.25 93.9176L590.624 93.7069C604.906 93.6748 619.292 93.5885 633.572 93.6905C635.473 93.7041 639.354 93.766 640.535 95.0673C643.35 98.1707 643.86 100.253 643.944 104.216C644.284 120.204 644.227 136.305 644.256 152.287L644.196 264.52L644.297 419.84L644.104 474.143C644.064 483.59 644.083 493.06 643.889 502.495C643.81 506.363 641.581 510.508 637.279 510.518C633.543 510.527 630.232 509.563 626.532 509.56L567.994 509.606L400.375 509.539L176.733 509.52L100.075 509.494C89.6127 509.483 73.0623 510.089 63.2568 509.449L59.4591 506.871C58.9695 487.719 59.4344 466.505 59.4469 447.194L59.3599 353.25L58.925 99.4711C59.3634 98.9509 59.8167 98.4435 60.2843 97.9495C61.9368 96.2302 63.9025 94.7587 66.291 94.6158C74.154 94.1455 82.4764 94.3182 90.3451 94.3357L137.489 94.3826C193.125 94.472 248.761 94.2588 304.394 93.7429Z"/><path fill="#FEFEFE" d="M74.876 186.495L316.072 186.545C316.646 215.197 316.188 245.047 316.168 273.75L316.383 417.174C316.169 442.7 316.179 468.227 316.411 493.752C307.076 494.318 294.967 494.01 285.431 494.013L231.398 493.974L75.2175 494.04C74.8091 482.008 75.049 468.789 75.0454 456.709L75.0096 392.093L74.876 186.495Z"/><path fill="#384390" d="M110.385 222.042C124.671 221.565 140.273 221.85 154.661 221.844L235.596 221.862L269.203 221.857C274.999 221.857 287.673 220.225 290.613 225.76C293.204 230.639 290.338 234.67 286.087 236.951C279.291 237.508 266.19 237.149 259.079 237.166L206.162 237.172L146.012 237.085C135.62 237.071 125.082 237.143 114.701 236.92C112.14 236.752 109.052 236.794 107.445 234.35C104.327 229.61 106.34 224.986 110.385 222.042Z"/><path fill="#384390" d="M161.776 354.746L242.576 354.806C255.228 354.792 274.163 354.177 286.415 355.002C292.792 359.512 292.837 368.857 284.316 369.871C279.55 370.439 273.545 370.067 268.613 370.058L237.25 369.991L157.193 369.894C143.241 369.897 128.855 370.632 114.943 369.807C113.04 369.694 111.04 369.601 109.454 368.415C107.933 367.277 107.054 365.354 106.851 363.5C106.597 361.182 107.179 358.488 108.822 356.75C111.753 353.651 154.666 354.756 161.776 354.746Z"/><path fill="#384390" d="M110.581 423.061C123.786 422.484 139.581 422.856 152.879 422.872L226.593 422.921L266.105 422.844C271.076 422.832 280.318 422.247 284.665 423.075C292.155 424.501 292.247 434.086 285.4 437.971C282.472 438.327 271.092 438.015 267.571 437.994L229.417 437.799L110.795 437.963C104.163 433.248 103.461 427.726 110.581 423.061Z"/><path fill="#384390" d="M200.08 289.242C218.637 289.189 237.194 289.245 255.751 289.41C264.986 289.457 274.249 289.188 283.476 289.585C293.397 290.012 292.855 303.52 284.372 303.965C275.119 304.45 265.454 304.11 256.158 304.117L197.989 304.221L109.77 303.956C103.27 298.57 103.618 295.325 109.729 289.53C138.934 288.695 170.608 289.498 200.08 289.242Z"/><path fill="#384390" d="M112.513 316.581C140.799 316.278 169.852 316.6 198.223 316.569L223.989 316.551C228.511 316.551 234.536 316.206 238.859 316.933C247.442 318.377 247.337 327.492 240.386 331.644C235.808 332.153 229.017 331.858 224.256 331.802C215.538 331.679 206.819 331.605 198.099 331.58C169.619 331.474 140.704 331.757 112.269 331.301C109.644 329.493 109.305 329.16 107.382 326.573C107.269 321.313 107.037 318.461 112.513 316.581Z"/><path fill="#384390" d="M111.886 383.056C126.207 382.503 144.441 383.013 158.986 382.998L241.861 383.008C246.717 386.027 246.522 387.204 247.026 392.66C245.068 395.186 244.267 396.103 241.448 397.601C235.404 397.951 228.714 397.934 222.644 397.81C185.379 397.053 147.513 398.584 110.3 397.457C105.483 392.081 104.819 386.834 111.886 383.056Z"/><path fill="#384390" d="M120.068 249.79C125.187 250.358 141.1 250.008 146.755 250.01C163.813 250.117 180.872 250.038 197.929 249.774C207.552 249.548 217.417 249.359 226.97 249.731C234.387 250.019 236.121 258.658 231.06 263.182C228.596 265.386 225.656 265.146 222.625 265.17C186.743 264.901 147.576 266.271 112.057 264.968C105.429 260.275 105.136 255.157 111.532 250.124L120.068 249.79Z"/><path fill="#384390" d="M113.575 450.19C150.618 451.311 188.159 449.996 225.242 450.358C227.993 450.384 231.863 450.083 234.26 451.522C236.025 452.588 237.297 454.308 237.8 456.308C238.999 461.111 235.866 464.067 231.494 464.983L152.543 465.136C139.772 465.124 127.068 465.223 114.228 464.907C107.205 464.735 105.021 459.973 107.85 453.678C108.843 451.468 111.389 450.734 113.575 450.19Z"/><path fill="#FEFEFE" d="M474.413 186.546L628.826 186.507C628.479 198.429 628.821 211.995 628.875 223.961L628.966 286.699L628.971 492.539L628.874 492.994C627.209 494.071 601.122 493.533 597.239 493.534L474.499 493.536L474.413 186.546Z"/><path fill="#384390" d="M524.891 294.25L570.293 294.01C577.05 293.982 584.423 293.703 591.114 294.162C597.776 294.619 600.936 302.602 596.187 307.444C593.623 310.06 588.125 309.59 584.743 309.596L540.63 309.574C533.722 309.59 525.046 310.082 518.421 309.393C509.822 308.499 508.437 299.715 515.861 294.665C518.676 294.424 522.022 294.364 524.891 294.25Z"/><path fill="#384390" d="M517.638 364.08C528.152 364.126 589.253 363.235 593.683 365.08C595.725 365.93 597.719 367.327 598.523 369.478C599.237 371.387 598.713 373.613 597.847 375.393C596.757 377.638 594.72 378.38 592.483 379.09C580.736 379.487 520.811 380.626 515.175 378.366C513.391 377.651 512.077 375.898 511.374 374.163C510.605 372.267 510.52 370.324 511.381 368.44C512.551 365.879 515.138 364.893 517.638 364.08Z"/><path fill="#384390" d="M515.371 230.598C530 229.692 547.76 230.84 562.727 230.408C571.809 230.147 583.996 230.256 593.161 230.944C594.541 231.205 596.741 232.264 597.341 233.626C599.876 239.385 598.819 242.198 593.94 244.759C592.34 245.221 590.934 245.422 589.269 245.441C569.412 245.612 549.524 245.63 529.666 245.612C524.099 245.607 510.952 247.251 511.092 238.841C511.157 234.987 512.685 233.122 515.371 230.598Z"/><path fill="#384390" d="M518.892 435.175L566.039 435.052C573.962 435.05 581.605 434.992 589.775 435.164C595.975 435.294 600.774 441.211 597.523 447.242C596.406 449.315 593.344 449.774 591.142 450.158L543.93 450.132C539.871 450.137 517.516 450.919 514.445 449.18C508.486 445.803 509.067 436.603 518.892 435.175Z"/><path fill="#FEFEFE" d="M333.551 186.25C374.794 185.761 417.9 186.432 459.288 186.496C458.465 263.718 459.42 341.956 459.306 419.258L459.289 470.58C459.304 474.801 459.689 490.66 459.142 493.325L458.125 493.723L331.462 493.928C330.986 479.964 331.392 463.731 331.42 449.606L331.423 372.904L331.225 237.843C331.224 231.888 330.481 189.379 331.932 186.635L333.551 186.25Z"/><path fill="#384390" d="M366.116 293.735C373.903 293.752 417.45 292.57 421.908 295.054C423.824 296.121 425.531 297.721 426.096 299.909C426.578 301.778 426.098 303.896 425.074 305.507C423.683 307.697 421.636 308.351 419.231 308.91C402.683 310.435 383.729 309.085 366.988 309.36C357.702 309.512 355.192 295.189 366.116 293.735Z"/><path fill="#384390" d="M364.016 364.15C380.35 363.437 405.318 363.674 421.626 364.152C428.323 368.699 427.822 375.15 420.764 379.006C414.865 380.503 372.104 379.438 364.241 378.895C357.041 374.68 357.049 368.65 364.016 364.15Z"/><path fill="#384390" d="M363.115 230.677C371.532 230.084 382.411 230.745 391.077 230.497C399.782 230.61 408.552 230.205 417.247 230.619C424.072 230.945 425.06 233.438 426.133 239.361C424.413 242.917 424.287 243.88 420.674 245.494C413.517 246.522 398.397 245.431 390.545 245.64C382.5 245.094 372.704 246.348 364.815 245.432C357.468 244.578 356.515 235.261 363.115 230.677Z"/><path fill="#384390" d="M382.234 435.245C390.25 435.18 398.318 435.084 406.321 435.078C410.643 435.112 420.368 434.426 423.491 437.974C430.048 445.425 421.119 451.837 413.243 450.182C411.969 449.914 405.345 450.076 404.25 450.062C390.995 450.088 376.997 450.312 363.809 449.954C357.031 445.248 357.881 440.434 363.886 435.543C368.645 435.096 377.222 435.27 382.234 435.245Z"/><path fill="#FEFEFE" d="M251.236 109.749C272.565 109.698 294.816 109.287 316.034 109.73L316.048 170.743C295.616 170.179 274.03 170.571 253.479 170.54L139.398 170.475C117.77 170.385 96.5754 171.249 75.0292 171.229L74.9062 109.927C95.4243 109.374 117.49 109.9 138.139 109.939L251.236 109.749Z"/><path fill="#312D43" d="M232.083 120.808C234.815 120.886 235.968 120.709 238.614 120.53C238.815 131.314 238.955 142.084 238.945 152.873C236.637 152.977 234.327 153.027 232.017 153.024C232.098 146.856 232.783 140.683 231.891 134.55C231.678 134.461 231.464 134.372 231.251 134.283C229.19 138.291 231.825 136.177 227.078 140.452C226.588 142.378 222.542 147.307 221.214 146.375C219.263 145.006 214.706 135.714 213.499 133.617L213 132.786C212.892 139.065 213.237 145.07 213.457 151.314C213.541 153.687 207.314 152.613 206.029 152.484C206.188 141.804 205.928 131.343 206.558 120.626C209.131 120.721 211.332 120.854 213.898 121.072C216.682 126.171 219.2 131.618 222.266 136.433C222.754 137.199 223.942 134.982 224.062 134.263C224.4 132.33 225.278 130.532 226.593 129.077C228.89 126.537 227.335 127.09 227.668 126.505C228.429 125.173 230.939 122.321 232.083 120.808Z"/><path fill="#DBD0EB" d="M227.078 140.452C227.294 139.819 228.339 136.827 228.797 136.601C229.816 136.099 230.999 131.664 231.8 132.266C232.142 132.522 231.929 134.118 231.891 134.55C231.678 134.461 231.464 134.372 231.251 134.283C229.19 138.291 231.825 136.177 227.078 140.452Z"/><path fill="#312D43" d="M177.584 120.854C185.082 121.019 193.285 120.884 200.856 120.916C200.96 127.088 202.088 126.808 195.68 126.767C191.772 126.742 187.912 126.731 183.976 126.571L184.034 133.499C188.012 133.504 194.906 133.212 198.254 133.719C198.8 133.802 199.739 141.098 194.443 139.486C194.389 139.469 185.932 139.402 184.962 139.388C183.258 140.121 184.073 144.567 184.093 146.48C189.653 146.433 194.99 146.186 200.499 146.091C200.481 148.6 200.574 150.439 200.718 152.921C193.002 152.969 185.286 152.978 177.57 152.948C177.374 142.439 177.503 131.385 177.584 120.854Z"/><path fill="#312D43" d="M148.732 121.051C156.499 120.721 165.341 120.988 173.247 120.94C173.334 122.96 173.38 124.616 173.285 126.64L164.662 126.6C164.65 132.192 164.693 137.784 164.791 143.375C164.832 146.452 164.846 149.529 164.833 152.606C162.427 152.64 160.441 152.588 158.032 152.495C158.141 143.931 157.995 135.358 158.031 126.785C150.166 126.697 148.357 129.074 148.732 121.051Z"/><path fill="#312D43" d="M144.362 120.773C144.79 120.997 145.831 122.978 145.901 123.259C145.828 123.505 145.861 123.459 145.713 123.679C143.283 127.287 146.322 150.905 144.677 152.29C143.908 152.937 140.915 152.558 139.875 152.566C139.606 152.518 138.821 152.394 138.811 152.251C138.367 146.256 138.45 125.566 138.269 120.823L144.362 120.773Z"/><path fill="#FEFEFE" d="M474.532 109.735C492.159 109.059 513.947 109.707 531.828 109.776L628.951 109.819C628.858 123.266 628.865 136.714 628.972 150.16C628.99 156.195 629.25 165.144 628.82 170.91L474.517 170.766C474.01 152.658 473.85 127.619 474.532 109.735Z"/><path fill="#312D43" d="M516.339 122.686C523.088 122.343 530.848 121.99 537.309 123.762L537.869 124.588C538.808 126 539.29 126.453 540.19 127.705L541.092 128.984C541.127 131.722 541.043 134.132 540.913 136.864C540.269 137.933 539.819 138.847 539.081 139.799C537.654 141.638 537.192 142.277 534.804 142.055C534.674 142.043 534.636 142.183 534.594 142.268C534.593 142.237 540.149 150.589 540.681 151.339L542.902 154.42C540.542 154.502 538.415 154.445 536.051 154.397C533.979 153.88 531.208 148.587 529.95 146.778C527.674 143.505 526.231 143.692 522.772 143.037C522.796 146.977 522.899 150.542 522.833 154.501C520.559 154.558 518.285 154.554 516.012 154.489C516.148 143.996 516.092 133.127 516.339 122.686Z"/><path fill="#FEFEFE" d="M528.462 127.94C529.131 128.983 530.174 128.462 531.254 128.508C532.658 128.568 534.272 131.05 535.144 131.998C531.01 141.454 531.917 136.027 528.88 137.844L528.181 138.271C526.395 137.499 523.024 138.007 522.738 136.705C523.133 135.433 524.138 135.827 522.743 134.525C522.398 134.203 522.587 128.942 522.582 128.294C524.752 128.215 526.343 128.397 528.462 127.94Z"/><path fill="#312D43" d="M490.598 122.757C501.149 122.528 515.185 121.142 510.686 138.068C509.916 140.967 506.35 142.659 503.809 144.003C501.125 143.89 498.664 143.954 495.98 143.99C494.145 144.543 494.976 152.351 494.91 154.551C492.027 154.84 490.979 154.904 488.102 154.934C488.542 146.196 488.553 137.225 488.388 128.479C488.364 127.223 488.392 124.196 488.266 123.258C488.792 122.674 489.911 122.793 490.598 122.757Z"/><path fill="#FEFEFE" d="M495.615 127.251C500.634 128.588 509.944 129.055 503.43 136.998C499.869 139.185 499.386 138.363 494.922 138.527C494.885 134.601 494.435 130.901 495.615 127.251Z"/><path fill="#312D43" d="M589.97 122.885C592.001 122.882 612.638 122.877 612.807 123.312C614.839 128.534 612.26 129.348 607.24 128.728C604.806 128.428 599.48 128.589 596.549 128.826C596.588 131.061 596.602 133.297 596.591 135.532C601.226 135.45 605.863 135.493 610.497 135.661C610.605 137.884 610.562 140.013 610.518 142.233C605.927 142.04 601.331 141.986 596.737 142.07C596.681 144.306 596.814 146.599 596.902 148.84C602.069 148.979 607.137 148.742 612.18 149.216C613.139 149.307 612.948 155.021 612.355 155.192C609.652 155.972 605.884 155.193 603 155.477C601.682 155.32 590.979 155.925 590.725 154.569C589.769 149.466 590.035 127.615 589.97 122.885Z"/><path fill="#312D43" d="M580.288 153.575C577.338 154.462 573.277 155.174 570.263 154.349C549.459 148.656 557.797 117.956 578.494 123.105C580.829 123.686 584.307 124.391 585.354 127.046C585.602 127.673 583.598 129.304 583.23 129.702L581.891 131.16L581.989 131.199C581.007 130.836 577.559 129.18 576.98 129.059C573.089 128.252 567.559 129.698 566.395 134.014C566.243 134.578 565.577 136.524 565.014 137.249C567.405 140.071 563.386 138.362 565.413 141.509C570.557 149.494 569.554 149.261 578.934 147.12C580.8 145.818 582.329 144.449 584.022 147.511C585.899 150.905 583.191 152.455 580.288 153.575Z"/><path fill="#47475D" d="M578.934 147.12C580.8 145.818 582.329 144.449 584.022 147.511C585.899 150.905 583.191 152.455 580.288 153.575C580.486 152.081 580.649 149.721 581.513 148.504C582.306 147.388 582.56 146.668 580.859 146.968C580.533 147.01 580.206 147.052 579.879 147.095L578.934 147.12Z"/><path fill="#312D43" d="M546.91 122.549C549.64 122.389 551.379 122.367 554.119 122.403C554.038 133.066 553.491 143.791 553.471 154.362C551.339 154.554 549.153 154.486 547.006 154.48C547.105 148.628 547.134 142.775 547.093 136.922C547.071 132.097 546.933 127.371 546.91 122.549Z"/><path fill="#FEFEFE" d="M331.339 109.429C344.957 109.046 360.748 109.448 374.525 109.459L459.422 109.505L459.169 170.868C416.574 171.612 373.969 171.562 331.375 170.717C330.833 151.266 331.349 129.099 331.339 109.429Z"/><path fill="#312D43" d="M360.91 122.615C363.114 122.418 365.259 121.985 367.5 122.512C381.178 125.729 384.996 141.85 374.992 151.302C374.908 151.382 374.439 151.866 374.589 152.085C375.651 153.644 378.499 151.681 379.53 151.556C379.875 151.809 381.324 155.267 381.626 155.892C378.963 159.11 379.755 159.658 376.393 158.966C371.614 157.906 367.865 157.184 363.75 154.418C363.322 154.13 362.837 154.939 362.264 154.807C354.289 153.035 349.474 148.519 348.189 140.278C347.541 136.124 350.97 130.566 353.631 127.63C355.534 125.53 358.467 124.015 360.91 122.615Z"/><path fill="#FEFEFE" d="M365.025 128.566C367.781 128.516 369.675 130.085 371.531 131.946L372.229 132.621C372.881 135.261 373.316 137.94 373.886 140.614L374.197 140.018L374.165 140.03C371.804 145.847 371.167 146.562 365.242 148.671C362.254 148.501 361.41 147.987 358.585 146.666C357.071 144.359 356.687 143.604 355.45 141.196C355.818 133.276 357.153 130.902 365.025 128.566Z"/><path fill="#312D43" d="M407.958 122.28C408.924 122.383 411.662 122.98 412.375 122.75C416.587 121.393 420.441 133.851 421.782 134.929C423.435 135.164 427.086 124.316 429.751 123.532C443.048 119.617 431.693 131.408 429.131 136.457C427.974 138.438 427.251 139.439 425.836 141.207C425.704 146.074 425.659 149.965 425.84 154.824C423.123 154.832 421.327 154.821 418.599 154.678C418.916 150.184 418.957 146.029 419.579 141.584C415.531 135.725 410.304 129.046 407.958 122.28Z"/><path fill="#312D43" d="M390.619 128.721C391.751 126.195 395.646 126.003 397.173 128.596C396.855 137.355 397.058 146.155 396.978 154.947C394.794 154.997 392.609 155.009 390.424 154.982C390.444 146.806 390.153 136.702 390.619 128.721Z"/><path fill="#312D43" d="M390.619 128.721C389.842 128.676 388.512 128.501 388.001 128.451C382.456 127.909 380.769 130.592 381.534 123.47C381.724 121.707 386.06 122.865 387.279 122.526C393.759 122.545 400.275 122.597 406.774 122.582C406.551 125.205 406.831 126.247 407.04 128.835C403.656 128.788 400.554 128.713 397.173 128.596C395.646 126.003 391.751 126.195 390.619 128.721Z"/><path fill="#312D43" d="M765.117 396.777C763.358 394.564 761.77 392.733 760.575 390.117C752.261 371.913 776.64 358.289 788.507 374.023C791.961 378.603 792.071 381.397 792.489 386.881C810.374 381.366 827.493 378.381 845.283 386.517C856.086 391.457 867.647 399.119 879.884 399.337C890.422 399.525 900.194 394.14 909.887 391.075C912.165 392.634 914.939 394.231 915.512 397.171C916.342 401.435 901.182 423.741 903.003 438.656C904.358 449.75 923.28 458.211 917.667 465.145C912.722 471.255 891.735 481.839 884.047 484.564C880.505 485.835 876.81 486.625 873.058 486.914C842.606 489.336 828.097 461.332 797.27 471.566C791.831 473.372 786.582 476.054 782.727 480.373C782.553 493.267 781.896 511.545 782.6 524.182C792.662 534.582 804.467 548.327 814.091 559.353L853.887 559.374C858.796 559.379 880.466 558.788 883.566 561.071C887.708 564.119 897.312 576.715 901.269 581.567C915.645 599.191 930.351 616.562 944.735 634.169L960.927 653.991C966.048 660.234 970.132 663.545 971.58 671.759C965.728 680.824 963.874 677.886 954.04 678.478C953.269 735.52 954.436 792.868 954.074 849.933C954.022 858.163 954.105 867.221 954.588 875.408L980.875 875.257C986.41 875.188 993.784 874.587 999.105 875.51C1007.85 877.026 1006.32 885.221 1000.08 889.559C889.941 890.699 779.794 891.012 669.65 890.497C665.336 893.543 665.656 895.37 663.506 899.842C619.786 990.764 490.741 978.166 461.157 883.029C460.326 880.357 459.615 877.635 458.804 874.998C458.662 871.474 457.484 863.947 457.04 860.067C456.716 850.619 457.07 841.856 457.568 832.438C458.747 825.128 461.205 816.703 463.312 809.598C469.761 793.567 479.314 778.968 491.421 766.64C497.834 761.322 504.564 755.528 511.915 751.526C514.197 750.284 514.595 750.855 516.458 748.651C523.363 744.77 535.945 740.669 543.869 739.294C561.569 736.241 571.55 735.662 589.577 739.336C589.316 718.626 589.863 696.947 589.276 676.439C580.583 676.773 565.885 675.758 573.071 662.742C576.623 656.547 581.656 651.52 586.233 646.099C609.826 618.159 633.263 589.962 657.663 562.729C659.713 560.442 662.559 559.038 665.484 558.265C670.228 559.06 683.575 558.603 688.709 558.482C704.35 558.435 720.699 558.684 736.241 558.344C741.645 553.395 746.767 547.701 751.851 542.351C756.168 537.809 761.525 533.033 765.632 528.49C765.244 497.344 765.08 466.196 765.141 435.049C765.125 422.454 764.824 409.29 765.117 396.777Z"/><path fill="#384390" d="M684.98 672.915C684.956 661.059 684.75 650.087 684.489 638.276C687.189 633.355 701.804 618.446 706.408 613.515L750.961 565.777C757.357 558.903 764.433 550.508 771.178 543.934C771.893 543.18 775.55 542.478 776.323 543.002C788.599 551.549 798.259 565.233 808.589 575.943C825.175 593.139 840.214 611.425 856.396 628.964C858.995 631.78 861.358 634.516 863.408 637.769C862.633 640.432 862.439 640.999 862.418 643.746C862.709 654.539 862.13 665.62 862.311 676.449C866.893 676.567 880.066 676.636 883.772 677.292C902.304 678.148 920.986 678.238 939.474 679.208C938.102 744.577 940.143 810.318 939.008 875.31C933 875.377 913.933 875.093 908.453 875.662C905.218 876.313 897.176 876.139 893.932 875.505C869.257 874.2 675.402 877.082 672.979 874.846C672.928 871.32 674.161 867.897 674.59 864.195L674.641 863.722C674.416 861.822 674.24 848.152 674.804 846.611C675.049 843.174 674.874 839.466 674.899 835.955C677.616 835.908 680.335 835.914 683.052 835.974C683.79 834.704 684.272 830.535 684.551 828.854C684.857 824.166 684.713 819.067 684.652 814.346C684.456 799.228 684.866 783.994 684.473 768.889L683.818 768.192C684.726 756.735 683.488 743.986 683.805 732.485C684.085 722.37 685.541 713.192 682.698 703.489C681.532 699.509 682.255 698.211 684.93 695.239L685.439 694.681C683.627 687.012 683.969 684.804 683.741 677.281C682.19 675.934 673.707 676.468 671.185 676.51C670.638 697.85 671.346 719.627 671.052 740.99C670.98 746.256 671.469 764.179 670.498 768.291C669.899 760.532 670.267 746.319 670.225 737.97L670.104 675.73C673.12 676.139 681.227 676.491 683.922 675.221C684.725 674.842 684.681 674.004 684.98 672.915Z"/><path fill="#DBD0EB" d="M684.98 672.915C684.956 661.059 684.75 650.087 684.489 638.276C687.189 633.355 701.804 618.446 706.408 613.515L750.961 565.777C757.357 558.903 764.433 550.508 771.178 543.934C771.893 543.18 775.55 542.478 776.323 543.002C788.599 551.549 798.259 565.233 808.589 575.943C825.175 593.139 840.214 611.425 856.396 628.964C858.995 631.78 861.358 634.516 863.408 637.769C862.633 640.432 862.439 640.999 862.418 643.746C861.025 655.839 862.356 679.005 861.932 692.374C854.469 686.188 841.652 679.722 832.986 674.455C816.627 664.513 799.847 654.813 783.12 645.515C777.418 642.345 775.402 641.225 769.541 644.468C756.024 651.947 742.956 660.097 729.648 667.92C714.878 676.514 700 684.921 685.017 693.138L684.98 672.915Z"/><path fill="#384390" d="M773.435 578.209C786.954 577.15 798.739 587.324 799.664 600.852C800.589 614.38 790.298 626.064 776.762 626.855C763.414 627.635 751.928 617.518 751.015 604.179C750.103 590.839 760.105 579.253 773.435 578.209Z"/><path fill="#DBD0EB" d="M775.506 592.041C782.435 592.316 784.567 597.67 786.429 603.25C785.021 606.33 784.637 607.119 782.757 609.962C781.344 610.709 778.35 612.353 776.9 612.761C774.729 612.444 772.556 612.074 770.41 611.617C767.526 608.669 767.274 608.211 764.986 604.84C764.995 596.304 767.192 594.245 775.506 592.041Z"/><path fill="#DBD0EB" d="M883.772 677.292C902.304 678.148 920.986 678.238 939.474 679.208C938.102 744.577 940.143 810.318 939.008 875.31C933 875.377 913.933 875.093 908.453 875.662C908.121 867.648 909.957 857.594 906.44 850.998C900.702 846.765 895.171 847.87 887.953 847.981C886.902 837.507 891.003 825.556 877.2 823.383C876.614 790.249 876.383 757.109 876.509 723.97C876.518 708.789 875.957 692.239 876.255 677.353L883.772 677.292Z"/><path fill="#DBD0EB" d="M674.641 863.722L675.313 862.435C677.254 861.857 691.285 862.075 694.537 862.082L744.969 862.396C793.963 862.596 845.026 861.453 893.815 862.834C893.894 866.883 894.088 871.504 893.932 875.505C869.257 874.2 675.402 877.082 672.979 874.846C672.928 871.32 674.161 867.897 674.59 864.195L674.641 863.722Z"/><path fill="#DBD0EB" d="M685.039 713.361C689.751 713.311 694.012 713.284 698.737 713.5C700.363 721.991 700.436 730.06 708.332 735.363C708.948 735.773 709.574 736.169 710.209 736.551C709.42 744.629 709.321 753.448 709.295 761.591C709.23 782.229 708.421 802.98 708.579 823.599L690.915 823.936C689.859 824.692 684.821 828.807 684.551 828.854C684.857 824.166 684.713 819.067 684.652 814.346C684.456 799.228 684.866 783.994 684.473 768.889C685.212 766.848 685.028 718.591 685.039 713.361Z"/><path fill="#DBD0EB" d="M674.899 835.955C677.616 835.908 680.335 835.914 683.052 835.974C682.733 839.918 682.918 844.062 682.966 848.024C680.45 848.045 675.321 849.159 674.804 846.611C675.049 843.174 674.874 839.466 674.899 835.955Z"/><path fill="#312D43" d="M756.074 737.114C768.372 738.246 781.376 736.445 794.173 737.324L794.529 824.029L756.15 823.982C756.107 813.173 754.794 740.498 756.074 737.114Z"/><path fill="#DBD0EB" d="M776.384 657.817C783.97 662.037 790.9 666.554 798.308 670.902L830.096 689.192C835.577 692.344 841.855 696.77 847.3 699.383L757.197 699.424L730.024 699.245C726.796 699.222 719.228 699.392 716.277 699.03C714.98 699.084 705.275 699.58 704.764 698.682C704.842 698.013 706.273 697.775 706.801 697.7L750.017 672.565C756.758 668.626 769.788 660.506 776.384 657.817Z"/><path fill="#DBD0EB" d="M716.277 699.03C714.98 699.084 705.275 699.58 704.764 698.682C704.842 698.013 706.273 697.775 706.801 697.7C709.463 699.196 712.388 697.543 716.277 699.03Z"/><path fill="#DBD0EB" d="M850.22 713.209C854.467 713.097 857.719 713.169 861.969 713.385C862.681 749.388 862.097 787.412 862.3 823.664L847.375 823.708L839.137 823.639L837.798 774.791C837.321 761.49 836.6 749.561 836.637 736.199C854.494 726.976 847.049 717.035 850.22 713.209Z"/><path fill="#DBD0EB" d="M697.597 838.064C756.07 837.665 814.545 837.688 873.018 838.131C873.108 840.676 873.548 845.875 872.969 847.995L871.875 848.298C857.677 847.958 843.511 848.285 829.328 848.213L755.472 847.966C737.652 848.081 715.367 848.728 697.817 848.143C697.593 844.893 697.627 841.345 697.597 838.064Z"/><path fill="#DBD0EB" d="M725.415 736.887C731.347 736.77 737.28 736.796 743.211 736.965C743.454 746.671 744.46 819.98 743.234 823.623L742.125 823.882C735.635 823.638 729.141 823.542 722.648 823.594C722.404 806.003 723.148 788.398 723.403 770.794C723.544 761.008 723.372 750.918 723.794 741.139C723.855 739.741 724.738 738.121 725.415 736.887Z"/><path fill="#DBD0EB" d="M806.086 736.581L823.516 736.612C823.25 765.323 825.201 794.874 824.922 823.975L805.951 823.954L806.086 736.581Z"/><path fill="#DBD0EB" d="M714.065 713.655C753.878 714.564 795.212 713.924 835.289 714.363C835.502 718.655 836.153 718.634 832.884 721.459C828.97 723.801 815.553 723.007 810.499 723.009L775.877 722.991L741.161 722.952C734.238 722.938 727.353 723.047 720.435 722.643C712.783 722.196 713.429 720.046 714.065 713.655Z"/><path fill="#DBD0EB" d="M563.263 772.725C606.114 771.423 641.89 805.142 643.124 847.996C644.357 890.85 610.581 926.571 567.725 927.736C524.966 928.899 489.343 895.215 488.112 852.458C486.882 809.702 520.508 774.025 563.263 772.725Z"/><path fill="#FEFEFE" d="M557.819 831.874C557.119 828.385 554.462 818.005 554.595 815.286C554.803 811.045 560.321 787.148 563.192 784.652C565.236 786.011 573.009 807.099 573.605 811.106C574.564 817.541 573.678 821.93 572.781 828.434C583.903 811.183 592.568 810.516 610.376 801.31C608.523 808.392 603.496 817.839 600.081 824.475C596.721 831.004 589.536 835.442 584.616 840.652C607.552 834.958 609.1 841.327 630.477 846.196C610.77 855.151 610.653 859.931 587.886 858.778C592.521 861.964 597.608 864.784 600.548 869.711C605.215 877.532 609.434 887.224 612.518 895.762L611.857 895.375C591.379 883.499 589.975 888.952 573.982 869.156C577.45 891.911 574.458 895.57 568.399 917.904C562.346 906.403 555.927 888.311 557.837 875.13C557.587 873.799 557.429 873.711 556.845 872.434C555.506 874.674 552.678 879.505 551.152 881.316C544.372 889.361 531.042 894.06 521.611 898.864C528.105 880.148 529.37 874.909 544.794 861.286C541.373 861.484 531.804 862.112 528.92 861.524C523.185 860.355 507.627 856.259 503.442 853.16L503.385 852.534C506.647 850.033 509.964 849.04 513.277 847.355C526.873 840.435 531.292 842.382 546.091 844.281C527.17 830.594 529.481 828.233 520.68 806.393C530.411 810.114 541.571 815.24 549.145 822.579C552.2 825.539 554.952 829.191 557.819 831.874Z"/><path fill="#DBD0EB" d="M604.268 676.938C624.619 677.394 650.273 674.178 670.104 675.73L670.225 737.97C670.267 746.319 669.899 760.532 670.498 768.291C670.185 781.174 669.642 799.481 670.613 812.011L669.428 812.524C668.051 810.945 668.347 810.05 667.629 808.26C661.348 792.59 650.423 776.567 638.316 764.794C629.214 755.942 615.587 748.983 604.279 743.517C603.866 721.713 605.145 698.596 604.268 676.938Z"/><path fill="#5C74EF" d="M801.119 413.667C826.854 409.942 842.094 423.267 864.098 432.807C869.615 435.199 887.505 433.184 886.043 443.097C885.723 445.174 884.544 447.02 882.794 448.184C877.92 451.448 868.175 450.23 862.623 449.314C854.862 447.578 842.132 440.067 835.13 436.472C818.217 427.787 803.404 425.71 786.354 435.21C785.32 435.786 784.323 434.875 783.58 434.282C781.767 430.462 782.496 424.409 782.658 419.985C788.567 416.016 794.22 414.729 801.119 413.667Z"/><path fill="#726F96" d="M670.613 812.011C671.15 814.089 670.997 816.831 671.071 819.048C670.354 817.043 669.52 814.653 669.428 812.524L670.613 812.011Z"/><path fill="#384390" d="M458.804 874.998C447.055 874.643 433.826 874.939 421.987 874.941L351.494 874.94L149.441 874.585L88.1723 874.944C79.7214 874.969 71.193 875.084 62.7405 875.007C60.3402 874.985 58.4173 874.697 56.5393 873.079C55.0391 871.776 54.1393 869.914 54.0505 867.929C53.5629 857.383 68.1509 859.842 74.6194 859.882L100.326 859.918L187.733 860.032L457.04 860.067C457.484 863.947 458.662 871.474 458.804 874.998Z"/></svg>